STARTFONT 2.3
FONT -FontForge-Roboto Condensed-Book-R-Condensed---12-120-72-72-P-59-ISO10646-1
SIZE 12 72 72  4
FONTBOUNDINGBOX 21 19 -9 -4
COMMENT "Generated by fontforge, http://fontforge.sourceforge.net"
COMMENT "Copyright 2011 Google Inc. All Rights Reserved."
STARTPROPERTIES 42
FOUNDRY "FontForge"
FAMILY_NAME "Roboto Condensed"
WEIGHT_NAME "Book"
SLANT "R"
SETWIDTH_NAME "Condensed"
ADD_STYLE_NAME ""
PIXEL_SIZE 12
POINT_SIZE 120
RESOLUTION_X 72
RESOLUTION_Y 72
SPACING "P"
AVERAGE_WIDTH 59
CHARSET_REGISTRY "ISO10646"
CHARSET_ENCODING "1"
FONTNAME_REGISTRY ""
CHARSET_COLLECTIONS "ISO8859-2 ISO8859-5 ISO8859-7 ISO8859-9 ISO8859-4 ISO10646-1"
BITS_PER_PIXEL 4
FONT_NAME "RobotoCondensed-Regular"
FACE_NAME "Roboto Condensed"
COPYRIGHT "Copyright 2011 Google Inc. All Rights Reserved."
FONT_VERSION "2.137; 2017"
FONT_ASCENT 9
FONT_DESCENT 3
UNDERLINE_POSITION -1
UNDERLINE_THICKNESS 1
X_HEIGHT 6
CAP_HEIGHT 8
DEFAULT_CHAR 1
RAW_ASCENT 750
RAW_DESCENT 250
NORM_SPACE 3
RELATIVE_WEIGHT 40
RELATIVE_SETWIDTH 50
SUPERSCRIPT_X 0
SUPERSCRIPT_Y 5
SUPERSCRIPT_SIZE 7
SUBSCRIPT_X 0
SUBSCRIPT_Y 1
SUBSCRIPT_SIZE 7
FIGURE_WIDTH 6
AVG_LOWERCASE_WIDTH 58
AVG_UPPERCASE_WIDTH 68
ENDPROPERTIES
CHARS 1296
STARTCHAR uni0000
ENCODING 0
SWIDTH 0 0
DWIDTH 0 0
BBX 1 1 0 0
BITMAP
00
ENDCHAR
STARTCHAR uni0002
ENCODING 2
SWIDTH 0 0
DWIDTH 0 0
BBX 1 1 0 0
BITMAP
00
ENDCHAR
STARTCHAR uni000D
ENCODING 13
SWIDTH 229 0
DWIDTH 3 0
BBX 1 1 0 0
BITMAP
00
ENDCHAR
STARTCHAR space
ENCODING 32
SWIDTH 229 0
DWIDTH 3 0
BBX 1 1 0 0
BITMAP
00
ENDCHAR
STARTCHAR exclam
ENCODING 33
SWIDTH 245 0
DWIDTH 3 0
BBX 2 9 0 0
BITMAP
1F
1F
0F
0F
0F
0E
06
02
0D
ENDCHAR
STARTCHAR quotedbl
ENCODING 34
SWIDTH 319 0
DWIDTH 4 0
BBX 4 3 0 6
BITMAP
3993
3992
3791
ENDCHAR
STARTCHAR numbersign
ENCODING 35
SWIDTH 547 0
DWIDTH 7 0
BBX 7 9 0 0
BITMAP
00293900
00666600
0DFFFF40
00A1B100
00C0C000
4FFFFD00
02A29000
04747000
06575000
ENDCHAR
STARTCHAR dollar
ENCODING 36
SWIDTH 493 0
DWIDTH 6 0
BBX 6 13 0 -2
BITMAP
001200
005800
05EE60
0E43E1
0F0092
0C8000
02CD40
0005E1
3700C4
2E22E2
07EE70
007600
001100
ENDCHAR
STARTCHAR percent
ENCODING 37
SWIDTH 632 0
DWIDTH 8 0
BBX 7 9 0 0
BITMAP
1CD30000
58581800
58588400
1CD4A000
00093000
002A6E80
00A2C2C0
0180C2C0
00006E80
ENDCHAR
STARTCHAR ampersand
ENCODING 38
SWIDTH 543 0
DWIDTH 7 0
BBX 7 9 0 0
BITMAP
04DD3000
0B65B000
0B559000
06DD2000
06F80200
2D3E3E00
5A06EB00
3E22E800
07ED7E20
ENDCHAR
STARTCHAR quotesingle
ENCODING 39
SWIDTH 174 0
DWIDTH 2 0
BBX 2 3 0 6
BITMAP
67
67
66
ENDCHAR
STARTCHAR parenleft
ENCODING 40
SWIDTH 313 0
DWIDTH 4 0
BBX 4 13 0 -3
BITMAP
0045
01C1
0770
0C20
1E00
3D00
4C00
3D00
1E00
0D20
0770
01C1
0045
ENDCHAR
STARTCHAR parenright
ENCODING 41
SWIDTH 318 0
DWIDTH 4 0
BBX 3 13 0 -3
BITMAP
7200
2B00
0B40
0690
03C0
02E0
01F0
01E0
03C0
0690
0A40
2B00
7200
ENDCHAR
STARTCHAR asterisk
ENCODING 42
SWIDTH 430 0
DWIDTH 5 0
BBX 5 5 0 4
BITMAP
00D000
76D590
28F920
0C5D10
150510
ENDCHAR
STARTCHAR plus
ENCODING 43
SWIDTH 496 0
DWIDTH 6 0
BBX 6 7 0 1
BITMAP
004400
008800
008800
8FFFF6
008800
008800
006500
ENDCHAR
STARTCHAR comma
ENCODING 44
SWIDTH 196 0
DWIDTH 2 0
BBX 2 4 0 -2
BITMAP
13
4C
6A
93
ENDCHAR
STARTCHAR hyphen
ENCODING 45
SWIDTH 248 0
DWIDTH 3 0
BBX 3 1 0 3
BITMAP
BFB0
ENDCHAR
STARTCHAR period
ENCODING 46
SWIDTH 263 0
DWIDTH 3 0
BBX 3 2 0 0
BITMAP
0300
1E10
ENDCHAR
STARTCHAR slash
ENCODING 47
SWIDTH 370 0
DWIDTH 4 0
BBX 4 10 0 -1
BITMAP
000D
0049
0094
00D1
03B0
0760
0C20
1C00
6800
A300
ENDCHAR
STARTCHAR zero
ENCODING 48
SWIDTH 493 0
DWIDTH 6 0
BBX 6 9 0 0
BITMAP
05DD40
0E34D0
3C00D2
5B00C3
5B00C4
5B00C3
3C00D2
0E34D0
05DD40
ENDCHAR
STARTCHAR one
ENCODING 49
SWIDTH 493 0
DWIDTH 6 0
BBX 4 9 0 0
BITMAP
039B
1C8C
004C
004C
004C
004C
004C
004C
004C
ENDCHAR
STARTCHAR two
ENCODING 50
SWIDTH 493 0
DWIDTH 6 0
BBX 6 9 0 0
BITMAP
07ED50
3D24E0
4600E2
0002D0
000A60
006B00
03D200
1C4000
5FFFF7
ENDCHAR
STARTCHAR three
ENCODING 51
SWIDTH 493 0
DWIDTH 6 0
BBX 6 9 0 0
BITMAP
07ED40
2D25D0
2500F0
0006C0
00FF40
0004E0
3500E2
3D24E0
07ED40
ENDCHAR
STARTCHAR four
ENCODING 52
SWIDTH 493 0
DWIDTH 6 0
BBX 6 9 0 0
BITMAP
000B90
004F90
00B990
04B690
0B3690
4B0690
9FFFF8
000690
000690
ENDCHAR
STARTCHAR five
ENCODING 53
SWIDTH 493 0
DWIDTH 6 0
BBX 6 9 0 0
BITMAP
08FFF3
0A5000
0B3000
0CDE70
0533E2
0000A5
1500A5
0E32E2
04DE60
ENDCHAR
STARTCHAR six
ENCODING 54
SWIDTH 493 0
DWIDTH 6 0
BBX 6 9 0 0
BITMAP
008E40
08B200
0E2000
2EBE60
3F43E1
3C00B4
2E00B4
0C53E1
03DE50
ENDCHAR
STARTCHAR seven
ENCODING 55
SWIDTH 493 0
DWIDTH 6 0
BBX 6 9 0 0
BITMAP
8FFFF6
0000D2
0004B0
000960
001E10
005A00
00B500
01E000
079000
ENDCHAR
STARTCHAR eight
ENCODING 56
SWIDTH 493 0
DWIDTH 6 0
BBX 6 9 0 0
BITMAP
05ED40
0E34D0
2E00F1
0D34C0
06FF40
1D23D1
4B00D3
2E23E1
07EE60
ENDCHAR
STARTCHAR nine
ENCODING 57
SWIDTH 493 0
DWIDTH 6 0
BBX 6 9 0 0
BITMAP
06EC20
2E27B0
5A00F0
5A00E2
2E26F2
07EAF1
0002D0
002B70
06E800
ENDCHAR
STARTCHAR colon
ENCODING 58
SWIDTH 233 0
DWIDTH 3 0
BBX 3 7 0 0
BITMAP
0300
1E10
0000
0000
0000
0300
1E10
ENDCHAR
STARTCHAR semicolon
ENCODING 59
SWIDTH 202 0
DWIDTH 2 0
BBX 2 9 0 -2
BITMAP
03
3D
00
00
00
14
3D
5B
84
ENDCHAR
STARTCHAR less
ENCODING 60
SWIDTH 445 0
DWIDTH 5 0
BBX 5 5 0 2
BITMAP
001760
07D810
8D2000
07D810
001760
ENDCHAR
STARTCHAR equal
ENCODING 61
SWIDTH 479 0
DWIDTH 6 0
BBX 5 3 0 2
BITMAP
2FFFF0
000000
2FFFF0
ENDCHAR
STARTCHAR greater
ENCODING 62
SWIDTH 459 0
DWIDTH 6 0
BBX 5 5 0 2
BITMAP
3A2000
06CA20
0009F0
06CA30
3A2000
ENDCHAR
STARTCHAR question
ENCODING 63
SWIDTH 421 0
DWIDTH 5 0
BBX 5 9 0 0
BITMAP
0AEB10
6B1B60
220880
000D40
008A00
01E100
017000
002000
01D000
ENDCHAR
STARTCHAR at
ENCODING 64
SWIDTH 769 0
DWIDTH 9 0
BBX 9 11 0 -3
BITMAP
002AEE9100
01D5116B00
0952DD3840
0C0B585380
390C083290
482B0A2290
482C2E4850
2A0AD7EA00
0D10000000
05C3031000
005DEB2000
ENDCHAR
STARTCHAR A
ENCODING 65
SWIDTH 576 0
DWIDTH 7 0
BBX 7 9 0 0
BITMAP
002F1000
007E6000
00C8A000
01E1E000
06A0C400
0A608900
0EFFFE00
4D000E30
98000980
ENDCHAR
STARTCHAR B
ENCODING 66
SWIDTH 545 0
DWIDTH 7 0
BBX 6 9 0 0
BITMAP
1FFFB1
1F01A8
1F006A
1F01B6
1FFFD1
1F008A
1F004C
1F009A
1FFFB2
ENDCHAR
STARTCHAR C
ENCODING 67
SWIDTH 566 0
DWIDTH 7 0
BBX 7 9 0 0
BITMAP
02BEC300
0B815D00
2E000C30
4D000000
4C000000
4D000000
2E000C20
0B715D00
02BEC300
ENDCHAR
STARTCHAR D
ENCODING 68
SWIDTH 570 0
DWIDTH 7 0
BBX 7 9 0 0
BITMAP
1FFD9000
1F02A800
1F002E00
1F000F10
1F000E10
1F000F10
1F002E00
1F02B800
1FFD8000
ENDCHAR
STARTCHAR E
ENCODING 69
SWIDTH 496 0
DWIDTH 6 0
BBX 6 9 0 0
BITMAP
1FFFF7
1F0000
1F0000
1F0000
1FFFF0
1F0000
1F0000
1F0000
1FFFF8
ENDCHAR
STARTCHAR F
ENCODING 70
SWIDTH 480 0
DWIDTH 6 0
BBX 6 9 0 0
BITMAP
1FFFF5
1F0000
1F0000
1F0000
1FFFD0
1F0000
1F0000
1F0000
1F0000
ENDCHAR
STARTCHAR G
ENCODING 71
SWIDTH 590 0
DWIDTH 7 0
BBX 7 9 0 0
BITMAP
02CEC400
0C715E00
2E000920
4C000000
4C000000
4D06FF40
2E000C40
0B812D40
02BED800
ENDCHAR
STARTCHAR H
ENCODING 72
SWIDTH 620 0
DWIDTH 7 0
BBX 7 9 0 0
BITMAP
1F000980
1F000980
1F000980
1F000980
1FFFFF80
1F000980
1F000980
1F000980
1F000980
ENDCHAR
STARTCHAR I
ENCODING 73
SWIDTH 250 0
DWIDTH 3 0
BBX 2 9 1 0
BITMAP
F1
F1
F1
F1
F1
F1
F1
F1
F1
ENDCHAR
STARTCHAR J
ENCODING 74
SWIDTH 483 0
DWIDTH 6 0
BBX 5 9 0 0
BITMAP
0002E0
0002E0
0002E0
0002E0
0002E0
0002E0
4303E0
7B18B0
1AEC20
ENDCHAR
STARTCHAR K
ENCODING 75
SWIDTH 544 0
DWIDTH 7 0
BBX 7 9 0 0
BITMAP
1F005D10
1F01E400
1F0B8000
1F6C0000
1FEC0000
1F5C6000
1F03E100
1F00A900
1F002E30
ENDCHAR
STARTCHAR L
ENCODING 76
SWIDTH 475 0
DWIDTH 6 0
BBX 6 9 0 0
BITMAP
1F0000
1F0000
1F0000
1F0000
1F0000
1F0000
1F0000
1F0000
1FFFF5
ENDCHAR
STARTCHAR M
ENCODING 77
SWIDTH 755 0
DWIDTH 9 0
BBX 9 9 0 0
BITMAP
1F70006F20
1FB000BF20
1EE101ED20
1EA505AD20
1F5A096E20
1F1E0D1E20
1F0A7B0E20
1F06E60E20
1F01F20E20
ENDCHAR
STARTCHAR N
ENCODING 78
SWIDTH 619 0
DWIDTH 7 0
BBX 7 9 0 0
BITMAP
1F400980
1FB00980
1FC30980
1F4B0980
1F0C3980
1F05B980
1F00CC80
1F005F80
1F000C80
ENDCHAR
STARTCHAR O
ENCODING 79
SWIDTH 600 0
DWIDTH 7 0
BBX 7 9 0 0
BITMAP
02BEC300
0B815E10
2E000B50
3C000A70
4C000970
4C000970
2E000B50
0B815E10
02BEC300
ENDCHAR
STARTCHAR P
ENCODING 80
SWIDTH 554 0
DWIDTH 7 0
BBX 7 9 0 0
BITMAP
1FFFD400
1F005E00
1F000E20
1F004E10
1FFFD500
1F000000
1F000000
1F000000
1F000000
ENDCHAR
STARTCHAR Q
ENCODING 81
SWIDTH 600 0
DWIDTH 7 0
BBX 7 11 0 -2
BITMAP
02BEC300
0C715D00
2E000C40
4C000A60
5B000A60
4C000A60
2E000C40
0C715E10
02BEF800
00003D40
00000100
ENDCHAR
STARTCHAR R
ENCODING 82
SWIDTH 530 0
DWIDTH 6 0
BBX 7 9 0 0
BITMAP
1FFFB200
1F019A00
1F004C00
1F019A00
1FFFC100
1F05C000
1F00E300
1F008900
1F003E10
ENDCHAR
STARTCHAR S
ENCODING 83
SWIDTH 518 0
DWIDTH 6 0
BBX 6 9 0 0
BITMAP
05DE90
2E31B7
3D0047
1E7100
03BE70
0003C7
56006A
3E31A8
06DEA1
ENDCHAR
STARTCHAR T
ENCODING 84
SWIDTH 520 0
DWIDTH 6 0
BBX 6 9 0 0
BITMAP
AFFFFE
006A00
006A00
006A00
006A00
006A00
006A00
006A00
006A00
ENDCHAR
STARTCHAR U
ENCODING 85
SWIDTH 561 0
DWIDTH 7 0
BBX 6 9 0 0
BITMAP
4C001F
4C001F
4C001F
4C001F
4C001F
4C001F
3D002E
1E417B
05DEB2
ENDCHAR
STARTCHAR V
ENCODING 86
SWIDTH 560 0
DWIDTH 7 0
BBX 7 9 0 0
BITMAP
98000C50
5C001F10
1F105B00
0B509700
0690D200
02D3D000
00D98000
008F4000
004E0000
ENDCHAR
STARTCHAR W
ENCODING 87
SWIDTH 761 0
DWIDTH 9 0
BBX 9 9 0 0
BITMAP
7900E305B0
4B02F60880
2E05C90A50
0E196C0D20
0B4C1C1E00
087D097C00
05CA06C900
03F603F600
00F300E300
ENDCHAR
STARTCHAR X
ENCODING 88
SWIDTH 550 0
DWIDTH 7 0
BBX 7 9 0 0
BITMAP
4E005E10
0C60C700
05D4E100
00CE7000
007F1000
00DD7000
05C3E100
0D60B700
5D004E10
ENDCHAR
STARTCHAR Y
ENCODING 89
SWIDTH 524 0
DWIDTH 6 0
BBX 6 9 0 0
BITMAP
99005D
3E00A7
0B51E1
05B790
00DD20
007B00
006A00
006A00
006A00
ENDCHAR
STARTCHAR Z
ENCODING 90
SWIDTH 522 0
DWIDTH 6 0
BBX 6 9 0 0
BITMAP
6FFFF9
0000D4
0006B0
001E30
008A00
01E200
098000
2E1000
7FFFFC
ENDCHAR
STARTCHAR bracketleft
ENCODING 91
SWIDTH 250 0
DWIDTH 3 0
BBX 3 12 0 -2
BITMAP
3FB0
3D00
3D00
3D00
3D00
3D00
3D00
3D00
3D00
3D00
3D00
3FB0
ENDCHAR
STARTCHAR backslash
ENCODING 92
SWIDTH 369 0
DWIDTH 4 0
BBX 5 10 0 -1
BITMAP
860000
4B0000
0E1000
0A5000
059000
01E000
00B300
007800
002C00
000D20
ENDCHAR
STARTCHAR bracketright
ENCODING 93
SWIDTH 250 0
DWIDTH 3 0
BBX 3 12 0 -2
BITMAP
CF20
0E20
0E20
0E20
0E20
0E20
0E20
0E20
0E20
0E20
0E20
CF20
ENDCHAR
STARTCHAR asciicircum
ENCODING 94
SWIDTH 371 0
DWIDTH 4 0
BBX 4 4 0 5
BITMAP
05B0
0AD2
1C67
681D
ENDCHAR
STARTCHAR underscore
ENCODING 95
SWIDTH 404 0
DWIDTH 5 0
BBX 5 1 0 -1
BITMAP
DFFFB0
ENDCHAR
STARTCHAR grave
ENCODING 96
SWIDTH 309 0
DWIDTH 4 0
BBX 3 2 0 7
BITMAP
4E20
0870
ENDCHAR
STARTCHAR a
ENCODING 97
SWIDTH 479 0
DWIDTH 6 0
BBX 6 7 0 0
BITMAP
05ED40
1E25C0
0202E0
07EFE0
3D22E0
4D16E0
0BE9F1
ENDCHAR
STARTCHAR b
ENCODING 98
SWIDTH 493 0
DWIDTH 6 0
BBX 6 9 0 0
BITMAP
3C0000
3C0000
3DBE70
3E32E2
3C00B5
3C00A6
3C00B5
3E32E2
3CBE70
ENDCHAR
STARTCHAR c
ENCODING 99
SWIDTH 461 0
DWIDTH 6 0
BBX 6 7 0 0
BITMAP
07ED50
2E23E0
6A0061
790000
6A0030
2E23E0
07ED40
ENDCHAR
STARTCHAR d
ENCODING 100
SWIDTH 496 0
DWIDTH 6 0
BBX 6 9 0 0
BITMAP
0000E2
0000E2
08EBE2
2E24F2
6A00E2
7900E2
6A00E2
2E24F2
08EBD2
ENDCHAR
STARTCHAR e
ENCODING 101
SWIDTH 468 0
DWIDTH 6 0
BBX 6 7 0 0
BITMAP
06ED40
2E24D0
5A00E1
6FFFF2
5A0000
2E2170
06EE80
ENDCHAR
STARTCHAR f
ENCODING 102
SWIDTH 316 0
DWIDTH 4 0
BBX 4 9 0 0
BITMAP
05E9
0B60
9FF5
0C40
0C40
0C40
0C40
0C40
0C40
ENDCHAR
STARTCHAR g
ENCODING 103
SWIDTH 492 0
DWIDTH 6 0
BBX 6 9 0 -2
BITMAP
08EBD2
3E24F2
6A00D2
7900D2
6A00D2
2E24F2
08EBE2
0203E0
0AED50
ENDCHAR
STARTCHAR h
ENCODING 104
SWIDTH 482 0
DWIDTH 6 0
BBX 5 9 0 0
BITMAP
3C0000
3C0000
3DBE60
3F34E0
3C00F0
3C00F0
3C00F0
3C00F0
3C00F0
ENDCHAR
STARTCHAR i
ENCODING 105
SWIDTH 229 0
DWIDTH 3 0
BBX 2 10 0 0
BITMAP
02
2C
00
2D
2D
2D
2D
2D
2D
2D
ENDCHAR
STARTCHAR j
ENCODING 106
SWIDTH 223 0
DWIDTH 3 0
BBX 3 12 -1 -2
BITMAP
0020
03B0
0000
03C0
03C0
03C0
03C0
03C0
03C0
03C0
05C0
2E60
ENDCHAR
STARTCHAR k
ENCODING 107
SWIDTH 450 0
DWIDTH 5 0
BBX 6 9 0 0
BITMAP
3C0000
3C0000
3C07A0
3C2D10
3CA500
3EF500
3E7D00
3C0C70
3C03E1
ENDCHAR
STARTCHAR l
ENCODING 108
SWIDTH 229 0
DWIDTH 3 0
BBX 2 9 0 0
BITMAP
2D
2D
2D
2D
2D
2D
2D
2D
2D
ENDCHAR
STARTCHAR m
ENCODING 109
SWIDTH 752 0
DWIDTH 9 0
BBX 9 7 0 0
BITMAP
3DBE6AE900
3E34F62E20
3C00F10C40
3C00F00C40
3C00F00C40
3C00F00C40
3C00F00C40
ENDCHAR
STARTCHAR n
ENCODING 110
SWIDTH 483 0
DWIDTH 6 0
BBX 5 7 0 0
BITMAP
3CBE60
3F34E0
3C00F0
3C00F0
3C00F0
3C00F0
3C00F0
ENDCHAR
STARTCHAR o
ENCODING 111
SWIDTH 501 0
DWIDTH 6 0
BBX 6 7 0 0
BITMAP
05DD50
2E33E2
5A00A6
790097
5A00A6
2E32E2
06DD60
ENDCHAR
STARTCHAR p
ENCODING 112
SWIDTH 493 0
DWIDTH 6 0
BBX 6 9 0 -2
BITMAP
3CBE70
3E33E2
3C00B4
3C00A5
3C00B4
3E23E2
3DBE70
3C0000
3C0000
ENDCHAR
STARTCHAR q
ENCODING 113
SWIDTH 500 0
DWIDTH 6 0
BBX 6 9 0 -2
BITMAP
08EBD2
3E23F2
6A00E2
7900E2
6A00E2
3E23F2
08EBE2
0000E2
0000E2
ENDCHAR
STARTCHAR r
ENCODING 114
SWIDTH 304 0
DWIDTH 4 0
BBX 4 7 0 0
BITMAP
3DC6
3F40
3C00
3C00
3C00
3C00
3C00
ENDCHAR
STARTCHAR s
ENCODING 115
SWIDTH 455 0
DWIDTH 5 0
BBX 5 7 0 0
BITMAP
08ED30
2E27B0
2E4010
05DB20
1108B0
4C15C0
09ED40
ENDCHAR
STARTCHAR t
ENCODING 116
SWIDTH 295 0
DWIDTH 4 0
BBX 4 9 0 0
BITMAP
0D20
0D20
DFF1
0D20
0D20
0D20
0D20
0D40
08E1
ENDCHAR
STARTCHAR u
ENCODING 117
SWIDTH 483 0
DWIDTH 6 0
BBX 5 7 0 0
BITMAP
4C00F0
4C00F0
4C00F0
4C00F0
4C00F0
2E26F0
09EAF0
ENDCHAR
STARTCHAR v
ENCODING 118
SWIDTH 427 0
DWIDTH 5 0
BBX 5 7 0 0
BITMAP
9705A0
5A0860
1E0C20
0C3D00
08A900
04F500
00E100
ENDCHAR
STARTCHAR w
ENCODING 119
SWIDTH 649 0
DWIDTH 8 0
BBX 8 7 0 0
BITMAP
960A6096
690DA0C2
2C2CD1E0
0E68B5B0
0BD48C70
08F14F40
04C01F10
ENDCHAR
STARTCHAR x
ENCODING 120
SWIDTH 438 0
DWIDTH 5 0
BBX 5 7 0 0
BITMAP
6B08A0
0D3E20
06DA00
01F400
07DA00
1E2D30
7B07A0
ENDCHAR
STARTCHAR y
ENCODING 121
SWIDTH 416 0
DWIDTH 5 0
BBX 5 9 0 -2
BITMAP
A70790
5B0B50
1E0E10
0C6C00
07D700
03F300
00D000
069000
7D2000
ENDCHAR
STARTCHAR z
ENCODING 122
SWIDTH 438 0
DWIDTH 5 0
BBX 5 7 0 0
BITMAP
6FFFA0
000C50
006B00
01E300
089000
2E1000
7FFFC0
ENDCHAR
STARTCHAR braceleft
ENCODING 123
SWIDTH 306 0
DWIDTH 4 0
BBX 4 11 0 -2
BITMAP
0094
06A0
0870
0970
1C50
9D00
1C40
0970
0870
06A0
0094
ENDCHAR
STARTCHAR bar
ENCODING 124
SWIDTH 243 0
DWIDTH 3 0
BBX 1 11 1 -2
BITMAP
D0
D0
D0
D0
D0
D0
D0
D0
D0
D0
D0
ENDCHAR
STARTCHAR braceright
ENCODING 125
SWIDTH 306 0
DWIDTH 4 0
BBX 4 11 0 -2
BITMAP
8500
1E10
0C30
0C40
0970
02F4
0970
0C40
0C30
1E10
8500
ENDCHAR
STARTCHAR asciitilde
ENCODING 126
SWIDTH 589 0
DWIDTH 7 0
BBX 7 2 0 2
BITMAP
09E91940
3C19EB00
ENDCHAR
STARTCHAR uni00A0
ENCODING 160
SWIDTH 229 0
DWIDTH 3 0
BBX 1 1 0 0
BITMAP
00
ENDCHAR
STARTCHAR exclamdown
ENCODING 161
SWIDTH 231 0
DWIDTH 3 0
BBX 2 9 0 -2
BITMAP
2C
02
06
1D
1D
1E
2E
2E
2E
ENDCHAR
STARTCHAR cent
ENCODING 162
SWIDTH 479 0
DWIDTH 6 0
BBX 6 11 0 -2
BITMAP
003200
008700
05EE60
1E33E0
4B0030
6A0000
5B0010
1E32E1
06EE60
008700
003300
ENDCHAR
STARTCHAR sterling
ENCODING 163
SWIDTH 510 0
DWIDTH 6 0
BBX 6 9 0 0
BITMAP
01BEB1
08A1B6
0B5033
0B6000
7FFE00
0A6000
0A6000
0C4000
6FFFFB
ENDCHAR
STARTCHAR currency
ENCODING 164
SWIDTH 712 0
DWIDTH 9 0
BBX 8 7 0 0
BITMAP
2D8DEB8C
0AC316F5
0E100079
2D00004B
0E100079
0BC216F6
2C7DEB7B
ENDCHAR
STARTCHAR yen
ENCODING 165
SWIDTH 463 0
DWIDTH 6 0
BBX 6 9 0 0
BITMAP
9901E3
2E05B0
0B4B40
04BC00
4FFFC0
00C400
4FFFC0
00C400
00C400
ENDCHAR
STARTCHAR brokenbar
ENCODING 166
SWIDTH 239 0
DWIDTH 3 0
BBX 2 11 0 -2
BITMAP
2E
2E
2E
2E
2E
00
2E
2E
2E
2E
2E
ENDCHAR
STARTCHAR section
ENCODING 167
SWIDTH 537 0
DWIDTH 6 0
BBX 6 12 0 -3
BITMAP
05DEA1
1E31B7
2D0046
0CA300
2D9EB1
6A00A9
4D204B
08EAC6
0018E3
460088
3E31B6
07EEA0
ENDCHAR
STARTCHAR dieresis
ENCODING 168
SWIDTH 417 0
DWIDTH 5 0
BBX 5 2 0 7
BITMAP
020200
4B0B40
ENDCHAR
STARTCHAR copyright
ENCODING 169
SWIDTH 785 0
DWIDTH 9 0
BBX 9 9 0 0
BITMAP
004CED8000
06C4128B00
1C19EC2760
564A1661A0
74670000A0
564A1661A0
1C19EC2760
06C3128B00
004CED8000
ENDCHAR
STARTCHAR ordfeminine
ENCODING 170
SWIDTH 395 0
DWIDTH 5 0
BBX 4 5 0 4
BITMAP
0AE7
062D
0BFD
2D2D
0CDE
ENDCHAR
STARTCHAR guillemotleft
ENCODING 171
SWIDTH 417 0
DWIDTH 5 0
BBX 5 5 0 1
BITMAP
048930
0C4B00
5AA500
0C4B00
048930
ENDCHAR
STARTCHAR logicalnot
ENCODING 172
SWIDTH 487 0
DWIDTH 6 0
BBX 5 2 0 3
BITMAP
4FFFD0
0003D0
ENDCHAR
STARTCHAR uni00AD
ENCODING 173
SWIDTH 248 0
DWIDTH 3 0
BBX 3 1 0 3
BITMAP
BFB0
ENDCHAR
STARTCHAR registered
ENCODING 174
SWIDTH 786 0
DWIDTH 9 0
BBX 9 9 0 0
BITMAP
004CED8000
06C4128B00
1C1FFD2760
560C0861A0
740FFE10A0
560C0861A0
1C0C058760
06C3128B00
004CED8000
ENDCHAR
STARTCHAR macron
ENCODING 175
SWIDTH 414 0
DWIDTH 5 0
BBX 5 1 0 7
BITMAP
3FFF40
ENDCHAR
STARTCHAR degree
ENCODING 176
SWIDTH 373 0
DWIDTH 4 0
BBX 4 3 0 6
BITMAP
0BE4
3B3A
0BE5
ENDCHAR
STARTCHAR plusminus
ENCODING 177
SWIDTH 469 0
DWIDTH 6 0
BBX 6 8 0 0
BITMAP
003200
008600
008600
6FFFF2
008600
008600
002100
3FFFE0
ENDCHAR
STARTCHAR uni00B2
ENCODING 178
SWIDTH 329 0
DWIDTH 4 0
BBX 4 5 0 4
BITMAP
2DD1
6695
01C1
1B30
7FF8
ENDCHAR
STARTCHAR uni00B3
ENCODING 179
SWIDTH 329 0
DWIDTH 4 0
BBX 4 5 0 4
BITMAP
3ED1
33A4
09E1
4395
4ED2
ENDCHAR
STARTCHAR acute
ENCODING 180
SWIDTH 313 0
DWIDTH 4 0
BBX 3 2 0 7
BITMAP
08B0
1C10
ENDCHAR
STARTCHAR mu
ENCODING 181
SWIDTH 498 0
DWIDTH 6 0
BBX 6 9 0 -2
BITMAP
2D00E2
2D00E2
2D00E2
2D00E2
2E00E2
2F34F2
2EDCD2
2D0000
2D0000
ENDCHAR
STARTCHAR paragraph
ENCODING 182
SWIDTH 434 0
DWIDTH 5 0
BBX 5 9 0 0
BITMAP
027820
2EFF40
7FFF40
8FFF40
5FFF40
08EF40
000C40
000C40
000C40
ENDCHAR
STARTCHAR periodcentered
ENCODING 183
SWIDTH 243 0
DWIDTH 3 0
BBX 2 2 0 3
BITMAP
1D
03
ENDCHAR
STARTCHAR cedilla
ENCODING 184
SWIDTH 229 0
DWIDTH 3 0
BBX 3 2 0 -2
BITMAP
1600
4D20
ENDCHAR
STARTCHAR uni00B9
ENCODING 185
SWIDTH 329 0
DWIDTH 4 0
BBX 3 5 0 4
BITMAP
0780
4C90
0490
0490
0490
ENDCHAR
STARTCHAR ordmasculine
ENCODING 186
SWIDTH 402 0
DWIDTH 5 0
BBX 5 5 0 4
BITMAP
09E700
3C1D10
590C20
3C1D10
09E700
ENDCHAR
STARTCHAR guillemotright
ENCODING 187
SWIDTH 417 0
DWIDTH 5 0
BBX 5 5 0 1
BITMAP
3A6700
0A4C10
04A870
0A4C10
2A6700
ENDCHAR
STARTCHAR onequarter
ENCODING 188
SWIDTH 637 0
DWIDTH 8 0
BBX 8 9 0 0
BITMAP
19500000
7D601900
08608400
0861A000
086837A0
002A1DA0
009295A0
0180FFF3
000003A0
ENDCHAR
STARTCHAR onehalf
ENCODING 189
SWIDTH 677 0
DWIDTH 8 0
BBX 8 9 0 0
BITMAP
19500000
7D603600
0860A100
08648000
086B4DD1
005754A4
00B102C1
03601C20
00007FF8
ENDCHAR
STARTCHAR threequarters
ENCODING 190
SWIDTH 673 0
DWIDTH 8 0
BBX 8 9 0 0
BITMAP
1CE40000
13680630
05F40B00
25597500
1CE5B2E1
000849E1
001A38C1
00639FF9
000000C1
ENDCHAR
STARTCHAR questiondown
ENCODING 191
SWIDTH 421 0
DWIDTH 5 0
BBX 5 9 0 -2
BITMAP
00D000
002000
007000
02E000
0B7000
4C0000
870000
7A1A70
1BEB10
ENDCHAR
STARTCHAR Agrave
ENCODING 192
SWIDTH 576 0
DWIDTH 7 0
BBX 7 12 0 0
BITMAP
01D50000
003B0000
00000000
002F1000
007E6000
00C8A000
01E1E000
06A0C400
0A608900
0EFFFE00
4D000E30
98000980
ENDCHAR
STARTCHAR Aacute
ENCODING 193
SWIDTH 576 0
DWIDTH 7 0
BBX 7 12 0 0
BITMAP
0005D100
000B3000
00000000
002F1000
007E6000
00C8A000
01E1E000
06A0C400
0A608900
0EFFFE00
4D000E30
98000980
ENDCHAR
STARTCHAR Acircumflex
ENCODING 194
SWIDTH 576 0
DWIDTH 7 0
BBX 7 12 0 0
BITMAP
004E4000
00B4A000
00000000
002F1000
007E6000
00C8A000
01E1E000
06A0C400
0A608900
0EFFFE00
4D000E30
98000980
ENDCHAR
STARTCHAR Atilde
ENCODING 195
SWIDTH 576 0
DWIDTH 7 0
BBX 7 12 0 0
BITMAP
00D78300
0388C000
00000000
002F1000
007E6000
00C8A000
01E1E000
06A0C400
0A608900
0EFFFE00
4D000E30
98000980
ENDCHAR
STARTCHAR Adieresis
ENCODING 196
SWIDTH 576 0
DWIDTH 7 0
BBX 7 12 0 0
BITMAP
00202000
04B0B400
00000000
002F1000
007E6000
00C8A000
01E1E000
06A0C400
0A608900
0EFFFE00
4D000E30
98000980
ENDCHAR
STARTCHAR Aring
ENCODING 197
SWIDTH 576 0
DWIDTH 7 0
BBX 7 13 0 0
BITMAP
00695000
00909000
00685000
00000000
002F1000
007E6000
00C8A000
01E1E000
06A0C400
0A608900
0EFFFE00
4D000E30
98000980
ENDCHAR
STARTCHAR AE
ENCODING 198
SWIDTH 812 0
DWIDTH 10 0
BBX 10 9 0 0
BITMAP
0000EFFFF3
0006DC0000
000D6C0000
006C3D0000
00D52FFFC0
05E02E0000
0CFFFE0000
4E101F0000
C7000FFFF7
ENDCHAR
STARTCHAR Ccedilla
ENCODING 199
SWIDTH 566 0
DWIDTH 7 0
BBX 7 11 0 -2
BITMAP
02BEC300
0B815D00
2E000C30
4D000000
4C000000
4D000000
2E000C20
0B715D00
02BEC300
00070000
000E5000
ENDCHAR
STARTCHAR Egrave
ENCODING 200
SWIDTH 496 0
DWIDTH 6 0
BBX 6 12 0 0
BITMAP
04E200
008700
000000
1FFFF7
1F0000
1F0000
1F0000
1FFFF0
1F0000
1F0000
1F0000
1FFFF8
ENDCHAR
STARTCHAR Eacute
ENCODING 201
SWIDTH 496 0
DWIDTH 6 0
BBX 6 12 0 0
BITMAP
000A90
003B00
000000
1FFFF7
1F0000
1F0000
1F0000
1FFFF0
1F0000
1F0000
1F0000
1FFFF8
ENDCHAR
STARTCHAR Ecircumflex
ENCODING 202
SWIDTH 496 0
DWIDTH 6 0
BBX 6 12 0 0
BITMAP
009C10
02A660
000000
1FFFF7
1F0000
1F0000
1F0000
1FFFF0
1F0000
1F0000
1F0000
1FFFF8
ENDCHAR
STARTCHAR Edieresis
ENCODING 203
SWIDTH 496 0
DWIDTH 6 0
BBX 6 12 0 0
BITMAP
011020
0962D0
000000
1FFFF7
1F0000
1F0000
1F0000
1FFFF0
1F0000
1F0000
1F0000
1FFFF8
ENDCHAR
STARTCHAR Igrave
ENCODING 204
SWIDTH 250 0
DWIDTH 3 0
BBX 4 12 -1 0
BITMAP
1D50
03B0
0000
00F1
00F1
00F1
00F1
00F1
00F1
00F1
00F1
00F1
ENDCHAR
STARTCHAR Iacute
ENCODING 205
SWIDTH 250 0
DWIDTH 3 0
BBX 3 12 1 0
BITMAP
5D10
B300
0000
F100
F100
F100
F100
F100
F100
F100
F100
F100
ENDCHAR
STARTCHAR Icircumflex
ENCODING 206
SWIDTH 250 0
DWIDTH 3 0
BBX 3 12 0 0
BITMAP
4E40
B4B0
0000
0F10
0F10
0F10
0F10
0F10
0F10
0F10
0F10
0F10
ENDCHAR
STARTCHAR Idieresis
ENCODING 207
SWIDTH 250 0
DWIDTH 3 0
BBX 5 12 -1 0
BITMAP
020200
4B0B40
000000
00F100
00F100
00F100
00F100
00F100
00F100
00F100
00F100
00F100
ENDCHAR
STARTCHAR Eth
ENCODING 208
SWIDTH 585 0
DWIDTH 7 0
BBX 7 9 0 0
BITMAP
0EFEA100
0E318B00
0E300E20
0E300C40
DFF40C40
0E300C40
0E300E20
0E319B00
0EFEA100
ENDCHAR
STARTCHAR Ntilde
ENCODING 209
SWIDTH 619 0
DWIDTH 7 0
BBX 7 12 0 0
BITMAP
00AA5600
00B5E200
00000000
1F400980
1FB00980
1FC30980
1F4B0980
1F0C3980
1F05B980
1F00CC80
1F005F80
1F000C80
ENDCHAR
STARTCHAR Ograve
ENCODING 210
SWIDTH 600 0
DWIDTH 7 0
BBX 7 12 0 0
BITMAP
00C70000
002C1000
00000000
02BEC300
0B815E10
2E000B50
3C000A70
4C000970
4C000970
2E000B50
0B815E10
02BEC300
ENDCHAR
STARTCHAR Oacute
ENCODING 211
SWIDTH 600 0
DWIDTH 7 0
BBX 7 12 0 0
BITMAP
0004E200
000A4000
00000000
02BEC300
0B815E10
2E000B50
3C000A70
4C000970
4C000970
2E000B50
0B815E10
02BEC300
ENDCHAR
STARTCHAR Ocircumflex
ENCODING 212
SWIDTH 600 0
DWIDTH 7 0
BBX 7 12 0 0
BITMAP
003E5000
0094B000
00000000
02BEC300
0B815E10
2E000B50
3C000A70
4C000970
4C000970
2E000B50
0B815E10
02BEC300
ENDCHAR
STARTCHAR Otilde
ENCODING 213
SWIDTH 600 0
DWIDTH 7 0
BBX 7 12 0 0
BITMAP
00B96500
01A6D100
00000000
02BEC300
0B815E10
2E000B50
3C000A70
4C000970
4C000970
2E000B50
0B815E10
02BEC300
ENDCHAR
STARTCHAR Odieresis
ENCODING 214
SWIDTH 600 0
DWIDTH 7 0
BBX 7 12 0 0
BITMAP
00201100
02D09600
00000000
02BEC300
0B815E10
2E000B50
3C000A70
4C000970
4C000970
2E000B50
0B815E10
02BEC300
ENDCHAR
STARTCHAR multiply
ENCODING 215
SWIDTH 470 0
DWIDTH 6 0
BBX 5 6 0 1
BITMAP
3801A0
1D5B80
04FB00
03FB00
1D5B80
3801A0
ENDCHAR
STARTCHAR Oslash
ENCODING 216
SWIDTH 600 0
DWIDTH 7 0
BBX 7 11 0 -1
BITMAP
00000120
01BECA40
0A917E00
1E108E40
4C01A970
5B083880
3C2A0960
1E930C40
0AC16D00
09BEC300
05000000
ENDCHAR
STARTCHAR Ugrave
ENCODING 217
SWIDTH 561 0
DWIDTH 7 0
BBX 6 12 0 0
BITMAP
02E400
005A00
000000
4C001F
4C001F
4C001F
4C001F
4C001F
4C001F
3D002E
1E417B
05DEB2
ENDCHAR
STARTCHAR Uacute
ENCODING 218
SWIDTH 561 0
DWIDTH 7 0
BBX 6 12 0 0
BITMAP
0007C0
001C20
000000
4C001F
4C001F
4C001F
4C001F
4C001F
4C001F
3D002E
1E417B
05DEB2
ENDCHAR
STARTCHAR Ucircumflex
ENCODING 219
SWIDTH 561 0
DWIDTH 7 0
BBX 6 12 0 0
BITMAP
005E20
00B490
000000
4C001F
4C001F
4C001F
4C001F
4C001F
4C001F
3D002E
1E417B
05DEB2
ENDCHAR
STARTCHAR Udieresis
ENCODING 220
SWIDTH 561 0
DWIDTH 7 0
BBX 6 12 0 0
BITMAP
011020
0690D2
000000
4C001F
4C001F
4C001F
4C001F
4C001F
4C001F
3D002E
1E417B
05DEB2
ENDCHAR
STARTCHAR Yacute
ENCODING 221
SWIDTH 524 0
DWIDTH 6 0
BBX 6 12 0 0
BITMAP
000A90
003B00
000000
99005D
3E00A7
0B51E1
05B790
00DD20
007B00
006A00
006A00
006A00
ENDCHAR
STARTCHAR Thorn
ENCODING 222
SWIDTH 515 0
DWIDTH 6 0
BBX 6 9 0 0
BITMAP
1E0000
1E0000
1FFE90
1E01B7
1E0069
1E01B7
1FFE90
1E0000
1E0000
ENDCHAR
STARTCHAR germandbls
ENCODING 223
SWIDTH 521 0
DWIDTH 6 0
BBX 6 9 0 0
BITMAP
06ED30
1E2790
3C0690
3C0C40
3C0E20
3C06C1
3C0089
3C218A
3C6ED3
ENDCHAR
STARTCHAR agrave
ENCODING 224
SWIDTH 479 0
DWIDTH 6 0
BBX 6 10 0 0
BITMAP
07C000
00A500
000000
05ED40
1E25C0
0202E0
07EFE0
3D22E0
4D16E0
0BE9F1
ENDCHAR
STARTCHAR aacute
ENCODING 225
SWIDTH 479 0
DWIDTH 6 0
BBX 6 10 0 0
BITMAP
000C70
005A00
000000
05ED40
1E25C0
0202E0
07EFE0
3D22E0
4D16E0
0BE9F1
ENDCHAR
STARTCHAR acircumflex
ENCODING 226
SWIDTH 479 0
DWIDTH 6 0
BBX 6 10 0 0
BITMAP
00BA00
048940
000000
05ED40
1E25C0
0202E0
07EFE0
3D22E0
4D16E0
0BE9F1
ENDCHAR
STARTCHAR atilde
ENCODING 227
SWIDTH 479 0
DWIDTH 6 0
BBX 6 10 0 0
BITMAP
06C2A0
0A3D50
000000
05ED40
1E25C0
0202E0
07EFE0
3D22E0
4D16E0
0BE9F1
ENDCHAR
STARTCHAR adieresis
ENCODING 228
SWIDTH 479 0
DWIDTH 6 0
BBX 6 10 0 0
BITMAP
020020
0B44B0
000000
05ED40
1E25C0
0202E0
07EFE0
3D22E0
4D16E0
0BE9F1
ENDCHAR
STARTCHAR aring
ENCODING 229
SWIDTH 479 0
DWIDTH 6 0
BBX 6 11 0 0
BITMAP
019900
046630
019910
000000
05ED40
1E25C0
0202E0
07EFE0
3D22E0
4D16E0
0BE9F1
ENDCHAR
STARTCHAR ae
ENCODING 230
SWIDTH 728 0
DWIDTH 9 0
BBX 9 7 0 0
BITMAP
08EC4DE500
4D18F52E10
1204D00C30
1AEFFFFF40
6B14D00000
7B18F51500
1CE93DEA10
ENDCHAR
STARTCHAR ccedilla
ENCODING 231
SWIDTH 461 0
DWIDTH 6 0
BBX 6 9 0 -2
BITMAP
07ED50
2E23E0
6A0061
790000
6A0030
2E23E0
07ED40
006100
00B800
ENDCHAR
STARTCHAR egrave
ENCODING 232
SWIDTH 468 0
DWIDTH 6 0
BBX 6 10 0 0
BITMAP
08B000
00B300
000000
06ED40
2E24D0
5A00E1
6FFFF2
5A0000
2E2170
06EE80
ENDCHAR
STARTCHAR eacute
ENCODING 233
SWIDTH 468 0
DWIDTH 6 0
BBX 6 10 0 0
BITMAP
001D50
006800
000000
06ED40
2E24D0
5A00E1
6FFFF2
5A0000
2E2170
06EE80
ENDCHAR
STARTCHAR ecircumflex
ENCODING 234
SWIDTH 468 0
DWIDTH 6 0
BBX 6 10 0 0
BITMAP
01C900
057A30
000000
06ED40
2E24D0
5A00E1
6FFFF2
5A0000
2E2170
06EE80
ENDCHAR
STARTCHAR edieresis
ENCODING 235
SWIDTH 468 0
DWIDTH 6 0
BBX 6 10 0 0
BITMAP
020010
0D35A0
000000
06ED40
2E24D0
5A00E1
6FFFF2
5A0000
2E2170
06EE80
ENDCHAR
STARTCHAR igrave
ENCODING 236
SWIDTH 234 0
DWIDTH 3 0
BBX 3 10 -1 0
BITMAP
2E40
04A0
0000
02D0
02D0
02D0
02D0
02D0
02D0
02D0
ENDCHAR
STARTCHAR iacute
ENCODING 237
SWIDTH 234 0
DWIDTH 3 0
BBX 4 10 0 0
BITMAP
07C1
1C20
0000
2D00
2D00
2D00
2D00
2D00
2D00
2D00
ENDCHAR
STARTCHAR icircumflex
ENCODING 238
SWIDTH 234 0
DWIDTH 3 0
BBX 3 10 0 0
BITMAP
5E30
B4A0
0000
2D00
2D00
2D00
2D00
2D00
2D00
2D00
ENDCHAR
STARTCHAR idieresis
ENCODING 239
SWIDTH 234 0
DWIDTH 3 0
BBX 5 10 -1 0
BITMAP
110200
5A0C30
000000
02D000
02D000
02D000
02D000
02D000
02D000
02D000
ENDCHAR
STARTCHAR eth
ENCODING 240
SWIDTH 513 0
DWIDTH 6 0
BBX 6 9 0 0
BITMAP
08A260
019F60
00A8B0
05EBE2
1E42D5
4C0096
4C00B5
1E43E1
05DE50
ENDCHAR
STARTCHAR ntilde
ENCODING 241
SWIDTH 483 0
DWIDTH 6 0
BBX 5 10 0 0
BITMAP
06C3A0
0B3D40
000000
3CBE60
3F34E0
3C00F0
3C00F0
3C00F0
3C00F0
3C00F0
ENDCHAR
STARTCHAR ograve
ENCODING 242
SWIDTH 501 0
DWIDTH 6 0
BBX 6 10 0 0
BITMAP
07C000
00A400
000000
05DD50
2E33E2
5A00A6
790097
5A00A6
2E32E2
06DD60
ENDCHAR
STARTCHAR oacute
ENCODING 243
SWIDTH 501 0
DWIDTH 6 0
BBX 6 10 0 0
BITMAP
001D60
005900
000000
05DD50
2E33E2
5A00A6
790097
5A00A6
2E32E2
06DD60
ENDCHAR
STARTCHAR ocircumflex
ENCODING 244
SWIDTH 501 0
DWIDTH 6 0
BBX 6 10 0 0
BITMAP
00BA00
058930
000000
05DD50
2E33E2
5A00A6
790097
5A00A6
2E32E2
06DD60
ENDCHAR
STARTCHAR otilde
ENCODING 245
SWIDTH 501 0
DWIDTH 6 0
BBX 6 10 0 0
BITMAP
06C3A0
0B3D50
000000
05DD50
2E33E2
5A00A6
790097
5A00A6
2E32E2
06DD60
ENDCHAR
STARTCHAR odieresis
ENCODING 246
SWIDTH 501 0
DWIDTH 6 0
BBX 6 10 0 0
BITMAP
020020
0C35B0
000000
05DD50
2E33E2
5A00A6
790097
5A00A6
2E32E2
06DD60
ENDCHAR
STARTCHAR divide
ENCODING 247
SWIDTH 500 0
DWIDTH 6 0
BBX 6 7 0 1
BITMAP
004300
007500
000000
8FFFF6
111110
006400
004300
ENDCHAR
STARTCHAR oslash
ENCODING 248
SWIDTH 498 0
DWIDTH 6 0
BBX 6 9 0 -1
BITMAP
000060
05DD90
1E38E1
5B0AB5
694696
5B91B5
1E93E1
09ED50
060000
ENDCHAR
STARTCHAR ugrave
ENCODING 249
SWIDTH 483 0
DWIDTH 6 0
BBX 5 10 0 0
BITMAP
08B000
00B300
000000
4C00F0
4C00F0
4C00F0
4C00F0
4C00F0
2E26F0
09EAF0
ENDCHAR
STARTCHAR uacute
ENCODING 250
SWIDTH 483 0
DWIDTH 6 0
BBX 5 10 0 0
BITMAP
001D50
006800
000000
4C00F0
4C00F0
4C00F0
4C00F0
4C00F0
2E26F0
09EAF0
ENDCHAR
STARTCHAR ucircumflex
ENCODING 251
SWIDTH 483 0
DWIDTH 6 0
BBX 5 10 0 0
BITMAP
01C900
057A30
000000
4C00F0
4C00F0
4C00F0
4C00F0
4C00F0
2E26F0
09EAF0
ENDCHAR
STARTCHAR udieresis
ENCODING 252
SWIDTH 483 0
DWIDTH 6 0
BBX 5 10 0 0
BITMAP
020010
0D35A0
000000
4C00F0
4C00F0
4C00F0
4C00F0
4C00F0
2E26F0
09EAF0
ENDCHAR
STARTCHAR yacute
ENCODING 253
SWIDTH 416 0
DWIDTH 5 0
BBX 5 12 0 -2
BITMAP
004E20
00A400
000000
A70790
5B0B50
1E0E10
0C6C00
07D700
03F300
00D000
069000
7D2000
ENDCHAR
STARTCHAR thorn
ENCODING 254
SWIDTH 508 0
DWIDTH 6 0
BBX 6 11 0 -2
BITMAP
3D0000
3D0000
3EBE60
3F33E1
3D00B5
3D00A6
3D00B5
3E33E1
3EBE60
3D0000
3D0000
ENDCHAR
STARTCHAR ydieresis
ENCODING 255
SWIDTH 416 0
DWIDTH 5 0
BBX 5 12 0 -2
BITMAP
020110
3D0A60
000000
A70790
5B0B50
1E0E10
0C6C00
07D700
03F300
00D000
069000
7D2000
ENDCHAR
STARTCHAR Amacron
ENCODING 256
SWIDTH 576 0
DWIDTH 7 0
BBX 7 11 0 0
BITMAP
03FFF300
00000000
002F1000
007E6000
00C8A000
01E1E000
06A0C400
0A608900
0EFFFE00
4D000E30
98000980
ENDCHAR
STARTCHAR amacron
ENCODING 257
SWIDTH 479 0
DWIDTH 6 0
BBX 6 9 0 0
BITMAP
0AFFB0
000000
05ED40
1E25C0
0202E0
07EFE0
3D22E0
4D16E0
0BE9F1
ENDCHAR
STARTCHAR Abreve
ENCODING 258
SWIDTH 576 0
DWIDTH 7 0
BBX 7 12 0 0
BITMAP
03C1C200
009E9000
00000000
002F1000
007E6000
00C8A000
01E1E000
06A0C400
0A608900
0EFFFE00
4D000E30
98000980
ENDCHAR
STARTCHAR abreve
ENCODING 259
SWIDTH 479 0
DWIDTH 6 0
BBX 6 10 0 0
BITMAP
0A55A0
03DD30
000000
05ED40
1E25C0
0202E0
07EFE0
3D22E0
4D16E0
0BE9F1
ENDCHAR
STARTCHAR Aogonek
ENCODING 260
SWIDTH 576 0
DWIDTH 7 0
BBX 7 11 0 -2
BITMAP
002F1000
007E6000
00C8A000
01E1E000
06A0C400
0A608900
0EFFFE00
4D000E30
98000980
00001A10
00002E70
ENDCHAR
STARTCHAR aogonek
ENCODING 261
SWIDTH 479 0
DWIDTH 6 0
BBX 6 9 0 -2
BITMAP
05ED40
1E25C0
0202E0
07EFE0
3D22E0
4D16E0
0BE8F1
000760
0009D0
ENDCHAR
STARTCHAR Cacute
ENCODING 262
SWIDTH 566 0
DWIDTH 7 0
BBX 7 12 0 0
BITMAP
0006D100
000B3000
00000000
02BEC300
0B815D00
2E000C30
4D000000
4C000000
4D000000
2E000C20
0B715D00
02BEC300
ENDCHAR
STARTCHAR cacute
ENCODING 263
SWIDTH 461 0
DWIDTH 6 0
BBX 6 10 0 0
BITMAP
002E30
008600
000000
07ED50
2E23E0
6A0061
790000
6A0030
2E23E0
07ED40
ENDCHAR
STARTCHAR Ccircumflex
ENCODING 264
SWIDTH 566 0
DWIDTH 7 0
BBX 7 12 0 0
BITMAP
004E3000
00B4A000
00000000
02BEC300
0B815D00
2E000C30
4D000000
4C000000
4D000000
2E000C20
0B715D00
02BEC300
ENDCHAR
STARTCHAR ccircumflex
ENCODING 265
SWIDTH 461 0
DWIDTH 6 0
BBX 6 10 0 0
BITMAP
02D700
085B10
000000
07ED50
2E23E0
6A0061
790000
6A0030
2E23E0
07ED40
ENDCHAR
STARTCHAR Cdotaccent
ENCODING 266
SWIDTH 566 0
DWIDTH 7 0
BBX 7 12 0 0
BITMAP
00020000
001E0000
00000000
02BEC300
0B815D00
2E000C30
4D000000
4C000000
4D000000
2E000C20
0B715D00
02BEC300
ENDCHAR
STARTCHAR cdotaccent
ENCODING 267
SWIDTH 461 0
DWIDTH 6 0
BBX 6 10 0 0
BITMAP
002000
00C400
000000
07ED50
2E23E0
6A0061
790000
6A0030
2E23E0
07ED40
ENDCHAR
STARTCHAR Ccaron
ENCODING 268
SWIDTH 566 0
DWIDTH 7 0
BBX 7 12 0 0
BITMAP
00B4B000
003E2000
00000000
02BEC300
0B815D00
2E000C30
4D000000
4C000000
4D000000
2E000C20
0B715D00
02BEC300
ENDCHAR
STARTCHAR ccaron
ENCODING 269
SWIDTH 461 0
DWIDTH 6 0
BBX 6 10 0 0
BITMAP
095C10
01D500
000000
07ED50
2E23E0
6A0061
790000
6A0030
2E23E0
07ED40
ENDCHAR
STARTCHAR Dcaron
ENCODING 270
SWIDTH 570 0
DWIDTH 7 0
BBX 7 12 0 0
BITMAP
03A76000
008B0000
00000000
1FFD9000
1F02A800
1F002E00
1F000F10
1F000E10
1F000F10
1F002E00
1F02B800
1FFD8000
ENDCHAR
STARTCHAR dcaron
ENCODING 271
SWIDTH 569 0
DWIDTH 7 0
BBX 7 9 0 0
BITMAP
0000E6B0
0000E850
08EBE200
2E24F200
6A00E200
7900E200
6A00E200
2E24F200
08EBD200
ENDCHAR
STARTCHAR Dcroat
ENCODING 272
SWIDTH 585 0
DWIDTH 7 0
BBX 7 9 0 0
BITMAP
0EFEA100
0E318B00
0E300E20
0E300C40
DFF40C40
0E300C40
0E300E20
0E319B00
0EFEA100
ENDCHAR
STARTCHAR dcroat
ENCODING 273
SWIDTH 529 0
DWIDTH 6 0
BBX 7 9 0 0
BITMAP
0000E200
001FFF10
06EBE200
1E34F200
5B00E200
6900E200
5A00E200
2E34F200
06ECE200
ENDCHAR
STARTCHAR Emacron
ENCODING 274
SWIDTH 496 0
DWIDTH 6 0
BBX 6 11 0 0
BITMAP
08FFD0
000000
1FFFF7
1F0000
1F0000
1F0000
1FFFF0
1F0000
1F0000
1F0000
1FFFF8
ENDCHAR
STARTCHAR emacron
ENCODING 275
SWIDTH 468 0
DWIDTH 6 0
BBX 6 9 0 0
BITMAP
0CFF90
000000
06ED40
2E24D0
5A00E1
6FFFF2
5A0000
2E2170
06EE80
ENDCHAR
STARTCHAR Ebreve
ENCODING 276
SWIDTH 496 0
DWIDTH 6 0
BBX 6 12 0 0
BITMAP
0872D0
02CE50
000000
1FFFF7
1F0000
1F0000
1F0000
1FFFF0
1F0000
1F0000
1F0000
1FFFF8
ENDCHAR
STARTCHAR ebreve
ENCODING 277
SWIDTH 468 0
DWIDTH 6 0
BBX 6 10 0 0
BITMAP
0C3690
04ED20
000000
06ED40
2E24D0
5A00E1
6FFFF2
5A0000
2E2170
06EE80
ENDCHAR
STARTCHAR Edotaccent
ENCODING 278
SWIDTH 496 0
DWIDTH 6 0
BBX 6 12 0 0
BITMAP
001200
005A00
000000
1FFFF7
1F0000
1F0000
1F0000
1FFFF0
1F0000
1F0000
1F0000
1FFFF8
ENDCHAR
STARTCHAR edotaccent
ENCODING 279
SWIDTH 468 0
DWIDTH 6 0
BBX 6 10 0 0
BITMAP
001100
009600
000000
06ED40
2E24D0
5A00E1
6FFFF2
5A0000
2E2170
06EE80
ENDCHAR
STARTCHAR Eogonek
ENCODING 280
SWIDTH 496 0
DWIDTH 6 0
BBX 6 11 0 -2
BITMAP
1FFFF7
1F0000
1F0000
1F0000
1FFFF0
1F0000
1F0000
1F0000
1FFFF8
000480
0006E2
ENDCHAR
STARTCHAR eogonek
ENCODING 281
SWIDTH 468 0
DWIDTH 6 0
BBX 6 9 0 -2
BITMAP
06ED40
2E24D0
5A00E1
6FFFF2
5A0000
2E2170
07EF80
007700
007E20
ENDCHAR
STARTCHAR Ecaron
ENCODING 282
SWIDTH 496 0
DWIDTH 6 0
BBX 6 12 0 0
BITMAP
02B770
007B00
000000
1FFFF7
1F0000
1F0000
1F0000
1FFFF0
1F0000
1F0000
1F0000
1FFFF8
ENDCHAR
STARTCHAR ecaron
ENCODING 283
SWIDTH 468 0
DWIDTH 6 0
BBX 6 10 0 0
BITMAP
067A30
00B800
000000
06ED40
2E24D0
5A00E1
6FFFF2
5A0000
2E2170
06EE80
ENDCHAR
STARTCHAR Gcircumflex
ENCODING 284
SWIDTH 590 0
DWIDTH 7 0
BBX 7 12 0 0
BITMAP
005E3000
00B49000
00000000
02CEC400
0C715E00
2E000920
4C000000
4C000000
4D06FF40
2E000C40
0B812D40
02BED800
ENDCHAR
STARTCHAR gcircumflex
ENCODING 285
SWIDTH 492 0
DWIDTH 6 0
BBX 6 12 0 -2
BITMAP
01C900
066A20
000000
08EBD2
3E24F2
6A00D2
7900D2
6A00D2
2E24F2
08EBE2
0203E0
0AED50
ENDCHAR
STARTCHAR Gbreve
ENCODING 286
SWIDTH 590 0
DWIDTH 7 0
BBX 7 12 0 0
BITMAP
04B1D100
00AE8000
00000000
02CEC400
0C715E00
2E000920
4C000000
4C000000
4D06FF40
2E000C40
0B812D40
02BED800
ENDCHAR
STARTCHAR gbreve
ENCODING 287
SWIDTH 492 0
DWIDTH 6 0
BBX 6 12 0 -2
BITMAP
0D3780
05EC20
000000
08EBD2
3E24F2
6A00D2
7900D2
6A00D2
2E24F2
08EBE2
0203E0
0AED50
ENDCHAR
STARTCHAR Gdotaccent
ENCODING 288
SWIDTH 590 0
DWIDTH 7 0
BBX 7 12 0 0
BITMAP
00020000
002D0000
00000000
02CEC400
0C715E00
2E000920
4C000000
4C000000
4D06FF40
2E000C40
0B812D40
02BED800
ENDCHAR
STARTCHAR gdotaccent
ENCODING 289
SWIDTH 492 0
DWIDTH 6 0
BBX 6 12 0 -2
BITMAP
002100
00A500
000000
08EBD2
3E24F2
6A00D2
7900D2
6A00D2
2E24F2
08EBE2
0203E0
0AED50
ENDCHAR
STARTCHAR uni0122
ENCODING 290
SWIDTH 590 0
DWIDTH 7 0
BBX 7 12 0 -3
BITMAP
02CEC400
0C715E00
2E000920
4C000000
4C000000
4D06FF40
2E000C40
0B812D40
02BED800
00000000
000C2000
000B0000
ENDCHAR
STARTCHAR uni0123
ENCODING 291
SWIDTH 492 0
DWIDTH 6 0
BBX 6 13 0 -2
BITMAP
003700
009600
00B500
000000
08EBD2
3E24F2
6A00D2
7900D2
6A00D2
2E24F2
08EBE2
0203E0
0AED50
ENDCHAR
STARTCHAR Hcircumflex
ENCODING 292
SWIDTH 620 0
DWIDTH 7 0
BBX 7 12 0 0
BITMAP
003E5000
0094B000
00000000
1F000980
1F000980
1F000980
1F000980
1FFFFF80
1F000980
1F000980
1F000980
1F000980
ENDCHAR
STARTCHAR hcircumflex
ENCODING 293
SWIDTH 482 0
DWIDTH 6 0
BBX 5 12 0 0
BITMAP
03E500
0A4B00
000000
3C0000
3C0000
3DBE60
3F34E0
3C00F0
3C00F0
3C00F0
3C00F0
3C00F0
ENDCHAR
STARTCHAR Hbar
ENCODING 294
SWIDTH 611 0
DWIDTH 7 0
BBX 8 9 0 0
BITMAP
1F000980
1F000980
BFFFFFF2
1F000980
1FFFFF80
1F000980
1F000980
1F000980
1F000980
ENDCHAR
STARTCHAR hbar
ENCODING 295
SWIDTH 497 0
DWIDTH 6 0
BBX 7 9 -1 0
BITMAP
01F00000
1FFF1000
01F9E900
01F62E10
01F00D30
01F00C30
01F00C30
01F00C30
01F00C30
ENDCHAR
STARTCHAR Itilde
ENCODING 296
SWIDTH 250 0
DWIDTH 3 0
BBX 5 12 -1 0
BITMAP
0C7830
388C00
000000
00F100
00F100
00F100
00F100
00F100
00F100
00F100
00F100
00F100
ENDCHAR
STARTCHAR itilde
ENCODING 297
SWIDTH 234 0
DWIDTH 3 0
BBX 5 10 -1 0
BITMAP
1D6A20
569B00
000000
02D000
02D000
02D000
02D000
02D000
02D000
02D000
ENDCHAR
STARTCHAR Imacron
ENCODING 298
SWIDTH 250 0
DWIDTH 3 0
BBX 5 11 -1 0
BITMAP
3FFF40
000000
00F100
00F100
00F100
00F100
00F100
00F100
00F100
00F100
00F100
ENDCHAR
STARTCHAR imacron
ENCODING 299
SWIDTH 234 0
DWIDTH 3 0
BBX 5 9 -1 0
BITMAP
4FFF20
000000
02D000
02D000
02D000
02D000
02D000
02D000
02D000
ENDCHAR
STARTCHAR Ibreve
ENCODING 300
SWIDTH 250 0
DWIDTH 3 0
BBX 5 12 -1 0
BITMAP
3C1C30
09E900
000000
00F100
00F100
00F100
00F100
00F100
00F100
00F100
00F100
00F100
ENDCHAR
STARTCHAR ibreve
ENCODING 301
SWIDTH 234 0
DWIDTH 3 0
BBX 5 10 -1 0
BITMAP
4B1D10
0AE800
000000
02D000
02D000
02D000
02D000
02D000
02D000
02D000
ENDCHAR
STARTCHAR Iogonek
ENCODING 302
SWIDTH 250 0
DWIDTH 3 0
BBX 3 11 0 -2
BITMAP
0F10
0F10
0F10
0F10
0F10
0F10
0F10
0F10
0F10
8500
9D00
ENDCHAR
STARTCHAR iogonek
ENCODING 303
SWIDTH 229 0
DWIDTH 3 0
BBX 2 12 0 -2
BITMAP
02
2C
00
2D
2D
2D
2D
2D
2D
2F
A3
BC
ENDCHAR
STARTCHAR Idotaccent
ENCODING 304
SWIDTH 250 0
DWIDTH 3 0
BBX 3 12 0 0
BITMAP
0200
1E10
0000
0F10
0F10
0F10
0F10
0F10
0F10
0F10
0F10
0F10
ENDCHAR
STARTCHAR dotlessi
ENCODING 305
SWIDTH 234 0
DWIDTH 3 0
BBX 2 7 0 0
BITMAP
2D
2D
2D
2D
2D
2D
2D
ENDCHAR
STARTCHAR IJ
ENCODING 306
SWIDTH 733 0
DWIDTH 9 0
BBX 7 9 1 0
BITMAP
F10002E0
F10002E0
F10002E0
F10002E0
F10002E0
F10002E0
F14303E0
F17B18B0
F11AEC20
ENDCHAR
STARTCHAR ij
ENCODING 307
SWIDTH 452 0
DWIDTH 5 0
BBX 5 12 0 -2
BITMAP
020110
2C0680
000000
2D0790
2D0790
2D0790
2D0790
2D0790
2D0790
2D0790
000880
005E30
ENDCHAR
STARTCHAR Jcircumflex
ENCODING 308
SWIDTH 483 0
DWIDTH 6 0
BBX 6 12 0 0
BITMAP
0007D2
001B58
000000
0002E0
0002E0
0002E0
0002E0
0002E0
0002E0
4303E0
7B18B0
1AEC20
ENDCHAR
STARTCHAR jcircumflex
ENCODING 309
SWIDTH 237 0
DWIDTH 3 0
BBX 4 12 -1 -2
BITMAP
04E4
0B4A
0000
01F0
01F0
01F0
01F0
01F0
01F0
01F0
03E0
2E70
ENDCHAR
STARTCHAR uni0136
ENCODING 310
SWIDTH 544 0
DWIDTH 7 0
BBX 7 12 0 -3
BITMAP
1F005D10
1F01E400
1F0B8000
1F6C0000
1FEC0000
1F5C6000
1F03E100
1F00A900
1F002E30
00000000
002D0000
00470000
ENDCHAR
STARTCHAR uni0137
ENCODING 311
SWIDTH 450 0
DWIDTH 5 0
BBX 6 12 0 -3
BITMAP
3C0000
3C0000
3C07A0
3C2D10
3CA500
3EF500
3E7D00
3C0C70
3C03E1
000000
00C300
00B000
ENDCHAR
STARTCHAR kgreenlandic
ENCODING 312
SWIDTH 491 0
DWIDTH 6 0
BBX 6 7 0 0
BITMAP
2E03E2
2E0C60
2E6B00
2FF500
2E5D00
2E0B80
2E02E3
ENDCHAR
STARTCHAR Lacute
ENCODING 313
SWIDTH 475 0
DWIDTH 6 0
BBX 6 12 0 0
BITMAP
06D100
0C2000
000000
1F0000
1F0000
1F0000
1F0000
1F0000
1F0000
1F0000
1F0000
1FFFF5
ENDCHAR
STARTCHAR lacute
ENCODING 314
SWIDTH 229 0
DWIDTH 3 0
BBX 4 12 0 0
BITMAP
07C1
1C20
0000
2D00
2D00
2D00
2D00
2D00
2D00
2D00
2D00
2D00
ENDCHAR
STARTCHAR uni013B
ENCODING 315
SWIDTH 475 0
DWIDTH 6 0
BBX 6 12 0 -3
BITMAP
1F0000
1F0000
1F0000
1F0000
1F0000
1F0000
1F0000
1F0000
1FFFF5
000000
005900
007400
ENDCHAR
STARTCHAR uni013C
ENCODING 316
SWIDTH 229 0
DWIDTH 3 0
BBX 2 12 0 -3
BITMAP
2D
2D
2D
2D
2D
2D
2D
2D
2D
00
2C
47
ENDCHAR
STARTCHAR Lcaron
ENCODING 317
SWIDTH 475 0
DWIDTH 6 0
BBX 6 9 0 0
BITMAP
1F0B30
1F0B00
1F0000
1F0000
1F0000
1F0000
1F0000
1F0000
1FFFF5
ENDCHAR
STARTCHAR lcaron
ENCODING 318
SWIDTH 302 0
DWIDTH 4 0
BBX 4 9 0 0
BITMAP
2D59
2D74
2D00
2D00
2D00
2D00
2D00
2D00
2D00
ENDCHAR
STARTCHAR Ldot
ENCODING 319
SWIDTH 475 0
DWIDTH 6 0
BBX 6 9 0 0
BITMAP
1F0000
1F0000
1F0000
1F0200
1F0D20
1F0000
1F0000
1F0000
1FFFF5
ENDCHAR
STARTCHAR ldot
ENCODING 320
SWIDTH 336 0
DWIDTH 4 0
BBX 4 9 0 0
BITMAP
2D00
2D00
2D00
2D11
2D78
2D00
2D00
2D00
2D00
ENDCHAR
STARTCHAR Lslash
ENCODING 321
SWIDTH 475 0
DWIDTH 6 0
BBX 6 9 0 0
BITMAP
1F0000
1F0000
1F0000
2FB300
AF4000
1F0000
1F0000
1F0000
1FFFF5
ENDCHAR
STARTCHAR lslash
ENCODING 322
SWIDTH 250 0
DWIDTH 3 0
BBX 3 9 0 0
BITMAP
1F00
1F00
1F00
1F00
2F90
AF20
1F00
1F00
1F00
ENDCHAR
STARTCHAR Nacute
ENCODING 323
SWIDTH 619 0
DWIDTH 7 0
BBX 7 12 0 0
BITMAP
0003E300
00095000
00000000
1F400980
1FB00980
1FC30980
1F4B0980
1F0C3980
1F05B980
1F00CC80
1F005F80
1F000C80
ENDCHAR
STARTCHAR nacute
ENCODING 324
SWIDTH 483 0
DWIDTH 6 0
BBX 5 10 0 0
BITMAP
001D60
006900
000000
3CBE60
3F34E0
3C00F0
3C00F0
3C00F0
3C00F0
3C00F0
ENDCHAR
STARTCHAR uni0145
ENCODING 325
SWIDTH 619 0
DWIDTH 7 0
BBX 7 12 0 -3
BITMAP
1F400980
1FB00980
1FC30980
1F4B0980
1F0C3980
1F05B980
1F00CC80
1F005F80
1F000C80
00000000
000D1000
001A0000
ENDCHAR
STARTCHAR uni0146
ENCODING 326
SWIDTH 483 0
DWIDTH 6 0
BBX 5 10 0 -3
BITMAP
3CBE60
3F34E0
3C00F0
3C00F0
3C00F0
3C00F0
3C00F0
000000
00A500
00A100
ENDCHAR
STARTCHAR Ncaron
ENCODING 327
SWIDTH 619 0
DWIDTH 7 0
BBX 7 12 0 0
BITMAP
0095C100
001D5000
00000000
1F400980
1FB00980
1FC30980
1F4B0980
1F0C3980
1F05B980
1F00CC80
1F005F80
1F000C80
ENDCHAR
STARTCHAR ncaron
ENCODING 328
SWIDTH 483 0
DWIDTH 6 0
BBX 5 10 0 0
BITMAP
058A40
00A800
000000
3CBE60
3F34E0
3C00F0
3C00F0
3C00F0
3C00F0
3C00F0
ENDCHAR
STARTCHAR napostrophe
ENCODING 329
SWIDTH 483 0
DWIDTH 6 0
BBX 6 9 -1 0
BITMAP
0D1000
1A0000
03CBE6
03F34E
03C00F
03C00F
03C00F
03C00F
03C00F
ENDCHAR
STARTCHAR Eng
ENCODING 330
SWIDTH 599 0
DWIDTH 7 0
BBX 7 11 0 -2
BITMAP
2F300B50
2FA00B50
2FD30B50
2E6A0B50
2E0C3B50
2E04AB50
2E00BD50
2E003F50
2E000C50
00001D40
0000CB00
ENDCHAR
STARTCHAR eng
ENCODING 331
SWIDTH 498 0
DWIDTH 6 0
BBX 6 9 0 -2
BITMAP
3CBE70
3E33E0
3D00E2
3D00E2
3D00E2
3D00E2
3D00E2
0001F1
000E80
ENDCHAR
STARTCHAR Omacron
ENCODING 332
SWIDTH 600 0
DWIDTH 7 0
BBX 7 11 0 0
BITMAP
01FFF500
00000000
02BEC300
0B815E10
2E000B50
3C000A70
4C000970
4C000970
2E000B50
0B815E10
02BEC300
ENDCHAR
STARTCHAR omacron
ENCODING 333
SWIDTH 501 0
DWIDTH 6 0
BBX 6 9 0 0
BITMAP
0BFFA0
000000
05DD50
2E33E2
5A00A6
790097
5A00A6
2E32E2
06DD60
ENDCHAR
STARTCHAR Obreve
ENCODING 334
SWIDTH 600 0
DWIDTH 7 0
BBX 7 12 0 0
BITMAP
01D1A400
008EB000
00000000
02BEC300
0B815E10
2E000B50
3C000A70
4C000970
4C000970
2E000B50
0B815E10
02BEC300
ENDCHAR
STARTCHAR obreve
ENCODING 335
SWIDTH 501 0
DWIDTH 6 0
BBX 6 10 0 0
BITMAP
0B45A0
04DD30
000000
05DD50
2E33E2
5A00A6
790097
5A00A6
2E32E2
06DD60
ENDCHAR
STARTCHAR Ohungarumlaut
ENCODING 336
SWIDTH 600 0
DWIDTH 7 0
BBX 7 12 0 0
BITMAP
002D8A00
0067C100
00000000
02BEC300
0B815E10
2E000B50
3C000A70
4C000970
4C000970
2E000B50
0B815E10
02BEC300
ENDCHAR
STARTCHAR ohungarumlaut
ENCODING 337
SWIDTH 501 0
DWIDTH 6 0
BBX 6 10 0 0
BITMAP
00C7D1
02A950
000000
05DD50
2E33E2
5A00A6
790097
5A00A6
2E32E2
06DD60
ENDCHAR
STARTCHAR OE
ENCODING 338
SWIDTH 826 0
DWIDTH 10 0
BBX 9 9 0 0
BITMAP
03CFFFFFE0
0D60A70000
4C00970000
5A00970000
6A009FFF70
5A00970000
4C00970000
0D60A70000
03CFFFFFF0
ENDCHAR
STARTCHAR oe
ENCODING 339
SWIDTH 777 0
DWIDTH 9 0
BBX 9 7 0 0
BITMAP
04DE46EC10
1E34ED2890
4B00C803C0
6A00AFFFD0
4B00C80000
1E33ED2240
05DE57ED50
ENDCHAR
STARTCHAR Racute
ENCODING 340
SWIDTH 530 0
DWIDTH 6 0
BBX 7 12 0 0
BITMAP
000B9000
003B0000
00000000
1FFFB200
1F019A00
1F004C00
1F019A00
1FFFC100
1F05C000
1F00E300
1F008900
1F003E10
ENDCHAR
STARTCHAR racute
ENCODING 341
SWIDTH 304 0
DWIDTH 4 0
BBX 4 10 0 0
BITMAP
00B9
03B0
0000
3DC6
3F40
3C00
3C00
3C00
3C00
3C00
ENDCHAR
STARTCHAR uni0156
ENCODING 342
SWIDTH 530 0
DWIDTH 6 0
BBX 7 12 0 -3
BITMAP
1FFFB200
1F019A00
1F004C00
1F019A00
1FFFC100
1F05C000
1F00E300
1F008900
1F003E10
00000000
00680000
00830000
ENDCHAR
STARTCHAR uni0157
ENCODING 343
SWIDTH 304 0
DWIDTH 4 0
BBX 4 10 0 -3
BITMAP
3DC6
3F40
3C00
3C00
3C00
3C00
3C00
0000
2C00
4700
ENDCHAR
STARTCHAR Rcaron
ENCODING 344
SWIDTH 530 0
DWIDTH 6 0
BBX 7 12 0 0
BITMAP
03A76000
008B0000
00000000
1FFFB200
1F019A00
1F004C00
1F019A00
1FFFC100
1F05C000
1F00E300
1F008900
1F003E10
ENDCHAR
STARTCHAR rcaron
ENCODING 345
SWIDTH 304 0
DWIDTH 4 0
BBX 4 10 0 0
BITMAP
3A76
08B0
0000
3DC6
3F40
3C00
3C00
3C00
3C00
3C00
ENDCHAR
STARTCHAR Sacute
ENCODING 346
SWIDTH 518 0
DWIDTH 6 0
BBX 6 12 0 0
BITMAP
000AA0
002B10
000000
05DE90
2E31B7
3D0047
1E7100
03BE70
0003C7
56006A
3E31A8
06DEA1
ENDCHAR
STARTCHAR sacute
ENCODING 347
SWIDTH 455 0
DWIDTH 5 0
BBX 5 10 0 0
BITMAP
001D60
006900
000000
08ED30
2E27B0
2E4010
05DB20
1108B0
4C15C0
09ED40
ENDCHAR
STARTCHAR Scircumflex
ENCODING 348
SWIDTH 518 0
DWIDTH 6 0
BBX 6 12 0 0
BITMAP
009C10
02A660
000000
05DE90
2E31B7
3D0047
1E7100
03BE70
0003C7
56006A
3E31A8
06DEA1
ENDCHAR
STARTCHAR scircumflex
ENCODING 349
SWIDTH 455 0
DWIDTH 5 0
BBX 5 10 0 0
BITMAP
00BA00
057930
000000
08ED30
2E27B0
2E4010
05DB20
1108B0
4C15C0
09ED40
ENDCHAR
STARTCHAR Scedilla
ENCODING 350
SWIDTH 518 0
DWIDTH 6 0
BBX 6 11 0 -2
BITMAP
05DE90
2E31B7
3D0047
1E7100
03BE70
0003C7
56006A
3E31A8
06DEA1
001600
004E20
ENDCHAR
STARTCHAR scedilla
ENCODING 351
SWIDTH 455 0
DWIDTH 5 0
BBX 5 9 0 -2
BITMAP
08ED30
2E27B0
2E4010
05DB20
1108B0
4C15C0
09ED40
004400
008B00
ENDCHAR
STARTCHAR Scaron
ENCODING 352
SWIDTH 518 0
DWIDTH 6 0
BBX 6 12 0 0
BITMAP
02B670
007C00
000000
05DE90
2E31B7
3D0047
1E7100
03BE70
0003C7
56006A
3E31A8
06DEA1
ENDCHAR
STARTCHAR scaron
ENCODING 353
SWIDTH 455 0
DWIDTH 5 0
BBX 5 10 0 0
BITMAP
058A40
00A800
000000
08ED30
2E27B0
2E4010
05DB20
1108B0
4C15C0
09ED40
ENDCHAR
STARTCHAR uni0162
ENCODING 354
SWIDTH 520 0
DWIDTH 6 0
BBX 6 11 0 -2
BITMAP
AFFFFE
006A00
006A00
006A00
006A00
006A00
006A00
006A00
006A00
002500
005D10
ENDCHAR
STARTCHAR uni0163
ENCODING 355
SWIDTH 295 0
DWIDTH 4 0
BBX 4 11 0 -2
BITMAP
0D20
0D20
DFF1
0D20
0D20
0D20
0D20
0D40
08E1
0070
01E4
ENDCHAR
STARTCHAR Tcaron
ENCODING 356
SWIDTH 520 0
DWIDTH 6 0
BBX 6 12 0 0
BITMAP
03A760
008B00
000000
AFFFFE
006A00
006A00
006A00
006A00
006A00
006A00
006A00
006A00
ENDCHAR
STARTCHAR tcaron
ENCODING 357
SWIDTH 314 0
DWIDTH 4 0
BBX 4 9 0 0
BITMAP
0D3E
0D58
DFF1
0D20
0D20
0D20
0D20
0D40
08E1
ENDCHAR
STARTCHAR Tbar
ENCODING 358
SWIDTH 520 0
DWIDTH 6 0
BBX 6 9 0 0
BITMAP
AFFFFE
006A00
006A00
06FFC0
006A00
006A00
006A00
006A00
006A00
ENDCHAR
STARTCHAR tbar
ENCODING 359
SWIDTH 295 0
DWIDTH 4 0
BBX 4 9 0 0
BITMAP
0D20
0D20
DFF1
0D20
FFF3
0D20
0D20
0D40
07E1
ENDCHAR
STARTCHAR Utilde
ENCODING 360
SWIDTH 561 0
DWIDTH 7 0
BBX 6 12 0 0
BITMAP
01D5A1
056AB0
000000
4C001F
4C001F
4C001F
4C001F
4C001F
4C001F
3D002E
1E417B
05DEB2
ENDCHAR
STARTCHAR utilde
ENCODING 361
SWIDTH 483 0
DWIDTH 6 0
BBX 5 10 0 0
BITMAP
07C390
0B3E40
000000
4C00F0
4C00F0
4C00F0
4C00F0
4C00F0
2E26F0
09EAF0
ENDCHAR
STARTCHAR Umacron
ENCODING 362
SWIDTH 561 0
DWIDTH 7 0
BBX 6 11 0 0
BITMAP
04FFF2
000000
4C001F
4C001F
4C001F
4C001F
4C001F
4C001F
3D002E
1E417B
05DEB2
ENDCHAR
STARTCHAR umacron
ENCODING 363
SWIDTH 483 0
DWIDTH 6 0
BBX 5 9 0 0
BITMAP
0CFF90
000000
4C00F0
4C00F0
4C00F0
4C00F0
4C00F0
2E26F0
09EAF0
ENDCHAR
STARTCHAR Ubreve
ENCODING 364
SWIDTH 561 0
DWIDTH 7 0
BBX 6 12 0 0
BITMAP
05A1D1
00BE70
000000
4C001F
4C001F
4C001F
4C001F
4C001F
4C001F
3D002E
1E417B
05DEB2
ENDCHAR
STARTCHAR ubreve
ENCODING 365
SWIDTH 483 0
DWIDTH 6 0
BBX 5 10 0 0
BITMAP
0C3690
04ED20
000000
4C00F0
4C00F0
4C00F0
4C00F0
4C00F0
2E26F0
09EAF0
ENDCHAR
STARTCHAR Uring
ENCODING 366
SWIDTH 561 0
DWIDTH 7 0
BBX 6 13 0 0
BITMAP
007940
009090
007940
000000
4C001F
4C001F
4C001F
4C001F
4C001F
4C001F
3D002E
1E417B
05DEB2
ENDCHAR
STARTCHAR uring
ENCODING 367
SWIDTH 483 0
DWIDTH 6 0
BBX 5 11 0 0
BITMAP
019900
054720
019900
000000
4C00F0
4C00F0
4C00F0
4C00F0
4C00F0
2E26F0
09EAF0
ENDCHAR
STARTCHAR Uhungarumlaut
ENCODING 368
SWIDTH 561 0
DWIDTH 7 0
BBX 6 12 0 0
BITMAP
006AB6
00A6A0
000000
4C001F
4C001F
4C001F
4C001F
4C001F
4C001F
3D002E
1E417B
05DEB2
ENDCHAR
STARTCHAR uhungarumlaut
ENCODING 369
SWIDTH 483 0
DWIDTH 6 0
BBX 6 10 0 0
BITMAP
00D7D1
039A40
000000
4C00F0
4C00F0
4C00F0
4C00F0
4C00F0
2E26F0
09EAF0
ENDCHAR
STARTCHAR Uogonek
ENCODING 370
SWIDTH 561 0
DWIDTH 7 0
BBX 6 11 0 -2
BITMAP
4C001F
4C001F
4C001F
4C001F
4C001F
4C001F
3D002F
1E417B
05DFC2
000C20
000BB0
ENDCHAR
STARTCHAR uogonek
ENCODING 371
SWIDTH 483 0
DWIDTH 6 0
BBX 5 9 0 -2
BITMAP
4C00F0
4C00F0
4C00F0
4C00F0
4C00F0
2E26F0
09EAF0
000760
0009E0
ENDCHAR
STARTCHAR Wcircumflex
ENCODING 372
SWIDTH 761 0
DWIDTH 9 0
BBX 9 12 0 0
BITMAP
0002E60000
00094B1000
0000000000
7900E305B0
4B02F60880
2E05C90A50
0E196C0D20
0B4C1C1E00
087D097C00
05CA06C900
03F603F600
00F300E300
ENDCHAR
STARTCHAR wcircumflex
ENCODING 373
SWIDTH 649 0
DWIDTH 8 0
BBX 8 10 0 0
BITMAP
001C9000
0067A200
00000000
960A6096
690DA0C2
2C2CD1E0
0E68B5B0
0BD48C70
08F14F40
04C01F10
ENDCHAR
STARTCHAR Ycircumflex
ENCODING 374
SWIDTH 524 0
DWIDTH 6 0
BBX 6 12 0 0
BITMAP
009C10
02A660
000000
99005D
3E00A7
0B51E1
05B790
00DD20
007B00
006A00
006A00
006A00
ENDCHAR
STARTCHAR ycircumflex
ENCODING 375
SWIDTH 416 0
DWIDTH 5 0
BBX 5 12 0 -2
BITMAP
03E500
094B00
000000
A70790
5B0B50
1E0E10
0C6C00
07D700
03F300
00D000
069000
7D2000
ENDCHAR
STARTCHAR Ydieresis
ENCODING 376
SWIDTH 524 0
DWIDTH 6 0
BBX 6 12 0 0
BITMAP
011020
0962D0
000000
99005D
3E00A7
0B51E1
05B790
00DD20
007B00
006A00
006A00
006A00
ENDCHAR
STARTCHAR Zacute
ENCODING 377
SWIDTH 522 0
DWIDTH 6 0
BBX 6 12 0 0
BITMAP
000A90
003B00
000000
6FFFF9
0000D4
0006B0
001E30
008A00
01E200
098000
2E1000
7FFFFC
ENDCHAR
STARTCHAR zacute
ENCODING 378
SWIDTH 438 0
DWIDTH 5 0
BBX 5 10 0 0
BITMAP
003E20
00A500
000000
6FFFA0
000C50
006B00
01E300
089000
2E1000
7FFFC0
ENDCHAR
STARTCHAR Zdotaccent
ENCODING 379
SWIDTH 522 0
DWIDTH 6 0
BBX 6 12 0 0
BITMAP
001200
005A00
000000
6FFFF9
0000D4
0006B0
001E30
008A00
01E200
098000
2E1000
7FFFFC
ENDCHAR
STARTCHAR zdotaccent
ENCODING 380
SWIDTH 438 0
DWIDTH 5 0
BBX 5 10 0 0
BITMAP
002000
00D300
000000
6FFFA0
000C50
006B00
01E300
089000
2E1000
7FFFC0
ENDCHAR
STARTCHAR Zcaron
ENCODING 381
SWIDTH 522 0
DWIDTH 6 0
BBX 6 12 0 0
BITMAP
02B770
007B00
000000
6FFFF9
0000D4
0006B0
001E30
008A00
01E200
098000
2E1000
7FFFFC
ENDCHAR
STARTCHAR zcaron
ENCODING 382
SWIDTH 438 0
DWIDTH 5 0
BBX 5 10 0 0
BITMAP
0A4C10
01D400
000000
6FFFA0
000C50
006B00
01E300
089000
2E1000
7FFFC0
ENDCHAR
STARTCHAR longs
ENCODING 383
SWIDTH 234 0
DWIDTH 3 0
BBX 4 9 0 0
BITMAP
08E4
1F20
2E00
2E00
2E00
2E00
2E00
2E00
2E00
ENDCHAR
STARTCHAR uni018F
ENCODING 399
SWIDTH 597 0
DWIDTH 7 0
BBX 7 9 0 0
BITMAP
07DEA200
03218B00
00000D30
00000A60
7FFFFF70
69000A60
4B000D30
0D518C00
03CFB100
ENDCHAR
STARTCHAR florin
ENCODING 402
SWIDTH 309 0
DWIDTH 4 0
BBX 4 11 0 -2
BITMAP
06E7
0C50
AFF2
0C30
0C30
0C30
0C30
0C30
0C30
1E20
DA00
ENDCHAR
STARTCHAR Ohorn
ENCODING 416
SWIDTH 592 0
DWIDTH 7 0
BBX 8 10 0 0
BITMAP
00000071
02BEA2E1
0C718F70
3D000D10
6A000B50
79000A60
6A000B50
3D000E30
0C717C00
02BFC200
ENDCHAR
STARTCHAR ohorn
ENCODING 417
SWIDTH 502 0
DWIDTH 6 0
BBX 6 8 0 0
BITMAP
000004
05DD4C
1E33F9
5B00B4
690096
5B00B6
1E33E2
05DD60
ENDCHAR
STARTCHAR Uhorn
ENCODING 431
SWIDTH 608 0
DWIDTH 7 0
BBX 8 10 0 0
BITMAP
00000009
4C001F4B
4C001FD3
4C001F00
4C001F00
4C001F00
4C001F00
3D002E00
0D519A00
03CEA100
ENDCHAR
STARTCHAR uhorn
ENCODING 432
SWIDTH 549 0
DWIDTH 7 0
BBX 7 8 0 0
BITMAP
00000120
4C00F570
4C00FD20
4C00F000
4C00F000
4C00F000
2E26F000
09EAF000
ENDCHAR
STARTCHAR uni01F0
ENCODING 496
SWIDTH 237 0
DWIDTH 3 0
BBX 4 12 -1 -2
BITMAP
0B4B
03E2
0000
01F0
01F0
01F0
01F0
01F0
01F0
01F0
03E0
2E70
ENDCHAR
STARTCHAR Aringacute
ENCODING 506
SWIDTH 576 0
DWIDTH 7 0
BBX 7 12 0 0
BITMAP
0004B000
00073000
003E2000
005F4000
007E6000
00C8A000
01E1E000
06A0C400
0A608900
0EFFFE00
4D000E30
98000980
ENDCHAR
STARTCHAR aringacute
ENCODING 507
SWIDTH 479 0
DWIDTH 6 0
BBX 6 10 0 0
BITMAP
000B30
001900
00A900
05FF40
1E25C0
0202E0
07EFE0
3D22E0
4D16E0
0BE9F1
ENDCHAR
STARTCHAR AEacute
ENCODING 508
SWIDTH 812 0
DWIDTH 10 0
BBX 10 12 0 0
BITMAP
00003E3000
0000960000
0000000000
0000EFFFF3
0006DC0000
000D6C0000
006C3D0000
00D52FFFC0
05E02E0000
0CFFFE0000
4E101F0000
C7000FFFF7
ENDCHAR
STARTCHAR aeacute
ENCODING 509
SWIDTH 728 0
DWIDTH 9 0
BBX 9 10 0 0
BITMAP
00007C0000
0001C20000
0000000000
08EC4DE500
4D18F52E10
1204D00C30
1AEFFFFF40
6B14D00000
7B18F51500
1CE93DEA10
ENDCHAR
STARTCHAR Oslashacute
ENCODING 510
SWIDTH 600 0
DWIDTH 7 0
BBX 7 13 0 -1
BITMAP
0003E200
000A5000
00000120
01BECA40
0A917E00
1E108E40
4C01A970
5B083880
3C2A0960
1E930C40
0AC16D00
09BEC300
05000000
ENDCHAR
STARTCHAR oslashacute
ENCODING 511
SWIDTH 498 0
DWIDTH 6 0
BBX 6 11 0 -1
BITMAP
002E40
008700
000060
05DD90
1E38E1
5B0AB5
694696
5B91B5
1E93E1
09ED50
060000
ENDCHAR
STARTCHAR uni0218
ENCODING 536
SWIDTH 518 0
DWIDTH 6 0
BBX 6 12 0 -3
BITMAP
05DE90
2E31B7
3D0047
1E7100
03BE70
0003C7
56006A
3E31A8
06DEA1
000000
005A00
007500
ENDCHAR
STARTCHAR uni0219
ENCODING 537
SWIDTH 455 0
DWIDTH 5 0
BBX 5 10 0 -3
BITMAP
08ED30
2E27B0
2E4010
05DB20
1108B0
4C15C0
09ED40
000000
009600
00A100
ENDCHAR
STARTCHAR uni021A
ENCODING 538
SWIDTH 520 0
DWIDTH 6 0
BBX 6 12 0 -3
BITMAP
AFFFFE
006A00
006A00
006A00
006A00
006A00
006A00
006A00
006A00
000000
006900
008300
ENDCHAR
STARTCHAR uni021B
ENCODING 539
SWIDTH 295 0
DWIDTH 4 0
BBX 4 12 0 -3
BITMAP
0D20
0D20
DFF1
0D20
0D20
0D20
0D20
0D40
08E1
0000
02C0
0470
ENDCHAR
STARTCHAR uni0237
ENCODING 567
SWIDTH 237 0
DWIDTH 3 0
BBX 3 9 -1 -2
BITMAP
01F0
01F0
01F0
01F0
01F0
01F0
01F0
03E0
2E70
ENDCHAR
STARTCHAR uni0259
ENCODING 601
SWIDTH 465 0
DWIDTH 6 0
BBX 6 7 0 0
BITMAP
1AEB20
0517A0
0000E0
6FFFF1
5A01F0
2E28A0
07EC20
ENDCHAR
STARTCHAR uni02BC
ENCODING 700
SWIDTH 194 0
DWIDTH 2 0
BBX 2 3 0 6
BITMAP
3C
5A
74
ENDCHAR
STARTCHAR circumflex
ENCODING 710
SWIDTH 428 0
DWIDTH 5 0
BBX 3 2 1 7
BITMAP
4E40
B4B0
ENDCHAR
STARTCHAR caron
ENCODING 711
SWIDTH 403 0
DWIDTH 5 0
BBX 4 2 0 7
BITMAP
1C4A
04D1
ENDCHAR
STARTCHAR uni02C9
ENCODING 713
SWIDTH 414 0
DWIDTH 5 0
BBX 5 1 0 7
BITMAP
3FFF40
ENDCHAR
STARTCHAR breve
ENCODING 728
SWIDTH 426 0
DWIDTH 5 0
BBX 5 2 0 7
BITMAP
2C1C30
09E900
ENDCHAR
STARTCHAR dotaccent
ENCODING 729
SWIDTH 242 0
DWIDTH 3 0
BBX 2 2 0 7
BITMAP
02
1E
ENDCHAR
STARTCHAR ring
ENCODING 730
SWIDTH 334 0
DWIDTH 4 0
BBX 4 3 0 7
BITMAP
1990
4563
1990
ENDCHAR
STARTCHAR ogonek
ENCODING 731
SWIDTH 253 0
DWIDTH 3 0
BBX 3 3 0 -2
BITMAP
0300
6700
7E10
ENDCHAR
STARTCHAR tilde
ENCODING 732
SWIDTH 427 0
DWIDTH 5 0
BBX 5 2 0 7
BITMAP
0C7840
387D00
ENDCHAR
STARTCHAR hungarumlaut
ENCODING 733
SWIDTH 331 0
DWIDTH 4 0
BBX 4 2 0 7
BITMAP
1D7C
49B3
ENDCHAR
STARTCHAR uni02F3
ENCODING 755
SWIDTH 263 0
DWIDTH 3 0
BBX 3 2 0 -3
BITMAP
2E40
2E40
ENDCHAR
STARTCHAR gravecomb
ENCODING 768
SWIDTH 0 0
DWIDTH 0 0
BBX 2 2 -4 7
BITMAP
D5
3A
ENDCHAR
STARTCHAR acutecomb
ENCODING 769
SWIDTH 0 0
DWIDTH 0 0
BBX 3 2 -4 7
BITMAP
08A0
1C10
ENDCHAR
STARTCHAR tildecomb
ENCODING 771
SWIDTH 0 0
DWIDTH 0 0
BBX 5 2 -5 7
BITMAP
0D7830
388C00
ENDCHAR
STARTCHAR hookabovecomb
ENCODING 777
SWIDTH 0 0
DWIDTH 0 0
BBX 3 3 -4 7
BITMAP
3C10
0A40
2B00
ENDCHAR
STARTCHAR uni030F
ENCODING 783
SWIDTH 0 0
DWIDTH 0 0
BBX 4 2 -5 7
BITMAP
6CB5
098B
ENDCHAR
STARTCHAR dotbelowcomb
ENCODING 803
SWIDTH 0 0
DWIDTH 0 0
BBX 2 2 -5 -3
BITMAP
1D
02
ENDCHAR
STARTCHAR tonos
ENCODING 900
SWIDTH 256 0
DWIDTH 3 0
BBX 2 2 1 7
BITMAP
B4
90
ENDCHAR
STARTCHAR dieresistonos
ENCODING 901
SWIDTH 452 0
DWIDTH 5 0
BBX 5 3 0 7
BITMAP
009600
018210
4A0680
ENDCHAR
STARTCHAR Alphatonos
ENCODING 902
SWIDTH 576 0
DWIDTH 7 0
BBX 7 9 0 0
BITMAP
0D4F1000
097E6000
00C8A000
01E1E000
06A0C400
0A608900
0EFFFE00
4D000E30
98000980
ENDCHAR
STARTCHAR anoteleia
ENCODING 903
SWIDTH 243 0
DWIDTH 3 0
BBX 2 2 0 3
BITMAP
1D
03
ENDCHAR
STARTCHAR Epsilontonos
ENCODING 904
SWIDTH 496 0
DWIDTH 6 0
BBX 7 9 -1 0
BITMAP
D3FFFF70
91F00000
01F00000
01F00000
01FFFF00
01F00000
01F00000
01F00000
01FFFF80
ENDCHAR
STARTCHAR Etatonos
ENCODING 905
SWIDTH 620 0
DWIDTH 7 0
BBX 8 9 -1 0
BITMAP
C3F00098
A1F00098
01F00098
01F00098
01FFFFF8
01F00098
01F00098
01F00098
01F00098
ENDCHAR
STARTCHAR Iotatonos
ENCODING 906
SWIDTH 250 0
DWIDTH 3 0
BBX 4 9 -1 0
BITMAP
C3F1
A0F1
00F1
00F1
00F1
00F1
00F1
00F1
00F1
ENDCHAR
STARTCHAR Omicrontonos
ENCODING 908
SWIDTH 610 0
DWIDTH 7 0
BBX 8 9 -1 0
BITMAP
0E2AED50
199914E2
00F100A7
02E00088
02E00079
02E00088
00F100A7
00A913E2
001AED50
ENDCHAR
STARTCHAR Upsilontonos
ENCODING 910
SWIDTH 573 0
DWIDTH 7 0
BBX 9 9 -2 0
BITMAP
0E1E300B70
1809802E10
0002E07900
0000B5D300
00004DB000
00000D5000
00000C4000
00000C4000
00000C4000
ENDCHAR
STARTCHAR Omegatonos
ENCODING 911
SWIDTH 591 0
DWIDTH 7 0
BBX 8 9 -1 0
BITMAP
0E2BEB20
19A917C0
01F100E2
03D000C4
03D000C5
02E000C3
00D100E1
00690780
03FF7FF4
ENDCHAR
STARTCHAR iotadieresistonos
ENCODING 912
SWIDTH 299 0
DWIDTH 4 0
BBX 5 11 -1 0
BITMAP
009600
018310
4A0690
000000
00D200
00D200
00D200
00D200
00D200
00D400
008E10
ENDCHAR
STARTCHAR Alpha
ENCODING 913
SWIDTH 576 0
DWIDTH 7 0
BBX 7 9 0 0
BITMAP
002F1000
007E6000
00C8A000
01E1E000
06A0C400
0A608900
0EFFFE00
4D000E30
98000980
ENDCHAR
STARTCHAR Beta
ENCODING 914
SWIDTH 545 0
DWIDTH 7 0
BBX 6 9 0 0
BITMAP
1FFFB1
1F01A8
1F006A
1F01B6
1FFFD1
1F008A
1F004C
1F009A
1FFFB2
ENDCHAR
STARTCHAR Gamma
ENCODING 915
SWIDTH 487 0
DWIDTH 6 0
BBX 5 9 1 0
BITMAP
FFFF60
F10000
F10000
F10000
F10000
F10000
F10000
F10000
F10000
ENDCHAR
STARTCHAR Delta.dup1
ENCODING 916
SWIDTH 614 0
DWIDTH 7 0
BBX 7 9 0 0
BITMAP
000D5000
004FA000
0098E000
00D2B400
04C06900
09702E00
0E200C40
4C000880
9FFFFFD0
ENDCHAR
STARTCHAR Epsilon
ENCODING 917
SWIDTH 496 0
DWIDTH 6 0
BBX 6 9 0 0
BITMAP
1FFFF7
1F0000
1F0000
1F0000
1FFFF0
1F0000
1F0000
1F0000
1FFFF8
ENDCHAR
STARTCHAR Zeta
ENCODING 918
SWIDTH 522 0
DWIDTH 6 0
BBX 6 9 0 0
BITMAP
6FFFF9
0000D4
0006B0
001E30
008A00
01E200
098000
2E1000
7FFFFC
ENDCHAR
STARTCHAR Eta
ENCODING 919
SWIDTH 620 0
DWIDTH 7 0
BBX 7 9 0 0
BITMAP
1F000980
1F000980
1F000980
1F000980
1FFFFF80
1F000980
1F000980
1F000980
1F000980
ENDCHAR
STARTCHAR Theta
ENCODING 920
SWIDTH 593 0
DWIDTH 7 0
BBX 7 9 0 0
BITMAP
02BEB200
0C817C00
3E000D30
5B000B60
6AAFCA60
5B000B50
3E000D30
0C817C00
02BEC200
ENDCHAR
STARTCHAR Iota
ENCODING 921
SWIDTH 250 0
DWIDTH 3 0
BBX 2 9 1 0
BITMAP
F1
F1
F1
F1
F1
F1
F1
F1
F1
ENDCHAR
STARTCHAR Kappa
ENCODING 922
SWIDTH 544 0
DWIDTH 7 0
BBX 7 9 0 0
BITMAP
1F005D10
1F01E400
1F0B8000
1F6C0000
1FEC0000
1F5C6000
1F03E100
1F00A900
1F002E30
ENDCHAR
STARTCHAR Lambda
ENCODING 923
SWIDTH 572 0
DWIDTH 7 0
BBX 7 9 0 0
BITMAP
003F1000
008F5000
00CB9000
01E3D000
06B0E300
0A70A700
0E305C00
4D001F10
89000C50
ENDCHAR
STARTCHAR Mu
ENCODING 924
SWIDTH 755 0
DWIDTH 9 0
BBX 9 9 0 0
BITMAP
1F70006F20
1FB000BF20
1EE101ED20
1EA505AD20
1F5A096E20
1F1E0D1E20
1F0A7B0E20
1F06E60E20
1F01F20E20
ENDCHAR
STARTCHAR Nu
ENCODING 925
SWIDTH 619 0
DWIDTH 7 0
BBX 7 9 0 0
BITMAP
1F400980
1FB00980
1FC30980
1F4B0980
1F0C3980
1F05B980
1F00CC80
1F005F80
1F000C80
ENDCHAR
STARTCHAR Xi
ENCODING 926
SWIDTH 502 0
DWIDTH 6 0
BBX 6 9 0 0
BITMAP
4FFFF4
000000
000000
000000
0DFFE0
000000
000000
000000
4FFFF5
ENDCHAR
STARTCHAR Omicron
ENCODING 927
SWIDTH 600 0
DWIDTH 7 0
BBX 7 9 0 0
BITMAP
02BEC300
0B815E10
2E000B50
3C000A70
4C000970
4C000970
2E000B50
0B815E10
02BEC300
ENDCHAR
STARTCHAR Pi
ENCODING 928
SWIDTH 620 0
DWIDTH 7 0
BBX 6 9 1 0
BITMAP
FFFFF7
F10097
F10097
F10097
F10097
F10097
F10097
F10097
F10097
ENDCHAR
STARTCHAR Rho
ENCODING 929
SWIDTH 554 0
DWIDTH 7 0
BBX 7 9 0 0
BITMAP
1FFFD400
1F005E00
1F000E20
1F004E10
1FFFD500
1F000000
1F000000
1F000000
1F000000
ENDCHAR
STARTCHAR Sigma
ENCODING 931
SWIDTH 502 0
DWIDTH 6 0
BBX 6 9 0 0
BITMAP
8FFFF4
3E2000
08A000
00D500
006C00
00D500
08A000
3E1000
8FFFF8
ENDCHAR
STARTCHAR Tau
ENCODING 932
SWIDTH 520 0
DWIDTH 6 0
BBX 6 9 0 0
BITMAP
AFFFFE
006A00
006A00
006A00
006A00
006A00
006A00
006A00
006A00
ENDCHAR
STARTCHAR Upsilon
ENCODING 933
SWIDTH 524 0
DWIDTH 6 0
BBX 6 9 0 0
BITMAP
99005D
3E00A7
0B51E1
05B790
00DD20
007B00
006A00
006A00
006A00
ENDCHAR
STARTCHAR Phi
ENCODING 934
SWIDTH 621 0
DWIDTH 7 0
BBX 7 9 0 0
BITMAP
000C4000
04DFE900
1E4C5A80
6A0C43D0
890C41F0
6A0C43D0
1E4C5A80
04CFE900
000C4000
ENDCHAR
STARTCHAR Chi
ENCODING 935
SWIDTH 550 0
DWIDTH 7 0
BBX 7 9 0 0
BITMAP
4E005E10
0C60C700
05D4E100
00CE7000
007F1000
00DD7000
05C3E100
0D60B700
5D004E10
ENDCHAR
STARTCHAR Psi
ENCODING 936
SWIDTH 600 0
DWIDTH 7 0
BBX 7 9 0 0
BITMAP
890F1790
890F1790
890F1790
790F1790
5B0F1970
1E5F4E20
04CFD500
000F1000
000F1000
ENDCHAR
STARTCHAR Omega.dup2
ENCODING 937
SWIDTH 581 0
DWIDTH 7 0
BBX 7 9 0 0
BITMAP
02CEA100
0C719A00
3E001F10
5C000E30
5B000D30
4C000E20
1E002D00
08709600
5FF7FF20
ENDCHAR
STARTCHAR Iotadieresis
ENCODING 938
SWIDTH 250 0
DWIDTH 3 0
BBX 5 12 -1 0
BITMAP
020200
4B0B40
000000
00F100
00F100
00F100
00F100
00F100
00F100
00F100
00F100
00F100
ENDCHAR
STARTCHAR Upsilondieresis
ENCODING 939
SWIDTH 524 0
DWIDTH 6 0
BBX 6 12 0 0
BITMAP
011020
0962D0
000000
99005D
3E00A7
0B51E1
05B790
00DD20
007B00
006A00
006A00
006A00
ENDCHAR
STARTCHAR alphatonos
ENCODING 940
SWIDTH 494 0
DWIDTH 6 0
BBX 6 10 0 0
BITMAP
000E00
001800
000000
06EAC2
1E34F2
4B00E2
6A00E2
5B00E2
2E34F3
07EA99
ENDCHAR
STARTCHAR epsilontonos
ENCODING 941
SWIDTH 470 0
DWIDTH 6 0
BBX 5 10 0 0
BITMAP
005900
006400
000000
09ED40
3D15D0
3D1000
0BFC00
4C1000
5C14E0
09ED50
ENDCHAR
STARTCHAR etatonos
ENCODING 942
SWIDTH 498 0
DWIDTH 6 0
BBX 6 12 0 -2
BITMAP
003B00
004600
000000
3CAE80
3F33F0
3D00E2
3D00E2
3D00E2
3D00E2
3D00E2
0000E2
0000E2
ENDCHAR
STARTCHAR iotatonos
ENCODING 943
SWIDTH 299 0
DWIDTH 4 0
BBX 3 10 1 0
BITMAP
8600
8100
0000
D200
D200
D200
D200
D200
D400
8E10
ENDCHAR
STARTCHAR upsilondieresistonos
ENCODING 944
SWIDTH 480 0
DWIDTH 6 0
BBX 6 11 0 0
BITMAP
007800
026420
2C04B0
000000
3C05B0
3C01F0
3C00E2
3C00D2
3D01F1
1E28B0
06EC20
ENDCHAR
STARTCHAR alpha
ENCODING 945
SWIDTH 494 0
DWIDTH 6 0
BBX 6 7 0 0
BITMAP
06EAC2
1E34F2
4B00E2
6A00E2
5B00E2
2E34F3
07EA99
ENDCHAR
STARTCHAR beta
ENCODING 946
SWIDTH 517 0
DWIDTH 6 0
BBX 6 11 0 -2
BITMAP
03DE60
0E43E1
2E00C3
2E02D1
2E4FA0
2E01C5
2E0088
2E31C5
2ECE90
2E0000
2E0000
ENDCHAR
STARTCHAR gamma
ENCODING 947
SWIDTH 444 0
DWIDTH 5 0
BBX 5 9 0 -2
BITMAP
8802D0
3C0690
0D2A40
096E10
04DA00
00E600
00C300
00C300
00C300
ENDCHAR
STARTCHAR delta
ENCODING 948
SWIDTH 498 0
DWIDTH 6 0
BBX 6 9 0 0
BITMAP
04DE40
0B6120
07C400
05FF80
2E34F2
5B00B5
5A00B4
2E33E1
06DD50
ENDCHAR
STARTCHAR epsilon
ENCODING 949
SWIDTH 470 0
DWIDTH 6 0
BBX 5 7 0 0
BITMAP
09ED40
3D15D0
3D1000
0BFC00
4C1000
5C14E0
09ED50
ENDCHAR
STARTCHAR zeta
ENCODING 950
SWIDTH 462 0
DWIDTH 6 0
BBX 5 11 0 -2
BITMAP
4FFFE0
000870
003D00
00C400
05A000
0B4000
0E2000
0D4000
05EB30
000890
000730
ENDCHAR
STARTCHAR eta
ENCODING 951
SWIDTH 498 0
DWIDTH 6 0
BBX 6 9 0 -2
BITMAP
3CAE80
3F33F0
3D00E2
3D00E2
3D00E2
3D00E2
3D00E2
0000E2
0000E2
ENDCHAR
STARTCHAR theta
ENCODING 952
SWIDTH 496 0
DWIDTH 6 0
BBX 6 9 0 0
BITMAP
05ED30
0D45D0
3D00D2
4B00C3
5FFFF4
4B00C3
3D00E2
0D45D0
04EE40
ENDCHAR
STARTCHAR iota
ENCODING 953
SWIDTH 299 0
DWIDTH 4 0
BBX 3 7 1 0
BITMAP
D200
D200
D200
D200
D200
D400
8E10
ENDCHAR
STARTCHAR kappa
ENCODING 954
SWIDTH 491 0
DWIDTH 6 0
BBX 6 7 0 0
BITMAP
2E03E2
2E0C60
2E6B00
2FF500
2E5D00
2E0B80
2E02E3
ENDCHAR
STARTCHAR lambda
ENCODING 955
SWIDTH 485 0
DWIDTH 6 0
BBX 6 9 0 0
BITMAP
1E5000
06C000
01E200
00E700
04EC00
096E20
0E2A70
4D05C0
8900C6
ENDCHAR
STARTCHAR uni03BC
ENCODING 956
SWIDTH 498 0
DWIDTH 6 0
BBX 6 9 0 -2
BITMAP
2D00E2
2D00E2
2D00E2
2D00E2
2E00E2
2F34F2
2EDCD2
2D0000
2D0000
ENDCHAR
STARTCHAR nu
ENCODING 957
SWIDTH 427 0
DWIDTH 5 0
BBX 5 7 0 0
BITMAP
9705A0
5A0860
1E0C20
0C3D00
08A900
04F500
00E100
ENDCHAR
STARTCHAR xi
ENCODING 958
SWIDTH 431 0
DWIDTH 5 0
BBX 5 11 0 -2
BITMAP
06DE60
1F3110
0E3000
05FF20
1D4000
6A0000
5B0000
1E6100
029E60
0005A0
000740
ENDCHAR
STARTCHAR omicron
ENCODING 959
SWIDTH 501 0
DWIDTH 6 0
BBX 6 7 0 0
BITMAP
05DD50
2E33E2
5A00A6
790097
5A00A6
2E32E2
06DD60
ENDCHAR
STARTCHAR pi
ENCODING 960
SWIDTH 520 0
DWIDTH 6 0
BBX 6 7 0 0
BITMAP
BFFFFB
0D20F0
0D20F0
0D20F0
0D20F0
0D20F2
0D209E
ENDCHAR
STARTCHAR rho
ENCODING 961
SWIDTH 498 0
DWIDTH 6 0
BBX 6 9 0 -2
BITMAP
04DD40
0D53E0
2E00C4
3D00A5
3D00B4
3E33E1
3EBE60
3D0000
3D0000
ENDCHAR
STARTCHAR sigma1
ENCODING 962
SWIDTH 472 0
DWIDTH 6 0
BBX 5 9 0 -2
BITMAP
05ED40
1E34D0
5B0060
6A0000
5B0000
1E6000
03CD40
000690
000730
ENDCHAR
STARTCHAR sigma
ENCODING 963
SWIDTH 498 0
DWIDTH 6 0
BBX 6 7 0 0
BITMAP
05DFFC
1E34B0
5B00B3
6A00A5
4B00C4
1E34E1
05DD50
ENDCHAR
STARTCHAR tau
ENCODING 964
SWIDTH 460 0
DWIDTH 6 0
BBX 5 7 0 0
BITMAP
7FFFF0
00C400
00C400
00C400
00C400
00C500
007E30
ENDCHAR
STARTCHAR upsilon
ENCODING 965
SWIDTH 480 0
DWIDTH 6 0
BBX 6 7 0 0
BITMAP
3C05B0
3C01F0
3C00E2
3C00D2
3D01F1
1E28B0
06EC20
ENDCHAR
STARTCHAR phi
ENCODING 966
SWIDTH 617 0
DWIDTH 7 0
BBX 7 10 0 -3
BITMAP
0928E900
3E1D4B70
7A0D34C0
780D32D0
5B0D35B0
1E6D5D60
03CFD700
000D3000
000D3000
000D3000
ENDCHAR
STARTCHAR chi
ENCODING 967
SWIDTH 438 0
DWIDTH 5 0
BBX 6 9 0 -2
BITMAP
AB03D0
0B5970
05BE10
00EA00
00C700
03EB00
098D20
1E2890
5B01D5
ENDCHAR
STARTCHAR psi
ENCODING 968
SWIDTH 612 0
DWIDTH 7 0
BBX 7 10 0 -3
BITMAP
790E2A60
790E26A0
790E24C0
690E23C0
5C0E26A0
1E5E5D50
03CFD700
000E2000
000E2000
000E2000
ENDCHAR
STARTCHAR omega
ENCODING 969
SWIDTH 711 0
DWIDTH 9 0
BBX 8 7 0 0
BITMAP
0C4000C5
2E000079
4C04C05B
4B04C04C
3C05D05B
0E39D6C7
06EA3EC1
ENDCHAR
STARTCHAR iotadieresis
ENCODING 970
SWIDTH 299 0
DWIDTH 4 0
BBX 5 10 -1 0
BITMAP
020110
2D0970
000000
00D200
00D200
00D200
00D200
00D200
00D400
008E10
ENDCHAR
STARTCHAR upsilondieresis
ENCODING 971
SWIDTH 480 0
DWIDTH 6 0
BBX 6 10 0 0
BITMAP
020110
0D1790
000000
3C05B0
3C01F0
3C00E2
3C00D2
3D01F1
1E28B0
06EC20
ENDCHAR
STARTCHAR omicrontonos
ENCODING 972
SWIDTH 501 0
DWIDTH 6 0
BBX 6 10 0 0
BITMAP
003B00
004600
000000
05DD50
2E33E2
5A00A6
790097
5A00A6
2E32E2
06DD60
ENDCHAR
STARTCHAR upsilontonos
ENCODING 973
SWIDTH 480 0
DWIDTH 6 0
BBX 6 10 0 0
BITMAP
006900
006300
000000
3C05B0
3C01F0
3C00E2
3C00D2
3D01F1
1E28B0
06EC20
ENDCHAR
STARTCHAR omegatonos
ENCODING 974
SWIDTH 711 0
DWIDTH 9 0
BBX 8 10 0 0
BITMAP
0000D100
00019000
00000000
0C4000C5
2E000079
4C04C05B
4B04C04C
3C05D05B
0E39D6C7
06EA3EC1
ENDCHAR
STARTCHAR theta1
ENCODING 977
SWIDTH 507 0
DWIDTH 6 0
BBX 6 9 0 0
BITMAP
00AE70
03D2F0
03C0E1
00D6E2
382BFA
5B00E1
4B00F1
1E25D0
06ED40
ENDCHAR
STARTCHAR Upsilon1
ENCODING 978
SWIDTH 465 0
DWIDTH 6 0
BBX 6 9 0 0
BITMAP
E600B8
4D04C0
0D3970
079E10
02FA00
00C500
00B500
00B500
00B500
ENDCHAR
STARTCHAR omega1
ENCODING 982
SWIDTH 678 0
DWIDTH 8 0
BBX 8 7 0 0
BITMAP
7FFFFFFC
1F1000D4
3D0690A6
3C069096
2D07A0A5
0E2BD2D2
06E85E90
ENDCHAR
STARTCHAR uni0400
ENCODING 1024
SWIDTH 496 0
DWIDTH 6 0
BBX 6 12 0 0
BITMAP
04E200
008700
000000
1FFFF7
1F0000
1F0000
1F0000
1FFFF0
1F0000
1F0000
1F0000
1FFFF8
ENDCHAR
STARTCHAR uni0401
ENCODING 1025
SWIDTH 496 0
DWIDTH 6 0
BBX 6 12 0 0
BITMAP
011020
0962D0
000000
1FFFF7
1F0000
1F0000
1F0000
1FFFF0
1F0000
1F0000
1F0000
1FFFF8
ENDCHAR
STARTCHAR uni0402
ENCODING 1026
SWIDTH 650 0
DWIDTH 8 0
BBX 8 9 0 0
BITMAP
BFFFFD00
00A60000
00A60000
00ADED40
00A814E1
00A600C4
00A600C4
00A603E1
00A62D50
ENDCHAR
STARTCHAR uni0403
ENCODING 1027
SWIDTH 487 0
DWIDTH 6 0
BBX 5 12 1 0
BITMAP
009A00
02B100
000000
FFFF60
F10000
F10000
F10000
F10000
F10000
F10000
F10000
F10000
ENDCHAR
STARTCHAR uni0404
ENCODING 1028
SWIDTH 589 0
DWIDTH 7 0
BBX 7 9 0 0
BITMAP
01BEC300
0B916D00
1E100D30
4D000000
4FFF8000
4C000000
1E000D30
0B815D00
02BFC300
ENDCHAR
STARTCHAR uni0405
ENCODING 1029
SWIDTH 518 0
DWIDTH 6 0
BBX 6 9 0 0
BITMAP
05DE90
2E31B7
3D0047
1E7100
03BE70
0003C7
56006A
3E31A8
06DEA1
ENDCHAR
STARTCHAR uni0406
ENCODING 1030
SWIDTH 250 0
DWIDTH 3 0
BBX 2 9 1 0
BITMAP
F1
F1
F1
F1
F1
F1
F1
F1
F1
ENDCHAR
STARTCHAR uni0407
ENCODING 1031
SWIDTH 250 0
DWIDTH 3 0
BBX 5 12 -1 0
BITMAP
020200
4B0B40
000000
00F100
00F100
00F100
00F100
00F100
00F100
00F100
00F100
00F100
ENDCHAR
STARTCHAR uni0408
ENCODING 1032
SWIDTH 483 0
DWIDTH 6 0
BBX 5 9 0 0
BITMAP
0002E0
0002E0
0002E0
0002E0
0002E0
0002E0
4303E0
7B18B0
1AEC20
ENDCHAR
STARTCHAR uni0409
ENCODING 1033
SWIDTH 923 0
DWIDTH 11 0
BBX 11 9 0 0
BITMAP
02FFFF700000
02E00A700000
03D00A700000
03D00AFFE800
04C00A702D40
04B00A700880
06A00A700880
0B600A702D40
9B100AFFE800
ENDCHAR
STARTCHAR uni040A
ENCODING 1034
SWIDTH 927 0
DWIDTH 11 0
BBX 10 9 1 0
BITMAP
F100970000
F100970000
F100970000
F100970000
FFFFFFFE90
F1009701C6
F100970079
F1009701C6
F1009FFE90
ENDCHAR
STARTCHAR uni040B
ENCODING 1035
SWIDTH 705 0
DWIDTH 8 0
BBX 8 9 0 0
BITMAP
8FFFFF00
00970000
00970000
009EEE80
009912D4
00970097
00970098
00970098
00970098
ENDCHAR
STARTCHAR uni040C
ENCODING 1036
SWIDTH 544 0
DWIDTH 7 0
BBX 7 12 0 0
BITMAP
000B8000
003B0000
00000000
1F005D10
1F01E400
1F0B8000
1F6C0000
1FEC0000
1F5C6000
1F03E100
1F00A900
1F002E30
ENDCHAR
STARTCHAR uni040D
ENCODING 1037
SWIDTH 619 0
DWIDTH 7 0
BBX 6 12 1 0
BITMAP
0B9000
01C200
000000
F100D7
F105F7
F10CC7
F15A97
F1C397
F5B097
FC4097
FB0097
F40097
ENDCHAR
STARTCHAR uni040E
ENCODING 1038
SWIDTH 547 0
DWIDTH 7 0
BBX 7 12 0 0
BITMAP
0691E000
01BE7000
00000000
4D004E10
0E308A00
0890D500
03D3E100
00DBA000
007F5000
003E1000
007A0000
08D20000
ENDCHAR
STARTCHAR uni040F
ENCODING 1039
SWIDTH 621 0
DWIDTH 7 0
BBX 6 11 1 -2
BITMAP
F10097
F10097
F10097
F10097
F10097
F10097
F10097
F10097
FFFFF7
00C400
00C400
ENDCHAR
STARTCHAR uni0410
ENCODING 1040
SWIDTH 576 0
DWIDTH 7 0
BBX 7 9 0 0
BITMAP
002F1000
007E6000
00C8A000
01E1E000
06A0C400
0A608900
0EFFFE00
4D000E30
98000980
ENDCHAR
STARTCHAR uni0411
ENCODING 1041
SWIDTH 549 0
DWIDTH 7 0
BBX 7 9 0 0
BITMAP
2FFFF500
2F000000
2F000000
2F000000
2FFFD400
2F005E00
2F000F10
2F005E00
2FFFD400
ENDCHAR
STARTCHAR uni0412
ENCODING 1042
SWIDTH 545 0
DWIDTH 7 0
BBX 6 9 0 0
BITMAP
1FFFB1
1F01A8
1F006A
1F01B6
1FFFD1
1F008A
1F004C
1F009A
1FFFB2
ENDCHAR
STARTCHAR uni0413
ENCODING 1043
SWIDTH 487 0
DWIDTH 6 0
BBX 5 9 1 0
BITMAP
FFFF60
F10000
F10000
F10000
F10000
F10000
F10000
F10000
F10000
ENDCHAR
STARTCHAR uni0414
ENCODING 1044
SWIDTH 660 0
DWIDTH 8 0
BBX 8 11 0 -2
BITMAP
00EFFF80
00E20880
00F10880
00F10880
02F00880
04D00880
07A00880
0C500880
AFFFFFF8
A6000088
A6000088
ENDCHAR
STARTCHAR uni0415
ENCODING 1045
SWIDTH 496 0
DWIDTH 6 0
BBX 6 9 0 0
BITMAP
1FFFF7
1F0000
1F0000
1F0000
1FFFF0
1F0000
1F0000
1F0000
1FFFF8
ENDCHAR
STARTCHAR uni0416
ENCODING 1046
SWIDTH 791 0
DWIDTH 10 0
BBX 10 9 0 0
BITMAP
4E00B505D0
0C60B50C60
04C0B54D00
00C4B5A600
008FFFF200
01E4B5A800
07C0B53E10
1E50B50B80
7C00B504F1
ENDCHAR
STARTCHAR uni0417
ENCODING 1047
SWIDTH 517 0
DWIDTH 6 0
BBX 6 9 0 0
BITMAP
06EE90
3E22D5
240088
0001C5
00AFB0
0001B7
45006A
4D21B7
07EE90
ENDCHAR
STARTCHAR uni0418
ENCODING 1048
SWIDTH 619 0
DWIDTH 7 0
BBX 6 9 1 0
BITMAP
F100D7
F105F7
F10CC7
F15A97
F1C397
F5B097
FC4097
FB0097
F40097
ENDCHAR
STARTCHAR uni0419
ENCODING 1049
SWIDTH 619 0
DWIDTH 7 0
BBX 6 12 1 0
BITMAP
0E1960
06EC10
000000
F100D7
F105F7
F10CC7
F15A97
F1C397
F5B097
FC4097
FB0097
F40097
ENDCHAR
STARTCHAR uni041A
ENCODING 1050
SWIDTH 560 0
DWIDTH 7 0
BBX 6 9 1 0
BITMAP
F103E2
F11D60
F18B00
F7E200
FAE100
F1A900
F12E30
F108B0
F101E5
ENDCHAR
STARTCHAR uni041B
ENCODING 1051
SWIDTH 615 0
DWIDTH 7 0
BBX 7 9 0 0
BITMAP
02FFFF60
02E00A60
03D00A60
03D00A60
04C00A60
04B00A60
06A00A60
1B600A60
9B100A60
ENDCHAR
STARTCHAR uni041C
ENCODING 1052
SWIDTH 755 0
DWIDTH 9 0
BBX 9 9 0 0
BITMAP
1F70006F20
1FB000BF20
1EE101ED20
1EA505AD20
1F5A096E20
1F1E0D1E20
1F0A7B0E20
1F06E60E20
1F01F20E20
ENDCHAR
STARTCHAR uni041D
ENCODING 1053
SWIDTH 620 0
DWIDTH 7 0
BBX 7 9 0 0
BITMAP
1F000980
1F000980
1F000980
1F000980
1FFFFF80
1F000980
1F000980
1F000980
1F000980
ENDCHAR
STARTCHAR uni041E
ENCODING 1054
SWIDTH 600 0
DWIDTH 7 0
BBX 7 9 0 0
BITMAP
02BEC300
0B815E10
2E000B50
3C000A70
4C000970
4C000970
2E000B50
0B815E10
02BEC300
ENDCHAR
STARTCHAR uni041F
ENCODING 1055
SWIDTH 620 0
DWIDTH 7 0
BBX 6 9 1 0
BITMAP
FFFFF7
F10097
F10097
F10097
F10097
F10097
F10097
F10097
F10097
ENDCHAR
STARTCHAR uni0420
ENCODING 1056
SWIDTH 554 0
DWIDTH 7 0
BBX 7 9 0 0
BITMAP
1FFFD400
1F005E00
1F000E20
1F004E10
1FFFD500
1F000000
1F000000
1F000000
1F000000
ENDCHAR
STARTCHAR uni0421
ENCODING 1057
SWIDTH 566 0
DWIDTH 7 0
BBX 7 9 0 0
BITMAP
02BEC300
0B815D00
2E000C30
4D000000
4C000000
4D000000
2E000C20
0B715D00
02BEC300
ENDCHAR
STARTCHAR uni0422
ENCODING 1058
SWIDTH 520 0
DWIDTH 6 0
BBX 6 9 0 0
BITMAP
AFFFFE
006A00
006A00
006A00
006A00
006A00
006A00
006A00
006A00
ENDCHAR
STARTCHAR uni0423
ENCODING 1059
SWIDTH 547 0
DWIDTH 7 0
BBX 7 9 0 0
BITMAP
4D004E10
0E308A00
0890D500
03D3E100
00DBA000
007F5000
003E1000
007A0000
08D20000
ENDCHAR
STARTCHAR uni0424
ENCODING 1060
SWIDTH 676 0
DWIDTH 8 0
BBX 8 9 0 0
BITMAP
00069000
03CFFD40
1D5794E2
5B069088
69069069
5B069088
1D5793E2
03CFFD40
00069000
ENDCHAR
STARTCHAR uni0425
ENCODING 1061
SWIDTH 550 0
DWIDTH 7 0
BBX 7 9 0 0
BITMAP
4E005E10
0C60C700
05D4E100
00CE7000
007F1000
00DD7000
05C3E100
0D60B700
5D004E10
ENDCHAR
STARTCHAR uni0426
ENCODING 1062
SWIDTH 639 0
DWIDTH 8 0
BBX 7 11 1 -2
BITMAP
F1009700
F1009700
F1009700
F1009700
F1009700
F1009700
F1009700
F1009700
FFFFFF30
00000C30
00000C20
ENDCHAR
STARTCHAR uni0427
ENCODING 1063
SWIDTH 600 0
DWIDTH 7 0
BBX 7 9 0 0
BITMAP
3D000D40
3D000D40
3D000D40
2E000D40
0E403D40
04DFDE40
00000D40
00000D40
00000D40
ENDCHAR
STARTCHAR uni0428
ENCODING 1064
SWIDTH 814 0
DWIDTH 10 0
BBX 8 9 1 0
BITMAP
F10A704C
F10A704C
F10A704C
F10A704C
F10A704C
F10A704C
F10A704C
F10A704C
FFFFFFFC
ENDCHAR
STARTCHAR uni0429
ENCODING 1065
SWIDTH 841 0
DWIDTH 10 0
BBX 9 11 1 -2
BITMAP
F10A704C00
F10A704C00
F10A704C00
F10A704C00
F10A704C00
F10A704C00
F10A704C00
F10A704C00
FFFFFFFF80
0000000770
0000000770
ENDCHAR
STARTCHAR uni042A
ENCODING 1066
SWIDTH 651 0
DWIDTH 8 0
BBX 8 9 0 0
BITMAP
BFF30000
00D30000
00D30000
00D30000
00DFFE60
00D302E2
00D300B5
00D303E2
00DFFD60
ENDCHAR
STARTCHAR uni042B
ENCODING 1067
SWIDTH 755 0
DWIDTH 9 0
BBX 8 9 1 0
BITMAP
F10000F1
F10000F1
F10000F1
F10000F1
FFFD50F1
F104E1F1
F100D3F1
F104E1F1
FFFD50F1
ENDCHAR
STARTCHAR uni042C
ENCODING 1068
SWIDTH 551 0
DWIDTH 7 0
BBX 7 9 0 0
BITMAP
2F000000
2F000000
2F000000
2F000000
2FFFD400
2F005E00
2F000F10
2F005E00
2FFFD400
ENDCHAR
STARTCHAR uni042D
ENCODING 1069
SWIDTH 589 0
DWIDTH 7 0
BBX 7 9 0 0
BITMAP
02BEC200
0B717C00
1E100D30
00000A50
006FFF70
00000A60
1D100D40
0B716D00
02BEC200
ENDCHAR
STARTCHAR uni042E
ENCODING 1070
SWIDTH 765 0
DWIDTH 9 0
BBX 8 9 1 0
BITMAP
F119ED60
F18B13D4
F1D40079
F1F1005B
FFF1005B
F1F2005B
F1D40079
F17B12D4
F109ED60
ENDCHAR
STARTCHAR uni042F
ENCODING 1071
SWIDTH 562 0
DWIDTH 7 0
BBX 6 9 0 0
BITMAP
03CFFB
0D605B
2E005B
2E005B
0C605B
02EFFB
03D05B
0B605B
3E005B
ENDCHAR
STARTCHAR uni0430
ENCODING 1072
SWIDTH 479 0
DWIDTH 6 0
BBX 6 7 0 0
BITMAP
05ED40
1E25C0
0202E0
07EFE0
3D22E0
4D16E0
0BE9F1
ENDCHAR
STARTCHAR uni0431
ENCODING 1073
SWIDTH 484 0
DWIDTH 6 0
BBX 6 9 0 0
BITMAP
0004D0
03DB40
0C3000
3BCE70
5E23E2
6A00B5
5B00B5
2E33E1
05DD50
ENDCHAR
STARTCHAR uni0432
ENCODING 1074
SWIDTH 503 0
DWIDTH 6 0
BBX 6 7 0 0
BITMAP
2FFEA0
2E02E2
2FFFB0
2E01D3
2E00A6
2E01D4
2FFE90
ENDCHAR
STARTCHAR uni0433
ENCODING 1075
SWIDTH 371 0
DWIDTH 4 0
BBX 5 7 0 0
BITMAP
2FFF40
2E0000
2E0000
2E0000
2E0000
2E0000
2E0000
ENDCHAR
STARTCHAR uni0434
ENCODING 1076
SWIDTH 536 0
DWIDTH 6 0
BBX 6 9 0 -2
BITMAP
04FFF4
05B0B4
05B0B4
0690B4
0970B4
1D20B4
AFFFFF
A6000F
A6000F
ENDCHAR
STARTCHAR uni0435
ENCODING 1077
SWIDTH 468 0
DWIDTH 6 0
BBX 6 7 0 0
BITMAP
06ED40
2E24D0
5A00E1
6FFFF2
5A0000
2E2170
06EE80
ENDCHAR
STARTCHAR uni0436
ENCODING 1078
SWIDTH 662 0
DWIDTH 8 0
BBX 8 7 0 0
BITMAP
6C0870D5
0D4875C0
06A87B50
01FFFF10
08987B60
1E3874E1
8B0870C7
ENDCHAR
STARTCHAR uni0437
ENCODING 1079
SWIDTH 446 0
DWIDTH 5 0
BBX 5 7 0 0
BITMAP
09ED40
4C1990
03FF20
000880
1104B0
5C1990
0AEC20
ENDCHAR
STARTCHAR uni0438
ENCODING 1080
SWIDTH 509 0
DWIDTH 6 0
BBX 6 7 0 0
BITMAP
2E01E4
2E07F4
2E0CC4
2E67C4
2EC1C4
2F90C4
2F20C4
ENDCHAR
STARTCHAR uni0439
ENCODING 1081
SWIDTH 509 0
DWIDTH 6 0
BBX 6 10 0 0
BITMAP
0964B0
03DE40
000000
2E01E4
2E07F4
2E0CC4
2E67C4
2EC1C4
2F90C4
2F20C4
ENDCHAR
STARTCHAR uni043A
ENCODING 1082
SWIDTH 479 0
DWIDTH 6 0
BBX 6 7 0 0
BITMAP
2E02E2
2E0B70
2E4C00
2FF700
2E3E10
2E0990
2E01E4
ENDCHAR
STARTCHAR uni043B
ENCODING 1083
SWIDTH 509 0
DWIDTH 6 0
BBX 6 7 0 0
BITMAP
07FFF4
0880C4
0870C4
0960C4
0A50C4
1D30C4
A900C4
ENDCHAR
STARTCHAR uni043C
ENCODING 1084
SWIDTH 645 0
DWIDTH 8 0
BBX 7 7 0 0
BITMAP
2F5009D0
2FA00DD0
2ED03DD0
2E9488D0
2E49C4D0
2E0DB2D0
2E0A62D0
ENDCHAR
STARTCHAR uni043D
ENCODING 1085
SWIDTH 508 0
DWIDTH 6 0
BBX 6 7 0 0
BITMAP
2E00C4
2E00C4
2E00C4
2FFFF4
2E00C4
2E00C4
2E00C4
ENDCHAR
STARTCHAR uni043E
ENCODING 1086
SWIDTH 501 0
DWIDTH 6 0
BBX 6 7 0 0
BITMAP
05DD50
2E33E2
5A00A6
790097
5A00A6
2E32E2
06DD60
ENDCHAR
STARTCHAR uni043F
ENCODING 1087
SWIDTH 509 0
DWIDTH 6 0
BBX 6 7 0 0
BITMAP
2FFFF4
2E00C4
2E00C4
2E00C4
2E00C4
2E00C4
2E00C4
ENDCHAR
STARTCHAR uni0440
ENCODING 1088
SWIDTH 493 0
DWIDTH 6 0
BBX 6 9 0 -2
BITMAP
3CBE70
3E33E2
3C00B4
3C00A5
3C00B4
3E23E2
3DBE70
3C0000
3C0000
ENDCHAR
STARTCHAR uni0441
ENCODING 1089
SWIDTH 461 0
DWIDTH 6 0
BBX 6 7 0 0
BITMAP
07ED40
2E23E0
6A0051
790000
6A0030
2E23E0
07ED40
ENDCHAR
STARTCHAR uni0442
ENCODING 1090
SWIDTH 424 0
DWIDTH 5 0
BBX 5 7 0 0
BITMAP
AFFFC0
00F100
00F100
00F100
00F100
00F100
00F100
ENDCHAR
STARTCHAR uni0443
ENCODING 1091
SWIDTH 416 0
DWIDTH 5 0
BBX 5 9 0 -2
BITMAP
A70790
5B0B50
1E0E10
0C6C00
07D700
03F300
00D000
069000
7D2000
ENDCHAR
STARTCHAR uni0444
ENCODING 1092
SWIDTH 628 0
DWIDTH 8 0
BBX 7 11 0 -2
BITMAP
000C4000
000C4000
07EFED20
1E2C4990
5B0C43D0
6A0C41E0
5A0C42D0
2E2C48A0
08EFED20
000C4000
000C4000
ENDCHAR
STARTCHAR uni0445
ENCODING 1093
SWIDTH 438 0
DWIDTH 5 0
BBX 5 7 0 0
BITMAP
6B08A0
0D3E20
06DA00
01F400
07DA00
1E2D30
7B07A0
ENDCHAR
STARTCHAR uni0446
ENCODING 1094
SWIDTH 524 0
DWIDTH 6 0
BBX 6 9 0 -2
BITMAP
2E00C4
2E00C4
2E00C4
2E00C4
2E00C4
2E00C4
2FFFFD
00002D
00002C
ENDCHAR
STARTCHAR uni0447
ENCODING 1095
SWIDTH 479 0
DWIDTH 6 0
BBX 5 7 0 0
BITMAP
6A02D0
6A02D0
5A02D0
3D14D0
08EED0
0002D0
0002D0
ENDCHAR
STARTCHAR uni0448
ENCODING 1096
SWIDTH 703 0
DWIDTH 8 0
BBX 8 7 0 0
BITMAP
2E04B078
2E04B078
2E04B078
2E04B078
2E04B078
2E04B078
2FFFFFF8
ENDCHAR
STARTCHAR uni0449
ENCODING 1097
SWIDTH 722 0
DWIDTH 9 0
BBX 9 9 0 -2
BITMAP
3D05A08800
3D05A08800
3D05A08800
3D05A08800
3D05A08800
3D05A08800
3FFFFFFF40
0000000B40
0000000B30
ENDCHAR
STARTCHAR uni044A
ENCODING 1098
SWIDTH 538 0
DWIDTH 6 0
BBX 7 7 0 0
BITMAP
BFC00000
03C00000
03FFE500
03C04E00
03C00E10
03C03E00
03FFE500
ENDCHAR
STARTCHAR uni044B
ENCODING 1099
SWIDTH 679 0
DWIDTH 8 0
BBX 8 7 0 0
BITMAP
2E0000E2
2E0000E2
2FFE60E2
2E02E1E2
2E00D2E2
2E02E1E2
2FFE60E2
ENDCHAR
STARTCHAR uni044C
ENCODING 1100
SWIDTH 478 0
DWIDTH 6 0
BBX 6 7 0 0
BITMAP
2E0000
2E0000
2FFE60
2E02E1
2E00D2
2E02E1
2FFE60
ENDCHAR
STARTCHAR uni044D
ENCODING 1101
SWIDTH 472 0
DWIDTH 6 0
BBX 5 7 0 0
BITMAP
1AEB10
361590
00DFE0
0001F0
2403E0
3D1AA0
08EC10
ENDCHAR
STARTCHAR uni044E
ENCODING 1102
SWIDTH 706 0
DWIDTH 8 0
BBX 8 7 0 0
BITMAP
2E02CEA1
2E0BA1A8
2FFF303D
2E0D202E
2E0A303D
2E05A1A8
2E009EA1
ENDCHAR
STARTCHAR uni044F
ENCODING 1103
SWIDTH 482 0
DWIDTH 6 0
BBX 5 7 0 0
BITMAP
0AFFE0
5C12E0
5C02E0
0BFFE0
0A72E0
2E12E0
8902E0
ENDCHAR
STARTCHAR uni0450
ENCODING 1104
SWIDTH 468 0
DWIDTH 6 0
BBX 6 10 0 0
BITMAP
08B000
00B300
000000
06ED40
2E24D0
5A00E1
6FFFF2
5A0000
2E2170
06EE80
ENDCHAR
STARTCHAR uni0451
ENCODING 1105
SWIDTH 468 0
DWIDTH 6 0
BBX 6 10 0 0
BITMAP
020010
0D35A0
000000
06ED40
2E24D0
5A00E1
6FFFF2
5A0000
2E2170
06EE80
ENDCHAR
STARTCHAR uni0452
ENCODING 1106
SWIDTH 482 0
DWIDTH 6 0
BBX 5 11 0 -2
BITMAP
3C0000
FFF300
3DBE70
3F33E0
3C00F0
3C00F0
3C00F0
3C00F0
3C00F0
0002E0
001E70
ENDCHAR
STARTCHAR uni0453
ENCODING 1107
SWIDTH 371 0
DWIDTH 4 0
BBX 5 10 0 0
BITMAP
009A00
02C100
000000
2FFF40
2E0000
2E0000
2E0000
2E0000
2E0000
2E0000
ENDCHAR
STARTCHAR uni0454
ENCODING 1108
SWIDTH 472 0
DWIDTH 6 0
BBX 6 7 0 0
BITMAP
04DE50
1C23E0
4FF761
6B0000
4D0031
1E43E1
05DD40
ENDCHAR
STARTCHAR uni0455
ENCODING 1109
SWIDTH 455 0
DWIDTH 5 0
BBX 5 7 0 0
BITMAP
08ED30
2E27B0
2E4010
05DB20
1108B0
4C15C0
09ED40
ENDCHAR
STARTCHAR uni0456
ENCODING 1110
SWIDTH 229 0
DWIDTH 3 0
BBX 2 10 0 0
BITMAP
02
2C
00
2D
2D
2D
2D
2D
2D
2D
ENDCHAR
STARTCHAR uni0457
ENCODING 1111
SWIDTH 234 0
DWIDTH 3 0
BBX 5 10 -1 0
BITMAP
110200
5A0C30
000000
02D000
02D000
02D000
02D000
02D000
02D000
02D000
ENDCHAR
STARTCHAR uni0458
ENCODING 1112
SWIDTH 223 0
DWIDTH 3 0
BBX 3 12 -1 -2
BITMAP
0020
03B0
0000
03C0
03C0
03C0
03C0
03C0
03C0
03C0
05C0
2E60
ENDCHAR
STARTCHAR uni0459
ENCODING 1113
SWIDTH 729 0
DWIDTH 9 0
BBX 9 7 0 0
BITMAP
07FFF00000
0870F00000
0870F00000
0960FFE900
0A50F01D40
1D20F01D30
A900FFE900
ENDCHAR
STARTCHAR uni045A
ENCODING 1114
SWIDTH 743 0
DWIDTH 9 0
BBX 9 7 0 0
BITMAP
2E00C40000
2E00C40000
2E00C40000
2FFFFFEB10
2E00C41B60
2E00C40B60
2E00CFFB10
ENDCHAR
STARTCHAR uni045B
ENCODING 1115
SWIDTH 499 0
DWIDTH 6 0
BBX 5 9 0 0
BITMAP
3C0000
DFF500
3DBE60
3F34E0
3C00F0
3C00F0
3C00F0
3C00F0
3C00F0
ENDCHAR
STARTCHAR uni045C
ENCODING 1116
SWIDTH 479 0
DWIDTH 6 0
BBX 6 10 0 0
BITMAP
002E40
008700
000000
2E02E2
2E0B70
2E4C00
2FF700
2E3E10
2E0990
2E01E4
ENDCHAR
STARTCHAR uni045D
ENCODING 1117
SWIDTH 509 0
DWIDTH 6 0
BBX 6 10 0 0
BITMAP
06D100
009500
000000
2E01E4
2E07F4
2E0CC4
2E67C4
2EC1C4
2F90C4
2F20C4
ENDCHAR
STARTCHAR uni045E
ENCODING 1118
SWIDTH 416 0
DWIDTH 5 0
BBX 5 12 0 -2
BITMAP
1D1B40
08EA00
000000
A70790
5B0B50
1E0E10
0C6C00
07D700
03F300
00D000
069000
7D2000
ENDCHAR
STARTCHAR uni045F
ENCODING 1119
SWIDTH 509 0
DWIDTH 6 0
BBX 6 9 0 -2
BITMAP
2E00C4
2E00C4
2E00C4
2E00C4
2E00C4
2E00C4
2FFFF4
007900
007900
ENDCHAR
STARTCHAR uni0460
ENCODING 1120
SWIDTH 754 0
DWIDTH 9 0
BBX 9 9 0 0
BITMAP
2E00F20C40
2E00F20C40
2E00F20C40
2E00F20C40
2E00F20C40
2E00F20C40
2E00F20C40
0E35F62E10
06ED5DE700
ENDCHAR
STARTCHAR uni0461
ENCODING 1121
SWIDTH 650 0
DWIDTH 8 0
BBX 8 7 0 0
BITMAP
4B0970D3
4B0970D3
4B0970D3
4B0970D3
4B0970D2
3D1DA2F1
09E8AE70
ENDCHAR
STARTCHAR uni0462
ENCODING 1122
SWIDTH 551 0
DWIDTH 7 0
BBX 8 9 -1 0
BITMAP
02F00000
3FFF0000
02F00000
02F00000
02FFFD40
02F005E0
02F000F1
02F005E0
02FFFD40
ENDCHAR
STARTCHAR uni0463
ENCODING 1123
SWIDTH 477 0
DWIDTH 6 0
BBX 7 9 -1 0
BITMAP
02D00000
02D00000
1FFF7000
02D00000
02D00000
02FFE800
02D02F20
02D02F10
02FFE700
ENDCHAR
STARTCHAR uni0464
ENCODING 1124
SWIDTH 772 0
DWIDTH 9 0
BBX 8 9 1 0
BITMAP
F108ED50
F17C13E2
F1D40096
F1F10000
FFFFFA00
F1F00000
F1E30095
F18A13E2
F109ED50
ENDCHAR
STARTCHAR uni0465
ENCODING 1125
SWIDTH 646 0
DWIDTH 8 0
BBX 8 7 0 0
BITMAP
2D07EE60
2D2E22E1
2FFFFD52
2D4C0000
2D1E0031
2D0B62E1
2D02DE50
ENDCHAR
STARTCHAR uni0466
ENCODING 1126
SWIDTH 526 0
DWIDTH 6 0
BBX 7 9 0 0
BITMAP
004E0000
008F4000
00CA8000
02D3C000
0690D100
0AFFF500
0E4C5A00
4C3C2E00
883C0D30
ENDCHAR
STARTCHAR uni0467
ENCODING 1127
SWIDTH 470 0
DWIDTH 6 0
BBX 6 7 0 0
BITMAP
00C600
02FA00
079E00
0B3A50
1FFF90
6AB6E0
A5B4C4
ENDCHAR
STARTCHAR uni0468
ENCODING 1128
SWIDTH 759 0
DWIDTH 9 0
BBX 8 9 1 0
BITMAP
E200A800
E200ED00
E204CD20
E2097960
E20D35A0
EFFFFFE0
E27A97B4
E2A69788
E2E2974C
ENDCHAR
STARTCHAR uni0469
ENCODING 1129
SWIDTH 654 0
DWIDTH 8 0
BBX 7 7 1 0
BITMAP
F1099000
F10ED000
F14BC300
F1968800
FFFFFC00
F4D88D20
F8888970
ENDCHAR
STARTCHAR uni046A
ENCODING 1130
SWIDTH 747 0
DWIDTH 9 0
BBX 9 9 0 0
BITMAP
04FFFFF500
00C605C000
004D0C5000
000C9D0000
05DFFFD500
0E41F14E00
2E00F10E20
3D00F10E20
3D00F10E20
ENDCHAR
STARTCHAR uni046B
ENCODING 1131
SWIDTH 645 0
DWIDTH 8 0
BBX 7 7 0 0
BITMAP
04FFFF10
00C47900
005BD200
05EFFC30
0E3967A0
2E0962D0
2D0962E0
ENDCHAR
STARTCHAR uni046C
ENCODING 1132
SWIDTH 980 0
DWIDTH 12 0
BBX 10 9 1 0
BITMAP
F107FFFFF2
F101E308A0
F1007A1E20
F1001E9A00
FFFFFFFFC3
F12E34D18C
F15B03D02E
F16B03D02E
F16B03D02E
ENDCHAR
STARTCHAR uni046D
ENCODING 1133
SWIDTH 856 0
DWIDTH 10 0
BBX 10 7 0 0
BITMAP
2D00BFFF90
2D004C1E20
2D000CAA00
2FFFFFFE90
2D06B2E1D3
2D0971E0A6
2D0A61E097
ENDCHAR
STARTCHAR uni046E
ENCODING 1134
SWIDTH 454 0
DWIDTH 5 0
BBX 5 15 0 -3
BITMAP
085C20
01D600
000000
4FE900
001C50
000880
001C40
09FB00
001B60
0006A0
001B70
2DEA10
880000
6A0000
1B1000
ENDCHAR
STARTCHAR uni046F
ENCODING 1135
SWIDTH 423 0
DWIDTH 5 0
BBX 5 13 0 -3
BITMAP
0C4B00
03E200
000000
4FEB10
001C50
09FC00
001C50
000870
001C40
2DE900
890000
6B0000
0A1000
ENDCHAR
STARTCHAR uni0470
ENCODING 1136
SWIDTH 600 0
DWIDTH 7 0
BBX 7 9 0 0
BITMAP
890F1790
890F1790
890F1790
790F1790
5B0F1970
1E5F4E20
04CFD500
000F1000
000F1000
ENDCHAR
STARTCHAR uni0471
ENCODING 1137
SWIDTH 612 0
DWIDTH 7 0
BBX 7 10 0 -3
BITMAP
790E2A60
790E26A0
790E24C0
690E23C0
5C0E26A0
1E5E5D50
03CFD700
000E2000
000E2000
000E2000
ENDCHAR
STARTCHAR uni0472
ENCODING 1138
SWIDTH 593 0
DWIDTH 7 0
BBX 7 9 0 0
BITMAP
02BEB200
0C717C00
3D000D30
5B000A60
6FFFFF60
5B000A50
3E000D30
0C817C00
02BEC200
ENDCHAR
STARTCHAR uni0473
ENCODING 1139
SWIDTH 497 0
DWIDTH 6 0
BBX 6 7 0 0
BITMAP
05DD50
1C22C1
5FFFF5
6A00A7
5C00C5
1E54E1
05DD50
ENDCHAR
STARTCHAR uni0474
ENCODING 1140
SWIDTH 553 0
DWIDTH 7 0
BBX 7 9 0 0
BITMAP
A7001C40
5B005B00
1E009600
0C40D200
0871D000
04B59000
00E95000
00AE1000
006C0000
ENDCHAR
STARTCHAR uni0475
ENCODING 1141
SWIDTH 443 0
DWIDTH 5 0
BBX 6 7 0 0
BITMAP
8802E2
4B0880
0E0C30
0B3D00
079A00
03E600
00E200
ENDCHAR
STARTCHAR uni0476
ENCODING 1142
SWIDTH 553 0
DWIDTH 7 0
BBX 7 10 0 0
BITMAP
2E8A0000
ACBC2C40
5B005B00
1E009600
0C40D200
0871D000
04B59000
00E95000
00AE1000
006C0000
ENDCHAR
STARTCHAR uni0477
ENCODING 1143
SWIDTH 443 0
DWIDTH 5 0
BBX 6 10 0 0
BITMAP
8AD300
0C8900
000000
8802E2
4B0880
0E0C30
0B3D00
079A00
03E600
00E200
ENDCHAR
STARTCHAR uni0478
ENCODING 1144
SWIDTH 1017 0
DWIDTH 12 0
BBX 12 11 0 -2
BITMAP
02BEC3000000
0B815E100000
2E000B57A04C
3C000A72E088
4C000970D3B4
4C00097097E0
2E000B504DA0
0B815E100E60
02BEC3000C20
000000004C00
00000004E400
ENDCHAR
STARTCHAR uni0479
ENCODING 1145
SWIDTH 918 0
DWIDTH 11 0
BBX 11 9 0 -2
BITMAP
05DD509807A0
2E33E25B0A60
5A00A61E1E10
7900970B6C00
5A00A607D800
2E32E202F300
06DD6000E000
00000006A000
0000006D2000
ENDCHAR
STARTCHAR uni047A
ENCODING 1146
SWIDTH 593 0
DWIDTH 7 0
BBX 7 11 0 -1
BITMAP
000A1000
02BFC200
0C787C00
3E000D30
5B000A50
6A000A60
5B000A50
3D000D30
0C686C00
02CFC200
000B1000
ENDCHAR
STARTCHAR uni047B
ENCODING 1147
SWIDTH 498 0
DWIDTH 6 0
BBX 6 9 0 -1
BITMAP
005500
05EE50
1E66E1
5A00B5
690096
5B00A5
1E66E1
05EE50
005500
ENDCHAR
STARTCHAR uni047C
ENCODING 1148
SWIDTH 752 0
DWIDTH 9 0
BBX 9 12 0 0
BITMAP
000AD50000
000B3BA000
0000B20000
05C0A0B600
0E40002E10
2E00000D30
2E00200D40
2E00F10D40
2E00F10D40
2E00F20D30
0E45F63E10
05EC4CE600
ENDCHAR
STARTCHAR uni047D
ENCODING 1149
SWIDTH 654 0
DWIDTH 8 0
BBX 8 10 0 0
BITMAP
003EA200
00756D40
0002B000
09756870
2E1002E1
4B0000D2
4B0760D3
4B0970D2
2E1CB2E1
09E8AE70
ENDCHAR
STARTCHAR uni047E
ENCODING 1150
SWIDTH 754 0
DWIDTH 9 0
BBX 9 12 0 0
BITMAP
007FFFA000
0000E00000
0000000000
2E00F20C40
2E00F20C40
2E00F20C40
2E00F20C40
2E00F20C40
2E00F20C40
2E00F20C40
0E35F62E10
06ED5DE700
ENDCHAR
STARTCHAR uni047F
ENCODING 1151
SWIDTH 650 0
DWIDTH 8 0
BBX 8 10 0 0
BITMAP
01FFFF00
00086000
00000000
4B0970D3
4B0970D3
4B0970D3
4B0970D3
4B0970D2
3D1DA2F1
09E8AE70
ENDCHAR
STARTCHAR uni0480
ENCODING 1152
SWIDTH 570 0
DWIDTH 7 0
BBX 7 11 0 -2
BITMAP
02BEB200
0C717C00
3E000D10
5C000000
5B000000
4C000000
3E000000
0C700000
02CF1000
000F1000
000F1000
ENDCHAR
STARTCHAR uni0481
ENCODING 1153
SWIDTH 472 0
DWIDTH 6 0
BBX 5 9 0 -2
BITMAP
05ED40
1E34D0
5B0040
6A0000
5B0000
1E3000
06E700
008700
008700
ENDCHAR
STARTCHAR uni0482
ENCODING 1154
SWIDTH 547 0
DWIDTH 7 0
BBX 6 8 0 0
BITMAP
000085
00A5C0
002CB0
000C7A
2B7700
04F700
059950
0C2000
ENDCHAR
STARTCHAR uni0483
ENCODING 1155
SWIDTH 0 0
DWIDTH 0 0
BBX 5 3 -5 7
BITMAP
000810
8FFF10
640000
ENDCHAR
STARTCHAR uni0484
ENCODING 1156
SWIDTH 0 0
DWIDTH 0 0
BBX 5 2 -5 8
BITMAP
03BD20
6D5750
ENDCHAR
STARTCHAR uni0485
ENCODING 1157
SWIDTH 0 0
DWIDTH 0 0
BBX 2 2 -4 8
BITMAP
3C
09
ENDCHAR
STARTCHAR uni0486
ENCODING 1158
SWIDTH 0 0
DWIDTH 0 0
BBX 2 2 -3 8
BITMAP
96
81
ENDCHAR
STARTCHAR uni0488
ENCODING 1160
SWIDTH 0 0
DWIDTH 0 0
BBX 12 12 -9 -3
BITMAP
00002D800000
000043700000
06E400008D20
062500007340
000000000000
6E30000007E2
625000000735
000000000000
06E300009D10
062500007430
00001D900000
000033700000
ENDCHAR
STARTCHAR uni0489
ENCODING 1161
SWIDTH 0 0
DWIDTH 0 0
BBX 12 11 -9 -2
BITMAP
000006400000
00000B100000
008001017800
009300015000
001000000000
7B3000000B81
011000000031
000000002000
00330000C100
04A30A204500
00000A000000
ENDCHAR
STARTCHAR uni048A
ENCODING 1162
SWIDTH 666 0
DWIDTH 8 0
BBX 7 14 1 -2
BITMAP
0A55A000
03DD3000
00000000
F100D700
F105F700
F10CC700
F15A9700
F1C39700
F5B09700
FC409700
FB009920
F4009E80
00000A60
00000B10
ENDCHAR
STARTCHAR uni048B
ENCODING 1163
SWIDTH 550 0
DWIDTH 7 0
BBX 7 12 0 -2
BITMAP
05A1E000
00BE7000
00000000
2E01E400
2E07F400
2E0CC400
2E67C400
2EC1C400
2F90C710
2F20CE50
00000D30
00002A00
ENDCHAR
STARTCHAR uni048C
ENCODING 1164
SWIDTH 551 0
DWIDTH 7 0
BBX 8 9 -1 0
BITMAP
02F00000
3FFF0000
02F00000
02F00000
02FFFD40
02F005E0
02F000F1
02F005E0
02FFFD40
ENDCHAR
STARTCHAR uni048D
ENCODING 1165
SWIDTH 477 0
DWIDTH 6 0
BBX 7 11 -1 0
BITMAP
00200000
02D00000
1FFF7000
02D00000
02D00000
02D00000
02FFE600
02D03F10
02D00E20
02D02E10
02FFE600
ENDCHAR
STARTCHAR uni048E
ENCODING 1166
SWIDTH 557 0
DWIDTH 7 0
BBX 7 9 0 0
BITMAP
1FFFD400
1F005E00
1F002E20
1F00DE10
1FFFDD10
1F000410
1F000000
1F000000
1F000000
ENDCHAR
STARTCHAR uni048F
ENCODING 1167
SWIDTH 496 0
DWIDTH 6 0
BBX 6 9 0 -2
BITMAP
3CCE60
3E34E1
3C00C4
3C00A5
3C04C4
3E3AE1
3DCED3
3C0020
3C0000
ENDCHAR
STARTCHAR uni0490
ENCODING 1168
SWIDTH 479 0
DWIDTH 6 0
BBX 6 11 0 0
BITMAP
0000A5
0000B5
2FFFF5
2E0000
2E0000
2E0000
2E0000
2E0000
2E0000
2E0000
2E0000
ENDCHAR
STARTCHAR uni0491
ENCODING 1169
SWIDTH 395 0
DWIDTH 5 0
BBX 5 9 0 0
BITMAP
000A30
000C40
3FFF40
3D0000
3D0000
3D0000
3D0000
3D0000
3D0000
ENDCHAR
STARTCHAR uni0492
ENCODING 1170
SWIDTH 487 0
DWIDTH 6 0
BBX 6 9 0 0
BITMAP
0FFFF6
0F1000
0F1000
0F1000
EFF400
0F1000
0F1000
0F1000
0F1000
ENDCHAR
STARTCHAR uni0493
ENCODING 1171
SWIDTH 371 0
DWIDTH 4 0
BBX 5 7 0 0
BITMAP
2FFF40
2E0000
2E0000
EFF400
2E0000
2E0000
2E0000
ENDCHAR
STARTCHAR uni0494
ENCODING 1172
SWIDTH 539 0
DWIDTH 6 0
BBX 5 11 1 -2
BITMAP
FFFF60
F10000
F10000
F10000
FFD700
F12C50
F105B0
F103C0
F104B0
000A80
007B10
ENDCHAR
STARTCHAR uni0495
ENCODING 1173
SWIDTH 443 0
DWIDTH 5 0
BBX 5 9 0 -2
BITMAP
3FFF30
3D0000
3D0000
3FEA10
3D1A80
3D03C0
3D03C0
000A70
003B10
ENDCHAR
STARTCHAR uni0496
ENCODING 1174
SWIDTH 833 0
DWIDTH 10 0
BBX 10 11 0 -2
BITMAP
4E00B505D0
0C60B50C60
04C0B54D00
00C4B5A600
008FFFF200
01E4B5A800
07C0B53E10
1E50B50B80
7C00B504FD
000000004C
000000004C
ENDCHAR
STARTCHAR uni0497
ENCODING 1175
SWIDTH 696 0
DWIDTH 8 0
BBX 9 9 0 -2
BITMAP
6C0870D500
0D4875C000
06A87B5000
01FFFF1000
08987B6000
1E3874E100
8B0870CF10
0000000F10
0000000F10
ENDCHAR
STARTCHAR uni0498
ENCODING 1176
SWIDTH 517 0
DWIDTH 6 0
BBX 6 11 0 -2
BITMAP
06EE90
3E22D5
240088
0001C5
00AFB0
0001B7
45006A
4D21B7
07FF90
007900
007900
ENDCHAR
STARTCHAR uni0499
ENCODING 1177
SWIDTH 446 0
DWIDTH 5 0
BBX 5 9 0 -2
BITMAP
09ED40
4C1990
03FF20
000880
1104B0
5C1990
0AFF20
00D300
00D300
ENDCHAR
STARTCHAR uni049A
ENCODING 1178
SWIDTH 617 0
DWIDTH 7 0
BBX 6 11 1 -2
BITMAP
F103E2
F11D60
F18B00
F7E200
FAE100
F1A900
F12E30
F108B0
F101FF
00003D
00003D
ENDCHAR
STARTCHAR uni049B
ENCODING 1179
SWIDTH 524 0
DWIDTH 6 0
BBX 6 9 0 -2
BITMAP
2E02E2
2E0B70
2E4C00
2FF700
2E3E10
2E0990
2E01FF
00002E
00002E
ENDCHAR
STARTCHAR uni049C
ENCODING 1180
SWIDTH 553 0
DWIDTH 7 0
BBX 7 9 0 0
BITMAP
2F002F10
2F008900
2F42D200
2F97B000
2FFF7000
2F97D000
2F41D600
2F007C00
2F001F40
ENDCHAR
STARTCHAR uni049D
ENCODING 1181
SWIDTH 498 0
DWIDTH 6 0
BBX 6 7 0 0
BITMAP
2E00B7
2E32E1
2EAA70
2FFF30
2EA9A0
2E11E2
2E009A
ENDCHAR
STARTCHAR uni049E
ENCODING 1182
SWIDTH 570 0
DWIDTH 7 0
BBX 7 9 0 0
BITMAP
0E202E40
EFF4A900
0E24E100
0E3D6000
0EFE1000
0E2B8000
0E22E300
0E207C00
0E200D70
ENDCHAR
STARTCHAR uni049F
ENCODING 1183
SWIDTH 462 0
DWIDTH 6 0
BBX 7 9 -1 0
BITMAP
01F00000
5FFD0000
01F04D00
01F0B600
01F3D000
01FF8000
01F2E100
01F09900
01F01E30
ENDCHAR
STARTCHAR uni04A0
ENCODING 1184
SWIDTH 710 0
DWIDTH 9 0
BBX 9 9 0 0
BITMAP
9FFC006D00
004C01E400
004C09A000
004C3E2000
004FFA0000
004C2E3000
004C07C000
004C00C700
004C003E20
ENDCHAR
STARTCHAR uni04A1
ENCODING 1185
SWIDTH 607 0
DWIDTH 7 0
BBX 7 7 0 0
BITMAP
8FF808B0
00882E20
0088A700
008FF100
00889900
00881E40
008807D0
ENDCHAR
STARTCHAR uni04A2
ENCODING 1186
SWIDTH 662 0
DWIDTH 8 0
BBX 8 11 0 -2
BITMAP
1F000980
1F000980
1F000980
1F000980
1FFFFF80
1F000980
1F000980
1F000980
1F0009F6
000000A6
000000A6
ENDCHAR
STARTCHAR uni04A3
ENCODING 1187
SWIDTH 541 0
DWIDTH 7 0
BBX 7 9 0 -2
BITMAP
2E00C400
2E00C400
2E00C400
2FFFF400
2E00C400
2E00C400
2E00CF20
00000E20
00000E20
ENDCHAR
STARTCHAR uni04A4
ENCODING 1188
SWIDTH 829 0
DWIDTH 10 0
BBX 10 9 0 0
BITMAP
1F0009FFF7
1F00098000
1F00098000
1F00098000
1FFFFF8000
1F00098000
1F00098000
1F00098000
1F00098000
ENDCHAR
STARTCHAR uni04A5
ENCODING 1189
SWIDTH 614 0
DWIDTH 7 0
BBX 7 7 0 0
BITMAP
3D00DFD0
3D00D200
3D00D200
3FFFF200
3D00D200
3D00D200
3D00D200
ENDCHAR
STARTCHAR uni04A6
ENCODING 1190
SWIDTH 880 0
DWIDTH 11 0
BBX 9 11 1 -2
BITMAP
FFFFF70000
F100970000
F100970000
F100970000
F1009FE800
F100972B70
F1009704C0
F1009702E0
F1009703D0
0000000890
0000006B10
ENDCHAR
STARTCHAR uni04A7
ENCODING 1191
SWIDTH 755 0
DWIDTH 9 0
BBX 9 9 0 -2
BITMAP
3FFFF30000
3D00D30000
3D00D30000
3D00DFD700
3D00D32D40
3D00D30780
3D00D30780
0000001D40
0000006800
ENDCHAR
STARTCHAR uni04A8
ENCODING 1192
SWIDTH 641 0
DWIDTH 8 0
BBX 8 9 0 0
BITMAP
04C1CD40
0D4985C0
3D0C30F1
5B0E20E2
5B0E20E3
4C0D30F2
1E1962D0
0AA3CA60
01AEFFF4
ENDCHAR
STARTCHAR uni04A9
ENCODING 1193
SWIDTH 528 0
DWIDTH 6 0
BBX 6 7 0 0
BITMAP
086BD2
2D5C88
5B695A
5A695B
3C4B69
0D5BB5
04DFFF
ENDCHAR
STARTCHAR uni04AA
ENCODING 1194
SWIDTH 566 0
DWIDTH 7 0
BBX 7 11 0 -2
BITMAP
02BEC300
0B815D00
2E000C30
4D000000
4C000000
4D000000
2E000C20
0B715D00
02CFC300
001F0000
001F0000
ENDCHAR
STARTCHAR uni04AB
ENCODING 1195
SWIDTH 461 0
DWIDTH 6 0
BBX 6 9 0 -2
BITMAP
07ED50
2E23E0
6A0061
790000
6A0030
2E23E0
07FF40
00C400
00C400
ENDCHAR
STARTCHAR uni04AC
ENCODING 1196
SWIDTH 520 0
DWIDTH 6 0
BBX 6 11 0 -2
BITMAP
AFFFFE
006A00
006A00
006A00
006A00
006A00
006A00
006A00
006F80
000880
000880
ENDCHAR
STARTCHAR uni04AD
ENCODING 1197
SWIDTH 424 0
DWIDTH 5 0
BBX 5 9 0 -2
BITMAP
AFFFC0
00F100
00F100
00F100
00F100
00F100
00FF00
001E00
001E00
ENDCHAR
STARTCHAR uni04AE
ENCODING 1198
SWIDTH 524 0
DWIDTH 6 0
BBX 6 9 0 0
BITMAP
99005D
3E00A7
0B51E1
05B790
00DD20
007B00
006A00
006A00
006A00
ENDCHAR
STARTCHAR uni04AF
ENCODING 1199
SWIDTH 444 0
DWIDTH 5 0
BBX 5 9 0 -2
BITMAP
8802D0
3C0690
0D2A40
096E10
04DA00
00E600
00C300
00C300
00C300
ENDCHAR
STARTCHAR uni04B0
ENCODING 1200
SWIDTH 524 0
DWIDTH 6 0
BBX 6 9 0 0
BITMAP
99005D
3E00A7
0C51E1
06B7A0
00EE30
06FFB0
006A00
006A00
006A00
ENDCHAR
STARTCHAR uni04B1
ENCODING 1201
SWIDTH 444 0
DWIDTH 5 0
BBX 5 9 0 -2
BITMAP
8802E0
3C0690
0E1A50
0A5D10
06CC00
01F800
0DFF50
00C300
00C300
ENDCHAR
STARTCHAR uni04B2
ENCODING 1202
SWIDTH 559 0
DWIDTH 7 0
BBX 7 11 0 -2
BITMAP
4E005E10
0C60C700
05D4E100
00CE7000
007F1000
00DD7000
05C3E100
0D60B700
5D004F80
00000970
00000970
ENDCHAR
STARTCHAR uni04B3
ENCODING 1203
SWIDTH 465 0
DWIDTH 6 0
BBX 6 9 0 -2
BITMAP
6B08A0
0D3E20
06DA00
01F400
07DA00
1E2D30
7B07F4
0000C4
0000C4
ENDCHAR
STARTCHAR uni04B4
ENCODING 1204
SWIDTH 781 0
DWIDTH 9 0
BBX 9 11 0 -2
BITMAP
9FFFF26B00
00C4006B00
00C4006B00
00C4006B00
00C4006B00
00C4006B00
00C4006B00
00C4006B00
00CFFFFF70
0000000960
0000000960
ENDCHAR
STARTCHAR uni04B5
ENCODING 1205
SWIDTH 587 0
DWIDTH 7 0
BBX 7 9 0 -2
BITMAP
BFFC1E00
06901E00
06901E00
06901E00
06901E00
06901E00
06FFFF90
00000680
00000680
ENDCHAR
STARTCHAR uni04B6
ENCODING 1206
SWIDTH 638 0
DWIDTH 8 0
BBX 8 11 0 -2
BITMAP
3D000D40
3D000D40
3D000D40
2E000D40
0E403D40
04DFDE40
00000D40
00000D40
00000DF2
000000E2
000000E2
ENDCHAR
STARTCHAR uni04B7
ENCODING 1207
SWIDTH 512 0
DWIDTH 6 0
BBX 6 9 0 -2
BITMAP
6A02D0
6A02D0
5A02D0
3D14D0
08EED0
0002D0
0002FC
00004C
00004C
ENDCHAR
STARTCHAR uni04B8
ENCODING 1208
SWIDTH 595 0
DWIDTH 7 0
BBX 7 9 0 0
BITMAP
3D000D40
3D000D40
3D000D40
2E081D40
0E3B3D40
05EFDE40
000B1D40
00040D40
00000D40
ENDCHAR
STARTCHAR uni04B9
ENCODING 1209
SWIDTH 483 0
DWIDTH 6 0
BBX 5 7 0 0
BITMAP
4C00F0
4C00F0
4C53F0
1E96F0
07EEF0
0064F0
0000F0
ENDCHAR
STARTCHAR uni04BA
ENCODING 1210
SWIDTH 595 0
DWIDTH 7 0
BBX 7 9 0 0
BITMAP
4C000000
4C000000
4C000000
4EDFD400
4D305D00
4C000E10
4C000E20
4C000E20
4C000E20
ENDCHAR
STARTCHAR uni04BB
ENCODING 1211
SWIDTH 482 0
DWIDTH 6 0
BBX 5 9 0 0
BITMAP
3C0000
3C0000
3DBE60
3F34E0
3C00F0
3C00F0
3C00F0
3C00F0
3C00F0
ENDCHAR
STARTCHAR uni04BC
ENCODING 1212
SWIDTH 674 0
DWIDTH 8 0
BBX 8 9 0 0
BITMAP
0008ED30
006C15D0
32B500C3
6AE300A5
0AFFFFF6
00E20000
00C50000
006C2140
0007DEA0
ENDCHAR
STARTCHAR uni04BD
ENCODING 1213
SWIDTH 518 0
DWIDTH 6 0
BBX 6 7 0 0
BITMAP
00AE90
37A1B5
DC4069
6FFFFA
0C3000
08A165
01AEC2
ENDCHAR
STARTCHAR uni04BE
ENCODING 1214
SWIDTH 674 0
DWIDTH 8 0
BBX 8 11 0 -2
BITMAP
0008ED30
006C15D0
32B500C3
6AE300A5
0AFFFFF6
00E20000
00C50000
006C2140
0007FFA0
00008700
00008700
ENDCHAR
STARTCHAR uni04BF
ENCODING 1215
SWIDTH 518 0
DWIDTH 6 0
BBX 6 9 0 -2
BITMAP
00AE90
37A1B5
DC4069
6FFFFA
0C3000
08A165
01AFE2
000D20
000D20
ENDCHAR
STARTCHAR uni04C0
ENCODING 1216
SWIDTH 250 0
DWIDTH 3 0
BBX 2 9 1 0
BITMAP
F1
F1
F1
F1
F1
F1
F1
F1
F1
ENDCHAR
STARTCHAR uni04C1
ENCODING 1217
SWIDTH 791 0
DWIDTH 10 0
BBX 10 12 0 0
BITMAP
000D287000
0006EC1000
0000000000
4E00B505D0
0C60B50C60
04C0B54D00
00C4B5A600
008FFFF200
01E4B5A800
07C0B53E10
1E50B50B80
7C00B504F1
ENDCHAR
STARTCHAR uni04C2
ENCODING 1218
SWIDTH 662 0
DWIDTH 8 0
BBX 8 10 0 0
BITMAP
00B45A00
004DD300
00000000
6C0870D5
0D4875C0
06A87B50
01FFFF10
08987B60
1E3874E1
8B0870C7
ENDCHAR
STARTCHAR uni04C3
ENCODING 1219
SWIDTH 553 0
DWIDTH 7 0
BBX 7 11 0 -2
BITMAP
2F004D10
2F01D500
2F08A000
2F2E1000
2FFFA100
2F019B00
2F001F10
2F000E30
2F000E20
00005D00
0003D300
ENDCHAR
STARTCHAR uni04C4
ENCODING 1220
SWIDTH 481 0
DWIDTH 6 0
BBX 6 9 0 -2
BITMAP
2E05C1
2E4C10
2FFD30
2E05D0
2E00D3
2E00B4
2E00C3
0005D0
000930
ENDCHAR
STARTCHAR uni04C5
ENCODING 1221
SWIDTH 662 0
DWIDTH 8 0
BBX 8 11 0 -2
BITMAP
02FFFF60
02E00A60
03D00A60
03D00A60
04C00A60
04B00A60
06A00A60
1B600A82
9B100AE8
000000A5
000000B0
ENDCHAR
STARTCHAR uni04C6
ENCODING 1222
SWIDTH 551 0
DWIDTH 7 0
BBX 7 9 0 -2
BITMAP
07FFF400
0880C400
0870C400
0960C400
0A50C400
1D30C710
A900CE50
00000D30
00002A00
ENDCHAR
STARTCHAR uni04C7
ENCODING 1223
SWIDTH 620 0
DWIDTH 7 0
BBX 6 11 1 -2
BITMAP
F10097
F10097
F10097
F10097
FFFFF7
F10097
F10097
F10097
F10097
0000B6
000BC1
ENDCHAR
STARTCHAR uni04C8
ENCODING 1224
SWIDTH 498 0
DWIDTH 6 0
BBX 6 9 0 -2
BITMAP
3D00D2
3D00D2
3D00D2
3FFFF2
3D00D2
3D00D2
3D00D2
0001E1
000E90
ENDCHAR
STARTCHAR uni04C9
ENCODING 1225
SWIDTH 671 0
DWIDTH 8 0
BBX 8 11 0 -2
BITMAP
1F000980
1F000980
1F000980
1F000980
1FFFFF80
1F000980
1F000980
1F000993
1F0009E9
00000097
000000B1
ENDCHAR
STARTCHAR uni04CA
ENCODING 1226
SWIDTH 550 0
DWIDTH 7 0
BBX 7 9 0 -2
BITMAP
2E00C400
2E00C400
2E00C400
2FFFF400
2E00C400
2E00C710
2E00CE50
00000D30
00002A00
ENDCHAR
STARTCHAR uni04CB
ENCODING 1227
SWIDTH 600 0
DWIDTH 7 0
BBX 7 11 0 -2
BITMAP
3D000D40
3D000D40
3D000D40
2E000D40
0E403D40
04DFDE40
00000D40
00000D40
0000BF40
0000B400
0000B400
ENDCHAR
STARTCHAR uni04CC
ENCODING 1228
SWIDTH 479 0
DWIDTH 6 0
BBX 5 9 0 -2
BITMAP
6A02D0
6A02D0
5A02D0
3D14D0
08EED0
0002D0
001FD0
001F00
001F00
ENDCHAR
STARTCHAR uni04CD
ENCODING 1229
SWIDTH 801 0
DWIDTH 10 0
BBX 10 11 0 -2
BITMAP
1F70006F20
1FB000BF20
1EE101ED20
1EA505AD20
1F5A096E20
1F1E0D1E20
1F0A7B0E20
1F06E60E61
1F01F20EF2
00000001E1
0000000480
ENDCHAR
STARTCHAR uni04CE
ENCODING 1230
SWIDTH 687 0
DWIDTH 8 0
BBX 8 9 0 -2
BITMAP
2F5009D0
2FA00DD0
2ED03DD0
2E9488D0
2E49C4D0
2E0DB2D4
2E0A62EF
0000003D
00000065
ENDCHAR
STARTCHAR uni04CF
ENCODING 1231
SWIDTH 250 0
DWIDTH 3 0
BBX 2 9 1 0
BITMAP
F1
F1
F1
F1
F1
F1
F1
F1
F1
ENDCHAR
STARTCHAR uni04D0
ENCODING 1232
SWIDTH 576 0
DWIDTH 7 0
BBX 7 12 0 0
BITMAP
03C1C200
009E9000
00000000
002F1000
007E6000
00C8A000
01E1E000
06A0C400
0A608900
0EFFFE00
4D000E30
98000980
ENDCHAR
STARTCHAR uni04D1
ENCODING 1233
SWIDTH 479 0
DWIDTH 6 0
BBX 6 10 0 0
BITMAP
0A55A0
03DD30
000000
05ED40
1E25C0
0202E0
07EFE0
3D22E0
4D16E0
0BE9F1
ENDCHAR
STARTCHAR uni04D2
ENCODING 1234
SWIDTH 576 0
DWIDTH 7 0
BBX 7 12 0 0
BITMAP
00202000
04B0B400
00000000
002F1000
007E6000
00C8A000
01E1E000
06A0C400
0A608900
0EFFFE00
4D000E30
98000980
ENDCHAR
STARTCHAR uni04D3
ENCODING 1235
SWIDTH 479 0
DWIDTH 6 0
BBX 6 10 0 0
BITMAP
020020
0B44B0
000000
05ED40
1E25C0
0202E0
07EFE0
3D22E0
4D16E0
0BE9F1
ENDCHAR
STARTCHAR uni04D4
ENCODING 1236
SWIDTH 812 0
DWIDTH 10 0
BBX 10 9 0 0
BITMAP
0000EFFFF3
0006DC0000
000D6C0000
006C3D0000
00D52FFFC0
05E02E0000
0CFFFE0000
4E101F0000
C7000FFFF7
ENDCHAR
STARTCHAR uni04D5
ENCODING 1237
SWIDTH 728 0
DWIDTH 9 0
BBX 9 7 0 0
BITMAP
08EC4DE500
4D18F52E10
1204D00C30
1AEFFFFF40
6B14D00000
7B18F51500
1CE93DEA10
ENDCHAR
STARTCHAR uni04D6
ENCODING 1238
SWIDTH 496 0
DWIDTH 6 0
BBX 6 12 0 0
BITMAP
0872D0
02CE50
000000
1FFFF7
1F0000
1F0000
1F0000
1FFFF0
1F0000
1F0000
1F0000
1FFFF8
ENDCHAR
STARTCHAR uni04D7
ENCODING 1239
SWIDTH 468 0
DWIDTH 6 0
BBX 6 10 0 0
BITMAP
0C3690
04ED20
000000
06ED40
2E24D0
5A00E1
6FFFF2
5A0000
2E2170
06EE80
ENDCHAR
STARTCHAR uni04D8
ENCODING 1240
SWIDTH 597 0
DWIDTH 7 0
BBX 7 9 0 0
BITMAP
07DEA200
03218B00
00000D30
00000A60
7FFFFF70
69000A60
4B000D30
0D518C00
03CFB100
ENDCHAR
STARTCHAR uni04D9
ENCODING 1241
SWIDTH 465 0
DWIDTH 6 0
BBX 6 7 0 0
BITMAP
1AEB20
0517A0
0000E0
6FFFF1
5A01F0
2E28A0
07EC20
ENDCHAR
STARTCHAR uni04DA
ENCODING 1242
SWIDTH 597 0
DWIDTH 7 0
BBX 7 12 0 0
BITMAP
01102000
0971D000
00000000
07DEA200
03218B00
00000D30
00000A60
7FFFFF70
69000A60
4B000D30
0D518C00
03CFB100
ENDCHAR
STARTCHAR uni04DB
ENCODING 1243
SWIDTH 465 0
DWIDTH 6 0
BBX 6 10 0 0
BITMAP
020110
0D2690
000000
1AEB20
0517A0
0000E0
6FFFF1
5A01F0
2E28A0
07EC20
ENDCHAR
STARTCHAR uni04DC
ENCODING 1244
SWIDTH 791 0
DWIDTH 10 0
BBX 10 12 0 0
BITMAP
0002011000
001E178000
0000000000
4E00B505D0
0C60B50C60
04C0B54D00
00C4B5A600
008FFFF200
01E4B5A800
07C0B53E10
1E50B50B80
7C00B504F1
ENDCHAR
STARTCHAR uni04DD
ENCODING 1245
SWIDTH 662 0
DWIDTH 8 0
BBX 8 10 0 0
BITMAP
00200200
00C44B00
00000000
6C0870D5
0D4875C0
06A87B50
01FFFF10
08987B60
1E3874E1
8B0870C7
ENDCHAR
STARTCHAR uni04DE
ENCODING 1246
SWIDTH 517 0
DWIDTH 6 0
BBX 6 12 0 0
BITMAP
010020
0A53D0
000000
06EE90
3E22D5
240088
0001C5
00AFB0
0001B7
45006A
4D21B7
07EE90
ENDCHAR
STARTCHAR uni04DF
ENCODING 1247
SWIDTH 446 0
DWIDTH 5 0
BBX 5 10 0 0
BITMAP
020110
2D0970
000000
09ED40
4C1990
03FF20
000880
1104B0
5C1990
0AEC20
ENDCHAR
STARTCHAR uni04E0
ENCODING 1248
SWIDTH 510 0
DWIDTH 6 0
BBX 6 9 0 0
BITMAP
2FFFF2
0006B0
001D20
009700
00EE70
0002E3
3600A6
3E22E3
06EE70
ENDCHAR
STARTCHAR uni04E1
ENCODING 1249
SWIDTH 510 0
DWIDTH 6 0
BBX 6 9 0 -2
BITMAP
2FFFF2
0007A0
002E20
00A700
00ED70
0002D3
3600A5
3E22D3
07EE70
ENDCHAR
STARTCHAR uni04E2
ENCODING 1250
SWIDTH 619 0
DWIDTH 7 0
BBX 6 11 1 0
BITMAP
0EFF70
000000
F100D7
F105F7
F10CC7
F15A97
F1C397
F5B097
FC4097
FB0097
F40097
ENDCHAR
STARTCHAR uni04E3
ENCODING 1251
SWIDTH 509 0
DWIDTH 6 0
BBX 6 9 0 0
BITMAP
09FFC0
000000
2E01E4
2E07F4
2E0CC4
2E67C4
2EC1C4
2F90C4
2F20C4
ENDCHAR
STARTCHAR uni04E4
ENCODING 1252
SWIDTH 619 0
DWIDTH 7 0
BBX 6 12 1 0
BITMAP
020110
1E1880
000000
F100D7
F105F7
F10CC7
F15A97
F1C397
F5B097
FC4097
FB0097
F40097
ENDCHAR
STARTCHAR uni04E5
ENCODING 1253
SWIDTH 509 0
DWIDTH 6 0
BBX 6 10 0 0
BITMAP
020020
0A53C0
000000
2E01E4
2E07F4
2E0CC4
2E67C4
2EC1C4
2F90C4
2F20C4
ENDCHAR
STARTCHAR uni04E6
ENCODING 1254
SWIDTH 600 0
DWIDTH 7 0
BBX 7 12 0 0
BITMAP
00201100
02D09600
00000000
02BEC300
0B815E10
2E000B50
3C000A70
4C000970
4C000970
2E000B50
0B815E10
02BEC300
ENDCHAR
STARTCHAR uni04E7
ENCODING 1255
SWIDTH 501 0
DWIDTH 6 0
BBX 6 10 0 0
BITMAP
020020
0C35B0
000000
05DD50
2E33E2
5A00A6
790097
5A00A6
2E32E2
06DD60
ENDCHAR
STARTCHAR uni04E8
ENCODING 1256
SWIDTH 593 0
DWIDTH 7 0
BBX 7 9 0 0
BITMAP
02BEB200
0C717C00
3D000D30
5B000A60
6FFFFF60
5B000A50
3E000D30
0C817C00
02BEC200
ENDCHAR
STARTCHAR uni04E9
ENCODING 1257
SWIDTH 497 0
DWIDTH 6 0
BBX 6 7 0 0
BITMAP
05DD50
1C22C1
5FFFF5
6A00A7
5C00C5
1E54E1
05DD50
ENDCHAR
STARTCHAR uni04EA
ENCODING 1258
SWIDTH 593 0
DWIDTH 7 0
BBX 7 12 0 0
BITMAP
00201100
02D09600
00000000
02BEB200
0C717C00
3D000D30
5B000A60
6FFFFF60
5B000A50
3E000D30
0C817C00
02BEC200
ENDCHAR
STARTCHAR uni04EB
ENCODING 1259
SWIDTH 497 0
DWIDTH 6 0
BBX 6 10 0 0
BITMAP
020110
0D26A0
000000
05DD50
1C22C1
5FFFF5
6A00A7
5C00C5
1E54E1
05DD50
ENDCHAR
STARTCHAR uni04EC
ENCODING 1260
SWIDTH 589 0
DWIDTH 7 0
BBX 7 12 0 0
BITMAP
00202000
04C0B500
00000000
02BEC200
0B717C00
1E100D30
00000A50
006FFF70
00000A60
1D100D40
0B716D00
02BEC200
ENDCHAR
STARTCHAR uni04ED
ENCODING 1261
SWIDTH 472 0
DWIDTH 6 0
BBX 5 10 0 0
BITMAP
020110
0D1790
000000
1AEB10
361590
00DFE0
0001F0
2403E0
3D1AA0
08EC10
ENDCHAR
STARTCHAR uni04EE
ENCODING 1262
SWIDTH 547 0
DWIDTH 7 0
BBX 7 11 0 0
BITMAP
06FFF000
00000000
4D004E10
0E308A00
0890D500
03D3E100
00DBA000
007F5000
003E1000
007A0000
08D20000
ENDCHAR
STARTCHAR uni04EF
ENCODING 1263
SWIDTH 416 0
DWIDTH 5 0
BBX 5 11 0 -2
BITMAP
1FFF50
000000
A70790
5B0B50
1E0E10
0C6C00
07D700
03F300
00D000
069000
7D2000
ENDCHAR
STARTCHAR uni04F0
ENCODING 1264
SWIDTH 547 0
DWIDTH 7 0
BBX 7 12 0 0
BITMAP
01102000
0780D200
00000000
4D004E10
0E308A00
0890D500
03D3E100
00DBA000
007F5000
003E1000
007A0000
08D20000
ENDCHAR
STARTCHAR uni04F1
ENCODING 1265
SWIDTH 416 0
DWIDTH 5 0
BBX 5 12 0 -2
BITMAP
020110
3D0A60
000000
A70790
5B0B50
1E0E10
0C6C00
07D700
03F300
00D000
069000
7D2000
ENDCHAR
STARTCHAR uni04F2
ENCODING 1266
SWIDTH 547 0
DWIDTH 7 0
BBX 7 12 0 0
BITMAP
007AC500
00A6A000
00000000
4D004E10
0E308A00
0890D500
03D3E100
00DBA000
007F5000
003E1000
007A0000
08D20000
ENDCHAR
STARTCHAR uni04F3
ENCODING 1267
SWIDTH 416 0
DWIDTH 5 0
BBX 5 12 0 -2
BITMAP
02D8A0
067C10
000000
A70790
5B0B50
1E0E10
0C6C00
07D700
03F300
00D000
069000
7D2000
ENDCHAR
STARTCHAR uni04F4
ENCODING 1268
SWIDTH 600 0
DWIDTH 7 0
BBX 7 12 0 0
BITMAP
00202000
04B0B400
00000000
3D000D40
3D000D40
3D000D40
2E000D40
0E403D40
04DFDE40
00000D40
00000D40
00000D40
ENDCHAR
STARTCHAR uni04F5
ENCODING 1269
SWIDTH 479 0
DWIDTH 6 0
BBX 5 10 0 0
BITMAP
020110
1E0870
000000
6A02D0
6A02D0
5A02D0
3D14D0
08EED0
0002D0
0002D0
ENDCHAR
STARTCHAR uni04F6
ENCODING 1270
SWIDTH 487 0
DWIDTH 6 0
BBX 5 11 1 -2
BITMAP
FFFF60
F10000
F10000
F10000
F10000
F10000
F10000
F10000
FF0000
2E0000
2E0000
ENDCHAR
STARTCHAR uni04F7
ENCODING 1271
SWIDTH 371 0
DWIDTH 4 0
BBX 5 9 0 -2
BITMAP
2FFF40
2E0000
2E0000
2E0000
2E0000
2E0000
2FC000
04C000
04C000
ENDCHAR
STARTCHAR uni04F8
ENCODING 1272
SWIDTH 755 0
DWIDTH 9 0
BBX 8 12 1 0
BITMAP
00202000
04B0B400
00000000
F10000F1
F10000F1
F10000F1
F10000F1
FFFD50F1
F104E1F1
F100D3F1
F104E1F1
FFFD50F1
ENDCHAR
STARTCHAR uni04F9
ENCODING 1273
SWIDTH 679 0
DWIDTH 8 0
BBX 8 10 0 0
BITMAP
00200200
00B44B00
00000000
2E0000E2
2E0000E2
2FFE60E2
2E02E1E2
2E00D2E2
2E02E1E2
2FFE60E2
ENDCHAR
STARTCHAR uni04FA
ENCODING 1274
SWIDTH 520 0
DWIDTH 6 0
BBX 6 11 0 -2
BITMAP
09FFFC
097000
097000
097000
8FFA00
097000
097000
097000
09F500
00C500
0BC100
ENDCHAR
STARTCHAR uni04FB
ENCODING 1275
SWIDTH 410 0
DWIDTH 5 0
BBX 5 9 0 -2
BITMAP
0AFFB0
0A6000
0A6000
8FFA00
0A6000
0A6000
0AF400
01D400
0CB000
ENDCHAR
STARTCHAR uni04FC
ENCODING 1276
SWIDTH 570 0
DWIDTH 7 0
BBX 7 11 0 -2
BITMAP
4E005E10
0C60C700
05D4E100
00CE7000
007F1000
00DD7000
05C3E100
0D60B700
5D004FA0
00000880
00008D30
ENDCHAR
STARTCHAR uni04FD
ENCODING 1277
SWIDTH 476 0
DWIDTH 6 0
BBX 6 9 0 -2
BITMAP
6B08A0
0D3E20
06DA00
01F400
07DA00
1E2D30
7B07F6
0000B5
000BC1
ENDCHAR
STARTCHAR uni04FE
ENCODING 1278
SWIDTH 550 0
DWIDTH 7 0
BBX 7 9 0 0
BITMAP
5E005E10
0C60C700
05D4E100
00CE7000
04FFE000
00CD6000
04C3D100
0C60B700
5D004E10
ENDCHAR
STARTCHAR uni04FF
ENCODING 1279
SWIDTH 438 0
DWIDTH 5 0
BBX 5 7 0 0
BITMAP
6B08A0
0D3E30
07DA00
0EFF40
06DA00
0D2D20
6B07A0
ENDCHAR
STARTCHAR uni0500
ENCODING 1280
SWIDTH 555 0
DWIDTH 7 0
BBX 6 9 0 0
BITMAP
00004C
00004C
00004C
00004C
08EFFC
4D204C
6A004C
3E204C
07EFFC
ENDCHAR
STARTCHAR uni0501
ENCODING 1281
SWIDTH 496 0
DWIDTH 6 0
BBX 6 9 0 0
BITMAP
0000E2
0000E2
08EBE2
2E24F2
6A00E2
7900E2
6A00E2
2E24F2
08EBD2
ENDCHAR
STARTCHAR uni0502
ENCODING 1282
SWIDTH 723 0
DWIDTH 9 0
BBX 9 9 0 0
BITMAP
00004C0000
00004C0000
00004C0000
00004C0000
07EFFC0710
3E204C0C40
6B004C0B50
3E204C2E20
07EFFFE700
ENDCHAR
STARTCHAR uni0503
ENCODING 1283
SWIDTH 743 0
DWIDTH 9 0
BBX 9 9 0 0
BITMAP
0000F10000
0000F10000
06EBF10000
1E34F10A00
4B00F10D20
6A00F10C40
5B00F10D20
2E24F45D00
07EB6ED300
ENDCHAR
STARTCHAR uni0504
ENCODING 1284
SWIDTH 685 0
DWIDTH 8 0
BBX 8 9 0 0
BITMAP
9FEA0000
001C6000
00088000
001C5082
0AFC00A5
001C6097
000790A6
0006B2E2
0001CE60
ENDCHAR
STARTCHAR uni0505
ENCODING 1285
SWIDTH 562 0
DWIDTH 7 0
BBX 7 7 0 0
BITMAP
9FD30000
007B0000
006A0810
3FF30C30
006B0B40
003D2E10
000CE600
ENDCHAR
STARTCHAR uni0506
ENCODING 1286
SWIDTH 470 0
DWIDTH 6 0
BBX 6 11 0 -2
BITMAP
8FD600
003E10
000C30
003E10
1FF700
003E10
000C30
000C61
000AF2
0000E0
000380
ENDCHAR
STARTCHAR uni0507
ENCODING 1287
SWIDTH 443 0
DWIDTH 5 0
BBX 6 9 0 -2
BITMAP
4FE800
002E20
001E10
0EF900
001E20
000C50
000BF1
0001E0
000470
ENDCHAR
STARTCHAR uni0508
ENCODING 1288
SWIDTH 834 0
DWIDTH 10 0
BBX 10 9 0 0
BITMAP
00FFFF5000
01F00B5000
01F00B5000
02E00B5083
02E00B5096
03D00B5088
04B00B6097
0A800A92E2
8C1003DE60
ENDCHAR
STARTCHAR uni0509
ENCODING 1289
SWIDTH 698 0
DWIDTH 8 0
BBX 8 7 0 0
BITMAP
05FFF200
0690E213
0690E22D
0780E21F
0870E21E
0C40C66B
8B005ED2
ENDCHAR
STARTCHAR uni050A
ENCODING 1290
SWIDTH 864 0
DWIDTH 10 0
BBX 10 9 0 0
BITMAP
1F000A6000
1F000A6000
1F000A6000
1F000A6074
1FFFFF6088
1F000A6079
1F000A6088
1F000892D3
1F0002DE70
ENDCHAR
STARTCHAR uni050B
ENCODING 1291
SWIDTH 716 0
DWIDTH 9 0
BBX 9 7 0 0
BITMAP
3D00C40000
3D00C41400
3D00C41E00
3FFFF40E20
3D00C40E10
3D00A75C00
3D003DD300
ENDCHAR
STARTCHAR uni050C
ENCODING 1292
SWIDTH 541 0
DWIDTH 7 0
BBX 6 9 0 0
BITMAP
02BEC2
0C8131
3E0000
5C0000
5B0049
5B002D
3E002E
0C818A
02BEB2
ENDCHAR
STARTCHAR uni050D
ENCODING 1293
SWIDTH 452 0
DWIDTH 5 0
BBX 5 7 0 0
BITMAP
05DE30
1E3210
5B0000
6A0140
4B03D0
1E35C0
04DE40
ENDCHAR
STARTCHAR uni050E
ENCODING 1294
SWIDTH 616 0
DWIDTH 7 0
BBX 7 9 0 0
BITMAP
BFFFFF00
007A0000
007A0000
007A0560
007A05B0
007A04C0
007A05B0
005D1B70
000BE900
ENDCHAR
STARTCHAR uni050F
ENCODING 1295
SWIDTH 558 0
DWIDTH 7 0
BBX 7 7 0 0
BITMAP
8FFFE000
00C30000
00C31800
00C30E00
00C30F10
00B64D00
004ED400
ENDCHAR
STARTCHAR uni0510
ENCODING 1296
SWIDTH 589 0
DWIDTH 7 0
BBX 7 9 0 0
BITMAP
02BED500
0C814E20
0F200520
0B700000
03EF8000
0D600000
1F000640
0D713E40
03BED600
ENDCHAR
STARTCHAR uni0511
ENCODING 1297
SWIDTH 470 0
DWIDTH 6 0
BBX 5 7 0 0
BITMAP
09ED40
3D15D0
3D1000
0BFC00
4C1000
5C14E0
09ED50
ENDCHAR
STARTCHAR uni0512
ENCODING 1298
SWIDTH 664 0
DWIDTH 8 0
BBX 8 11 0 -2
BITMAP
02FFFF60
02E00A60
03D00A60
03D00A60
04C00A60
04B00A60
06A00A60
1B600A60
9B100AF6
000000B6
00000AC1
ENDCHAR
STARTCHAR uni0513
ENCODING 1299
SWIDTH 553 0
DWIDTH 7 0
BBX 7 9 0 -2
BITMAP
07FFF400
0880C400
0870C400
0960C400
0A50C400
1D30C400
A900CF40
00001D40
0000CB00
ENDCHAR
STARTCHAR uni1E00
ENCODING 7680
SWIDTH 576 0
DWIDTH 7 0
BBX 7 12 0 -3
BITMAP
002F1000
007E6000
00C8A000
01E1E000
06A0C400
0A608900
0EFFFE00
4D000E30
98000980
00000000
003E3000
003E3000
ENDCHAR
STARTCHAR uni1E01
ENCODING 7681
SWIDTH 479 0
DWIDTH 6 0
BBX 6 10 0 -3
BITMAP
05ED40
1E25C0
0202E0
07EFE0
3D22E0
4D16E0
0BE9F1
000000
02E400
02E400
ENDCHAR
STARTCHAR uni1E3E
ENCODING 7742
SWIDTH 755 0
DWIDTH 9 0
BBX 9 12 0 0
BITMAP
00005D1000
0000B30000
0000000000
1F70006F20
1FB000BF20
1EE101ED20
1EA505AD20
1F5A096E20
1F1E0D1E20
1F0A7B0E20
1F06E60E20
1F01F20E20
ENDCHAR
STARTCHAR uni1E3F
ENCODING 7743
SWIDTH 752 0
DWIDTH 9 0
BBX 9 10 0 0
BITMAP
00004E2000
0000A40000
0000000000
3DBE6AE900
3E34F62E20
3C00F10C40
3C00F00C40
3C00F00C40
3C00F00C40
3C00F00C40
ENDCHAR
STARTCHAR Wgrave
ENCODING 7808
SWIDTH 761 0
DWIDTH 9 0
BBX 9 12 0 0
BITMAP
000B800000
0002C10000
0000000000
7900E305B0
4B02F60880
2E05C90A50
0E196C0D20
0B4C1C1E00
087D097C00
05CA06C900
03F603F600
00F300E300
ENDCHAR
STARTCHAR wgrave
ENCODING 7809
SWIDTH 649 0
DWIDTH 8 0
BBX 8 10 0 0
BITMAP
009B0000
000B3000
00000000
960A6096
690DA0C2
2C2CD1E0
0E68B5B0
0BD48C70
08F14F40
04C01F10
ENDCHAR
STARTCHAR Wacute
ENCODING 7810
SWIDTH 761 0
DWIDTH 9 0
BBX 9 12 0 0
BITMAP
00003E3000
0000950000
0000000000
7900E305B0
4B02F60880
2E05C90A50
0E196C0D20
0B4C1C1E00
087D097C00
05CA06C900
03F603F600
00F300E300
ENDCHAR
STARTCHAR wacute
ENCODING 7811
SWIDTH 649 0
DWIDTH 8 0
BBX 8 10 0 0
BITMAP
0001D500
00068000
00000000
960A6096
690DA0C2
2C2CD1E0
0E68B5B0
0BD48C70
08F14F40
04C01F10
ENDCHAR
STARTCHAR Wdieresis
ENCODING 7812
SWIDTH 761 0
DWIDTH 9 0
BBX 9 12 0 0
BITMAP
0002011000
002D097000
0000000000
7900E305B0
4B02F60880
2E05C90A50
0E196C0D20
0B4C1C1E00
087D097C00
05CA06C900
03F603F600
00F300E300
ENDCHAR
STARTCHAR wdieresis
ENCODING 7813
SWIDTH 649 0
DWIDTH 8 0
BBX 8 10 0 0
BITMAP
00201100
00D26A00
00000000
960A6096
690DA0C2
2C2CD1E0
0E68B5B0
0BD48C70
08F14F40
04C01F10
ENDCHAR
STARTCHAR uni1EA0
ENCODING 7840
SWIDTH 576 0
DWIDTH 7 0
BBX 7 12 0 -3
BITMAP
002F1000
007E6000
00C8A000
01E1E000
06A0C400
0A608900
0EFFFE00
4D000E30
98000980
00000000
001E1000
00020000
ENDCHAR
STARTCHAR uni1EA1
ENCODING 7841
SWIDTH 479 0
DWIDTH 6 0
BBX 6 10 0 -3
BITMAP
05ED40
1E25C0
0202E0
07EFE0
3D22E0
4D16E0
0BE9F1
000000
00D100
002000
ENDCHAR
STARTCHAR uni1EA2
ENCODING 7842
SWIDTH 576 0
DWIDTH 7 0
BBX 7 13 0 0
BITMAP
000D4000
00068000
000C2000
00000000
002F1000
007E6000
00C8A000
01E1E000
06A0C400
0A608900
0EFFFE00
4D000E30
98000980
ENDCHAR
STARTCHAR uni1EA3
ENCODING 7843
SWIDTH 479 0
DWIDTH 6 0
BBX 6 11 0 0
BITMAP
006A00
001D10
005800
000000
05ED40
1E25C0
0202E0
07EFE0
3D22E0
4D16E0
0BE9F1
ENDCHAR
STARTCHAR uni1EA4
ENCODING 7844
SWIDTH 576 0
DWIDTH 7 0
BBX 7 13 0 0
BITMAP
00000880
006E6B10
02C3C200
00000000
002F1000
007E6000
00C8A000
01E1E000
06A0C400
0A608900
0EFFFE00
4D000E30
98000980
ENDCHAR
STARTCHAR uni1EA5
ENCODING 7845
SWIDTH 479 0
DWIDTH 6 0
BBX 7 11 0 0
BITMAP
00001E10
01CC5700
08887000
00000000
05ED4000
1E25C000
0202E000
07EFE000
3D22E000
4D16E000
0BE9F100
ENDCHAR
STARTCHAR uni1EA6
ENCODING 7846
SWIDTH 576 0
DWIDTH 7 0
BBX 7 13 0 0
BITMAP
88000000
1A6E6000
02C3C100
00000000
002F1000
007E6000
00C8A000
01E1E000
06A0C400
0A608900
0EFFFE00
4D000E30
98000980
ENDCHAR
STARTCHAR uni1EA7
ENCODING 7847
SWIDTH 479 0
DWIDTH 6 0
BBX 7 11 -1 0
BITMAP
1E100000
085CC100
00878700
00000000
005ED400
01E25C00
00202E00
007EFE00
03D22E00
04D16E00
00BE9F10
ENDCHAR
STARTCHAR uni1EA8
ENCODING 7848
SWIDTH 576 0
DWIDTH 7 0
BBX 7 14 0 0
BITMAP
00002A00
00001B10
008D9A00
02B1C200
00000000
002F1000
007E6000
00C8A000
01E1E000
06A0C400
0A608900
0EFFFE00
4D000E30
98000980
ENDCHAR
STARTCHAR uni1EA9
ENCODING 7849
SWIDTH 479 0
DWIDTH 6 0
BBX 6 12 0 0
BITMAP
000075
000049
02CCB2
095680
000000
05ED40
1E25C0
0202E0
07EFE0
3D22E0
4D16E0
0BE9F1
ENDCHAR
STARTCHAR uni1EAA
ENCODING 7850
SWIDTH 576 0
DWIDTH 7 0
BBX 7 15 0 0
BITMAP
00876000
00696000
00000000
006E5000
02B2C100
00000000
002F1000
007E6000
00C8A000
01E1E000
06A0C400
0A608900
0EFFFE00
4D000E30
98000980
ENDCHAR
STARTCHAR uni1EAB
ENCODING 7851
SWIDTH 479 0
DWIDTH 6 0
BBX 6 13 0 0
BITMAP
01C520
044D00
000000
01CB10
086780
000000
05ED40
1E25C0
0202E0
07EFE0
3D22E0
4D16E0
0BE9F1
ENDCHAR
STARTCHAR uni1EAC
ENCODING 7852
SWIDTH 576 0
DWIDTH 7 0
BBX 7 15 0 -3
BITMAP
004E4000
00B4A000
00000000
002F1000
007E6000
00C8A000
01E1E000
06A0C400
0A608900
0EFFFE00
4D000E30
98000980
00000000
001E1000
00020000
ENDCHAR
STARTCHAR uni1EAD
ENCODING 7853
SWIDTH 479 0
DWIDTH 6 0
BBX 6 13 0 -3
BITMAP
00BA00
048940
000000
05ED40
1E25C0
0202E0
07EFE0
3D22E0
4D16E0
0BE9F1
000000
00D100
002000
ENDCHAR
STARTCHAR uni1EAE
ENCODING 7854
SWIDTH 576 0
DWIDTH 7 0
BBX 7 14 0 0
BITMAP
00075000
00080000
00D2D000
008E6000
00000000
002F1000
007E6000
00C8A000
01E1E000
06A0C400
0A608900
0EFFFE00
4D000E30
98000980
ENDCHAR
STARTCHAR uni1EAF
ENCODING 7855
SWIDTH 479 0
DWIDTH 6 0
BBX 6 12 0 0
BITMAP
001C00
003600
077860
02DC10
000000
05ED40
1E25C0
0202E0
07EFE0
3D22E0
4D16E0
0BE9F1
ENDCHAR
STARTCHAR uni1EB0
ENCODING 7856
SWIDTH 576 0
DWIDTH 7 0
BBX 7 14 0 0
BITMAP
00570000
00080000
00D2D000
008E6000
00000000
002F1000
007E6000
00C8A000
01E1E000
06A0C400
0A608900
0EFFFE00
4D000E30
98000980
ENDCHAR
STARTCHAR uni1EB1
ENCODING 7857
SWIDTH 479 0
DWIDTH 6 0
BBX 6 12 0 0
BITMAP
00C000
006200
077860
02DC10
000000
05ED40
1E25C0
0202E0
07EFE0
3D22E0
4D16E0
0BE9F1
ENDCHAR
STARTCHAR uni1EB2
ENCODING 7858
SWIDTH 576 0
DWIDTH 7 0
BBX 7 15 0 0
BITMAP
00093000
00087000
000C1000
00D2C000
008E5000
00000000
002F1000
007E6000
00C8A000
01E1E000
06A0C400
0A608900
0EFFFE00
4D000E30
98000980
ENDCHAR
STARTCHAR uni1EB3
ENCODING 7859
SWIDTH 479 0
DWIDTH 6 0
BBX 6 13 0 0
BITMAP
003900
002D00
006700
077950
02DC10
000000
05ED40
1E25C0
0202E0
07EFE0
3D22E0
4D16E0
0BE9F1
ENDCHAR
STARTCHAR uni1EB4
ENCODING 7860
SWIDTH 576 0
DWIDTH 7 0
BBX 7 15 0 0
BITMAP
00877000
00788000
00000000
00D2D000
008E6000
00000000
002F1000
007E6000
00C8A000
01E1E000
06A0C400
0A608900
0EFFFE00
4D000E30
98000980
ENDCHAR
STARTCHAR uni1EB5
ENCODING 7861
SWIDTH 479 0
DWIDTH 6 0
BBX 6 13 0 0
BITMAP
01D440
044D10
000000
077860
02DC10
000000
05ED40
1E25C0
0202E0
07EFE0
3D22E0
4D16E0
0BE9F1
ENDCHAR
STARTCHAR uni1EB6
ENCODING 7862
SWIDTH 576 0
DWIDTH 7 0
BBX 7 15 0 -3
BITMAP
03C1C200
009E9000
00000000
002F1000
007E6000
00C8A000
01E1E000
06A0C400
0A608900
0EFFFE00
4D000E30
98000980
00000000
001E1000
00020000
ENDCHAR
STARTCHAR uni1EB7
ENCODING 7863
SWIDTH 479 0
DWIDTH 6 0
BBX 6 13 0 -3
BITMAP
0A55A0
03DD30
000000
05ED40
1E25C0
0202E0
07EFE0
3D22E0
4D16E0
0BE9F1
000000
00D100
002000
ENDCHAR
STARTCHAR uni1EB8
ENCODING 7864
SWIDTH 496 0
DWIDTH 6 0
BBX 6 12 0 -3
BITMAP
1FFFF7
1F0000
1F0000
1F0000
1FFFF0
1F0000
1F0000
1F0000
1FFFF8
000000
006900
001200
ENDCHAR
STARTCHAR uni1EB9
ENCODING 7865
SWIDTH 468 0
DWIDTH 6 0
BBX 6 10 0 -3
BITMAP
06ED40
2E24D0
5A00E1
6FFFF2
5A0000
2E2170
06EE80
000000
009600
002100
ENDCHAR
STARTCHAR uni1EBA
ENCODING 7866
SWIDTH 496 0
DWIDTH 6 0
BBX 6 13 0 0
BITMAP
004C10
000A30
003B00
000000
1FFFF7
1F0000
1F0000
1F0000
1FFFF0
1F0000
1F0000
1F0000
1FFFF8
ENDCHAR
STARTCHAR uni1EBB
ENCODING 7867
SWIDTH 468 0
DWIDTH 6 0
BBX 6 11 0 0
BITMAP
007900
001D00
007700
000000
06ED40
2E24D0
5A00E1
6FFFF2
5A0000
2E2170
06EE80
ENDCHAR
STARTCHAR uni1EBC
ENCODING 7868
SWIDTH 496 0
DWIDTH 6 0
BBX 6 12 0 0
BITMAP
03D3B0
084C80
000000
1FFFF7
1F0000
1F0000
1F0000
1FFFF0
1F0000
1F0000
1F0000
1FFFF8
ENDCHAR
STARTCHAR uni1EBD
ENCODING 7869
SWIDTH 468 0
DWIDTH 6 0
BBX 6 10 0 0
BITMAP
07C390
0B3E40
000000
06ED40
2E24D0
5A00E1
6FFFF2
5A0000
2E2170
06EE80
ENDCHAR
STARTCHAR uni1EBE
ENCODING 7870
SWIDTH 496 0
DWIDTH 6 0
BBX 7 13 0 0
BITMAP
00000D30
00BD5900
05A5A000
00000000
1FFFF700
1F000000
1F000000
1F000000
1FFFF000
1F000000
1F000000
1F000000
1FFFF800
ENDCHAR
STARTCHAR uni1EBF
ENCODING 7871
SWIDTH 468 0
DWIDTH 6 0
BBX 6 11 0 0
BITMAP
00002D
02DB66
097960
000000
06ED40
2E24D0
5A00E1
6FFFF2
5A0000
2E2170
06EE80
ENDCHAR
STARTCHAR uni1EC0
ENCODING 7872
SWIDTH 496 0
DWIDTH 6 0
BBX 6 13 0 0
BITMAP
D30000
57BD20
05A6A0
000000
1FFFF7
1F0000
1F0000
1F0000
1FFFF0
1F0000
1F0000
1F0000
1FFFF8
ENDCHAR
STARTCHAR uni1EC1
ENCODING 7873
SWIDTH 468 0
DWIDTH 6 0
BBX 7 11 -1 0
BITMAP
2D000000
095DB100
00969600
00000000
006ED400
02E24D00
05A00E10
06FFFF20
05A00000
02E21700
006EE800
ENDCHAR
STARTCHAR uni1EC2
ENCODING 7874
SWIDTH 496 0
DWIDTH 6 0
BBX 6 14 0 0
BITMAP
000047
00002B
01BDA5
0683A0
000000
1FFFF7
1F0000
1F0000
1F0000
1FFFF0
1F0000
1F0000
1F0000
1FFFF8
ENDCHAR
STARTCHAR uni1EC3
ENCODING 7875
SWIDTH 468 0
DWIDTH 6 0
BBX 6 12 0 0
BITMAP
000084
000057
02CCB2
0A4770
000000
06ED40
2E24D0
5A00E1
6FFFF2
5A0000
2E2170
06EE80
ENDCHAR
STARTCHAR uni1EC4
ENCODING 7876
SWIDTH 496 0
DWIDTH 6 0
BBX 6 15 0 0
BITMAP
00C450
016C20
000000
00AC20
0684A0
000000
1FFFF7
1F0000
1F0000
1F0000
1FFFF0
1F0000
1F0000
1F0000
1FFFF8
ENDCHAR
STARTCHAR uni1EC5
ENCODING 7877
SWIDTH 468 0
DWIDTH 6 0
BBX 6 13 0 0
BITMAP
02C610
054C00
000000
02CB10
094860
000000
06ED40
2E24D0
5A00E1
6FFFF2
5A0000
2E2170
06EE80
ENDCHAR
STARTCHAR uni1EC6
ENCODING 7878
SWIDTH 496 0
DWIDTH 6 0
BBX 6 15 0 -3
BITMAP
009C10
02A660
000000
1FFFF7
1F0000
1F0000
1F0000
1FFFF0
1F0000
1F0000
1F0000
1FFFF8
000000
006900
001200
ENDCHAR
STARTCHAR uni1EC7
ENCODING 7879
SWIDTH 468 0
DWIDTH 6 0
BBX 6 13 0 -3
BITMAP
01C900
057A30
000000
06ED40
2E24D0
5A00E1
6FFFF2
5A0000
2E2170
06EE80
000000
009600
002100
ENDCHAR
STARTCHAR uni1EC8
ENCODING 7880
SWIDTH 250 0
DWIDTH 3 0
BBX 2 13 1 0
BITMAP
D4
58
C2
00
F1
F1
F1
F1
F1
F1
F1
F1
F1
ENDCHAR
STARTCHAR uni1EC9
ENCODING 7881
SWIDTH 234 0
DWIDTH 3 0
BBX 3 11 0 0
BITMAP
0E30
0770
0C10
0000
2D00
2D00
2D00
2D00
2D00
2D00
2D00
ENDCHAR
STARTCHAR uni1ECA
ENCODING 7882
SWIDTH 250 0
DWIDTH 3 0
BBX 3 12 0 -3
BITMAP
0F10
0F10
0F10
0F10
0F10
0F10
0F10
0F10
0F10
0000
1D00
0200
ENDCHAR
STARTCHAR uni1ECB
ENCODING 7883
SWIDTH 229 0
DWIDTH 3 0
BBX 2 13 0 -3
BITMAP
02
2C
00
2D
2D
2D
2D
2D
2D
2D
00
3C
02
ENDCHAR
STARTCHAR uni1ECC
ENCODING 7884
SWIDTH 600 0
DWIDTH 7 0
BBX 7 12 0 -3
BITMAP
02BEC300
0B815E10
2E000B50
3C000A70
4C000970
4C000970
2E000B50
0B815E10
02BEC300
00000000
000D2000
00020000
ENDCHAR
STARTCHAR uni1ECD
ENCODING 7885
SWIDTH 501 0
DWIDTH 6 0
BBX 6 10 0 -3
BITMAP
05DD50
2E33E2
5A00A6
790097
5A00A6
2E32E2
06DD60
000000
008700
001100
ENDCHAR
STARTCHAR uni1ECE
ENCODING 7886
SWIDTH 600 0
DWIDTH 7 0
BBX 7 13 0 0
BITMAP
000B6000
0004A000
000B3000
00000000
02BEC300
0B815E10
2E000B50
3C000A70
4C000970
4C000970
2E000B50
0B815E10
02BEC300
ENDCHAR
STARTCHAR uni1ECF
ENCODING 7887
SWIDTH 501 0
DWIDTH 6 0
BBX 6 11 0 0
BITMAP
007A00
001D00
006800
000000
05DD50
2E33E2
5A00A6
790097
5A00A6
2E32E2
06DD60
ENDCHAR
STARTCHAR uni1ED0
ENCODING 7888
SWIDTH 600 0
DWIDTH 7 0
BBX 7 13 0 0
BITMAP
000006A0
004E8920
01C3C300
00000000
02BEC300
0B815E10
2E000B50
3C000A70
4C000970
4C000970
2E000B50
0B815E10
02BEC300
ENDCHAR
STARTCHAR uni1ED1
ENCODING 7889
SWIDTH 501 0
DWIDTH 6 0
BBX 7 11 0 0
BITMAP
00002E10
01CC6700
08787000
00000000
05DD5000
2E33E200
5A00A600
79009700
5A00A600
2E32E200
06DD6000
ENDCHAR
STARTCHAR uni1ED2
ENCODING 7890
SWIDTH 600 0
DWIDTH 7 0
BBX 7 13 0 0
BITMAP
6A000000
0B5E8000
01C3C300
00000000
02BEC300
0B815E10
2E000B50
3C000A70
4C000970
4C000970
2E000B50
0B815E10
02BEC300
ENDCHAR
STARTCHAR uni1ED3
ENCODING 7891
SWIDTH 501 0
DWIDTH 6 0
BBX 7 11 -1 0
BITMAP
2E100000
085CC100
00878700
00000000
005DD500
02E33E20
05A00A60
07900970
05A00A60
02E32E20
006DD600
ENDCHAR
STARTCHAR uni1ED4
ENCODING 7892
SWIDTH 600 0
DWIDTH 7 0
BBX 7 14 0 0
BITMAP
00000A10
00000A30
005D9B00
01C1B300
00000000
02BEC300
0B815E10
2E000B50
3C000A70
4C000970
4C000970
2E000B50
0B815E10
02BEC300
ENDCHAR
STARTCHAR uni1ED5
ENCODING 7893
SWIDTH 501 0
DWIDTH 6 0
BBX 6 12 0 0
BITMAP
000075
000048
02CCB2
095680
000000
05DD50
2E33E2
5A00A6
790097
5A00A6
2E32E2
06DD60
ENDCHAR
STARTCHAR uni1ED6
ENCODING 7894
SWIDTH 600 0
DWIDTH 7 0
BBX 7 15 0 0
BITMAP
00696000
00678000
00000000
004E7000
01C2B300
00000000
02BEC300
0B815E10
2E000B50
3C000A70
4C000970
4C000970
2E000B50
0B815E10
02BEC300
ENDCHAR
STARTCHAR uni1ED7
ENCODING 7895
SWIDTH 501 0
DWIDTH 6 0
BBX 6 13 0 0
BITMAP
02C520
044D00
000000
01CB10
095770
000000
05DD50
2E33E2
5A00A6
790097
5A00A6
2E32E2
06DD60
ENDCHAR
STARTCHAR uni1ED8
ENCODING 7896
SWIDTH 600 0
DWIDTH 7 0
BBX 7 15 0 -3
BITMAP
003E5000
0094B000
00000000
02BEC300
0B815E10
2E000B50
3C000A70
4C000970
4C000970
2E000B50
0B815E10
02BEC300
00000000
000D2000
00020000
ENDCHAR
STARTCHAR uni1ED9
ENCODING 7897
SWIDTH 501 0
DWIDTH 6 0
BBX 6 13 0 -3
BITMAP
00BA00
058930
000000
05DD50
2E33E2
5A00A6
790097
5A00A6
2E32E2
06DD60
000000
008700
001100
ENDCHAR
STARTCHAR uni1EDA
ENCODING 7898
SWIDTH 592 0
DWIDTH 7 0
BBX 8 12 0 0
BITMAP
0004E200
000B4000
00000071
02BEA2E1
0C718F70
3D000D10
6A000B50
79000A60
6A000B50
3D000E30
0C717C00
02BFC200
ENDCHAR
STARTCHAR uni1EDB
ENCODING 7899
SWIDTH 502 0
DWIDTH 6 0
BBX 6 10 0 0
BITMAP
000C70
005A00
000004
05DD4C
1E33F9
5B00B4
690096
5B00B6
1E33E2
05DD60
ENDCHAR
STARTCHAR uni1EDC
ENCODING 7900
SWIDTH 592 0
DWIDTH 7 0
BBX 8 12 0 0
BITMAP
01D60000
003C0000
00000071
02BEA2E1
0C718F70
3D000D10
6A000B50
79000A60
6A000B50
3D000E30
0C717C00
02BFC200
ENDCHAR
STARTCHAR uni1EDD
ENCODING 7901
SWIDTH 502 0
DWIDTH 6 0
BBX 6 10 0 0
BITMAP
07C000
00A500
000004
05DD4C
1E33F9
5B00B4
690096
5B00B6
1E33E2
05DD60
ENDCHAR
STARTCHAR uni1EDE
ENCODING 7902
SWIDTH 592 0
DWIDTH 7 0
BBX 8 13 0 0
BITMAP
000C5000
00049000
000B2000
00000071
02BEA2E1
0C718F70
3D000D10
6A000B50
79000A60
6A000B50
3D000E30
0C717C00
02BFC200
ENDCHAR
STARTCHAR uni1EDF
ENCODING 7903
SWIDTH 502 0
DWIDTH 6 0
BBX 6 11 0 0
BITMAP
006A00
001D10
005800
000004
05DD4C
1E33F9
5B00B4
690096
5B00B6
1E33E2
05DD60
ENDCHAR
STARTCHAR uni1EE0
ENCODING 7904
SWIDTH 592 0
DWIDTH 7 0
BBX 8 12 0 0
BITMAP
00C87400
0297D100
00000071
02BEA2E1
0C718F70
3D000D10
6A000B50
79000A60
6A000B50
3D000E30
0C717C00
02BFC200
ENDCHAR
STARTCHAR uni1EE1
ENCODING 7905
SWIDTH 502 0
DWIDTH 6 0
BBX 6 10 0 0
BITMAP
06C2A0
0A3D50
000004
05DD4C
1E33F9
5B00B4
690096
5B00B6
1E33E2
05DD60
ENDCHAR
STARTCHAR uni1EE2
ENCODING 7906
SWIDTH 592 0
DWIDTH 7 0
BBX 8 13 0 -3
BITMAP
00000071
02BEA2E1
0C718F70
3D000D10
6A000B50
79000A60
6A000B50
3D000E30
0C717C00
02BFC200
00000000
001E1000
00020000
ENDCHAR
STARTCHAR uni1EE3
ENCODING 7907
SWIDTH 502 0
DWIDTH 6 0
BBX 6 11 0 -3
BITMAP
000004
05DD4C
1E33F9
5B00B4
690096
5B00B6
1E33E2
05DD60
000000
008700
001100
ENDCHAR
STARTCHAR uni1EE4
ENCODING 7908
SWIDTH 561 0
DWIDTH 7 0
BBX 6 12 0 -3
BITMAP
4C001F
4C001F
4C001F
4C001F
4C001F
4C001F
3D002E
1E417B
05DEB2
000000
003C00
000200
ENDCHAR
STARTCHAR uni1EE5
ENCODING 7909
SWIDTH 483 0
DWIDTH 6 0
BBX 5 10 0 -3
BITMAP
4C00F0
4C00F0
4C00F0
4C00F0
4C00F0
2E26F0
09EAF0
000000
00D200
002000
ENDCHAR
STARTCHAR uni1EE6
ENCODING 7910
SWIDTH 561 0
DWIDTH 7 0
BBX 6 13 0 0
BITMAP
001D30
000760
000D10
000000
4C001F
4C001F
4C001F
4C001F
4C001F
4C001F
3D002E
1E417B
05DEB2
ENDCHAR
STARTCHAR uni1EE7
ENCODING 7911
SWIDTH 483 0
DWIDTH 6 0
BBX 5 11 0 0
BITMAP
007900
001D00
007700
000000
4C00F0
4C00F0
4C00F0
4C00F0
4C00F0
2E26F0
09EAF0
ENDCHAR
STARTCHAR uni1EE8
ENCODING 7912
SWIDTH 608 0
DWIDTH 7 0
BBX 8 12 0 0
BITMAP
0004E200
000B4000
00000009
4C001F4B
4C001FD3
4C001F00
4C001F00
4C001F00
4C001F00
3D002E00
0D519A00
03CEA100
ENDCHAR
STARTCHAR uni1EE9
ENCODING 7913
SWIDTH 549 0
DWIDTH 7 0
BBX 7 10 0 0
BITMAP
001C7000
00590000
00000120
4C00F570
4C00FD20
4C00F000
4C00F000
4C00F000
2E26F000
09EAF000
ENDCHAR
STARTCHAR uni1EEA
ENCODING 7914
SWIDTH 608 0
DWIDTH 7 0
BBX 8 12 0 0
BITMAP
01D60000
003C0000
00000009
4C001F4B
4C001FD3
4C001F00
4C001F00
4C001F00
4C001F00
3D002E00
0D519A00
03CEA100
ENDCHAR
STARTCHAR uni1EEB
ENCODING 7915
SWIDTH 549 0
DWIDTH 7 0
BBX 7 10 0 0
BITMAP
07C00000
00A40000
00000120
4C00F570
4C00FD20
4C00F000
4C00F000
4C00F000
2E26F000
09EAF000
ENDCHAR
STARTCHAR uni1EEC
ENCODING 7916
SWIDTH 608 0
DWIDTH 7 0
BBX 8 13 0 0
BITMAP
000C5000
00049000
000B2000
00000009
4C001F4B
4C001FD3
4C001F00
4C001F00
4C001F00
4C001F00
3D002E00
0D519A00
03CEA100
ENDCHAR
STARTCHAR uni1EED
ENCODING 7917
SWIDTH 549 0
DWIDTH 7 0
BBX 7 11 0 0
BITMAP
006A0000
001D0000
00680000
00000120
4C00F570
4C00FD20
4C00F000
4C00F000
4C00F000
2E26F000
09EAF000
ENDCHAR
STARTCHAR uni1EEE
ENCODING 7918
SWIDTH 608 0
DWIDTH 7 0
BBX 8 12 0 0
BITMAP
00C87400
0297D100
00000009
4C001F4B
4C001FD3
4C001F00
4C001F00
4C001F00
4C001F00
3D002E00
0D519A00
03CEA100
ENDCHAR
STARTCHAR uni1EEF
ENCODING 7919
SWIDTH 549 0
DWIDTH 7 0
BBX 7 10 0 0
BITMAP
06C2A000
0A3D5000
00000120
4C00F570
4C00FD20
4C00F000
4C00F000
4C00F000
2E26F000
09EAF000
ENDCHAR
STARTCHAR uni1EF0
ENCODING 7920
SWIDTH 608 0
DWIDTH 7 0
BBX 8 13 0 -3
BITMAP
00000009
4C001F4B
4C001FD3
4C001F00
4C001F00
4C001F00
4C001F00
3D002E00
0D519A00
03CEA100
00000000
000D1000
00020000
ENDCHAR
STARTCHAR uni1EF1
ENCODING 7921
SWIDTH 549 0
DWIDTH 7 0
BBX 7 11 0 -3
BITMAP
00000120
4C00F570
4C00FD20
4C00F000
4C00F000
4C00F000
2E26F000
09EAF000
00000000
00A50000
00210000
ENDCHAR
STARTCHAR Ygrave
ENCODING 7922
SWIDTH 524 0
DWIDTH 6 0
BBX 6 12 0 0
BITMAP
04E200
008700
000000
99005D
3E00A7
0B51E1
05B790
00DD20
007B00
006A00
006A00
006A00
ENDCHAR
STARTCHAR ygrave
ENCODING 7923
SWIDTH 416 0
DWIDTH 5 0
BBX 5 12 0 -2
BITMAP
0C7000
02C100
000000
A70790
5B0B50
1E0E10
0C6C00
07D700
03F300
00D000
069000
7D2000
ENDCHAR
STARTCHAR uni1EF4
ENCODING 7924
SWIDTH 524 0
DWIDTH 6 0
BBX 6 12 0 -3
BITMAP
99005D
3E00A7
0B51E1
05B790
00DD20
007B00
006A00
006A00
006A00
000000
006900
001200
ENDCHAR
STARTCHAR uni1EF5
ENCODING 7925
SWIDTH 416 0
DWIDTH 5 0
BBX 5 11 0 -4
BITMAP
A70790
5B0B50
1E0E10
0C6C00
07D700
03F300
00D000
069000
7D2000
000D20
000200
ENDCHAR
STARTCHAR uni1EF6
ENCODING 7926
SWIDTH 524 0
DWIDTH 6 0
BBX 6 13 0 0
BITMAP
004C10
000A30
003B00
000000
99005D
3E00A7
0B51E1
05B790
00DD20
007B00
006A00
006A00
006A00
ENDCHAR
STARTCHAR uni1EF7
ENCODING 7927
SWIDTH 416 0
DWIDTH 5 0
BBX 5 13 0 -2
BITMAP
00B500
004A00
00B300
000000
A70790
5B0B50
1E0E10
0C6C00
07D700
03F300
00D000
069000
7D2000
ENDCHAR
STARTCHAR uni1EF8
ENCODING 7928
SWIDTH 524 0
DWIDTH 6 0
BBX 6 12 0 0
BITMAP
03D3B0
084C80
000000
99005D
3E00A7
0B51E1
05B790
00DD20
007B00
006A00
006A00
006A00
ENDCHAR
STARTCHAR uni1EF9
ENCODING 7929
SWIDTH 416 0
DWIDTH 5 0
BBX 5 12 0 -2
BITMAP
0B8750
296D10
000000
A70790
5B0B50
1E0E10
0C6C00
07D700
03F300
00D000
069000
7D2000
ENDCHAR
STARTCHAR uni1F4D
ENCODING 8013
SWIDTH 634 0
DWIDTH 8 0
BBX 10 9 -3 0
BITMAP
4A7907DE80
1A915C22C6
0000B6005B
0000C3003D
0000D3003D
0000D3003D
0000B6005B
00005C22C6
000007EE80
ENDCHAR
STARTCHAR uni2000
ENCODING 8192
SWIDTH 447 0
DWIDTH 5 0
BBX 1 1 0 0
BITMAP
00
ENDCHAR
STARTCHAR uni2001
ENCODING 8193
SWIDTH 876 0
DWIDTH 11 0
BBX 1 1 0 0
BITMAP
00
ENDCHAR
STARTCHAR uni2002
ENCODING 8194
SWIDTH 447 0
DWIDTH 5 0
BBX 1 1 0 0
BITMAP
00
ENDCHAR
STARTCHAR uni2003
ENCODING 8195
SWIDTH 876 0
DWIDTH 11 0
BBX 1 1 0 0
BITMAP
00
ENDCHAR
STARTCHAR uni2004
ENCODING 8196
SWIDTH 305 0
DWIDTH 4 0
BBX 1 1 0 0
BITMAP
00
ENDCHAR
STARTCHAR uni2005
ENCODING 8197
SWIDTH 233 0
DWIDTH 3 0
BBX 1 1 0 0
BITMAP
00
ENDCHAR
STARTCHAR uni2006
ENCODING 8198
SWIDTH 162 0
DWIDTH 2 0
BBX 1 1 0 0
BITMAP
00
ENDCHAR
STARTCHAR uni2007
ENCODING 8199
SWIDTH 491 0
DWIDTH 6 0
BBX 1 1 0 0
BITMAP
00
ENDCHAR
STARTCHAR uni2008
ENCODING 8200
SWIDTH 249 0
DWIDTH 3 0
BBX 1 1 0 0
BITMAP
00
ENDCHAR
STARTCHAR uni2009
ENCODING 8201
SWIDTH 190 0
DWIDTH 2 0
BBX 1 1 0 0
BITMAP
00
ENDCHAR
STARTCHAR uni200A
ENCODING 8202
SWIDTH 105 0
DWIDTH 1 0
BBX 1 1 0 0
BITMAP
00
ENDCHAR
STARTCHAR uni200B
ENCODING 8203
SWIDTH 0 0
DWIDTH 0 0
BBX 1 1 0 0
BITMAP
00
ENDCHAR
STARTCHAR uni2010
ENCODING 8208
SWIDTH 248 0
DWIDTH 3 0
BBX 3 1 0 3
BITMAP
BFB0
ENDCHAR
STARTCHAR uni2011
ENCODING 8209
SWIDTH 248 0
DWIDTH 3 0
BBX 3 1 0 3
BITMAP
BFB0
ENDCHAR
STARTCHAR endash
ENCODING 8211
SWIDTH 572 0
DWIDTH 7 0
BBX 6 1 0 4
BITMAP
1FFFFD
ENDCHAR
STARTCHAR emdash
ENCODING 8212
SWIDTH 678 0
DWIDTH 8 0
BBX 8 1 0 4
BITMAP
1FFFFFF8
ENDCHAR
STARTCHAR uni2015
ENCODING 8213
SWIDTH 678 0
DWIDTH 8 0
BBX 8 1 0 4
BITMAP
1FFFFFF8
ENDCHAR
STARTCHAR underscoredbl
ENCODING 8215
SWIDTH 402 0
DWIDTH 5 0
BBX 5 3 0 -3
BITMAP
DFFFA0
000000
DFFFA0
ENDCHAR
STARTCHAR quoteleft
ENCODING 8216
SWIDTH 194 0
DWIDTH 2 0
BBX 2 3 0 6
BITMAP
0A
4B
69
ENDCHAR
STARTCHAR quoteright
ENCODING 8217
SWIDTH 194 0
DWIDTH 2 0
BBX 2 3 0 6
BITMAP
3C
5A
74
ENDCHAR
STARTCHAR quotesinglbase
ENCODING 8218
SWIDTH 194 0
DWIDTH 2 0
BBX 2 4 0 -2
BITMAP
01
4B
69
83
ENDCHAR
STARTCHAR quotereversed
ENCODING 8219
SWIDTH 194 0
DWIDTH 2 0
BBX 2 3 0 6
BITMAP
88
69
1A
ENDCHAR
STARTCHAR quotedblleft
ENCODING 8220
SWIDTH 333 0
DWIDTH 4 0
BBX 4 3 0 6
BITMAP
0A29
3B86
5AA5
ENDCHAR
STARTCHAR quotedblright
ENCODING 8221
SWIDTH 337 0
DWIDTH 4 0
BBX 4 3 0 6
BITMAP
2E88
3B96
65A1
ENDCHAR
STARTCHAR quotedblbase
ENCODING 8222
SWIDTH 326 0
DWIDTH 4 0
BBX 4 4 0 -2
BITMAP
2542
4BA5
69C3
83A0
ENDCHAR
STARTCHAR dagger
ENCODING 8224
SWIDTH 482 0
DWIDTH 6 0
BBX 6 9 0 0
BITMAP
009600
009600
8FFFF5
009600
009600
009600
009600
009600
009600
ENDCHAR
STARTCHAR daggerdbl
ENCODING 8225
SWIDTH 500 0
DWIDTH 6 0
BBX 6 11 0 -2
BITMAP
008800
008800
7FFFF6
008800
008800
008800
008800
008800
7FFFF6
008800
008800
ENDCHAR
STARTCHAR bullet
ENCODING 8226
SWIDTH 336 0
DWIDTH 4 0
BBX 4 3 0 3
BITMAP
1DD1
2FF2
0660
ENDCHAR
STARTCHAR twodotenleader
ENCODING 8229
SWIDTH 420 0
DWIDTH 5 0
BBX 5 2 0 0
BITMAP
030300
1E1C40
ENDCHAR
STARTCHAR ellipsis
ENCODING 8230
SWIDTH 590 0
DWIDTH 7 0
BBX 7 2 0 0
BITMAP
03030210
1E1C4B50
ENDCHAR
STARTCHAR uni2027
ENCODING 8231
SWIDTH 181 0
DWIDTH 2 0
BBX 2 2 0 2
BITMAP
68
11
ENDCHAR
STARTCHAR perthousand
ENCODING 8240
SWIDTH 818 0
DWIDTH 10 0
BBX 10 9 0 0
BITMAP
3DC1000000
8585270000
8585920000
2DC3900000
000A200000
00386E9DB0
00A1C2C494
0270C2C494
00006EADC0
ENDCHAR
STARTCHAR minute
ENCODING 8242
SWIDTH 174 0
DWIDTH 2 0
BBX 2 3 0 6
BITMAP
67
67
66
ENDCHAR
STARTCHAR second
ENCODING 8243
SWIDTH 319 0
DWIDTH 4 0
BBX 4 3 0 6
BITMAP
3993
3992
3791
ENDCHAR
STARTCHAR guilsinglleft
ENCODING 8249
SWIDTH 271 0
DWIDTH 3 0
BBX 3 5 0 1
BITMAP
0390
0B20
3B00
0B20
0390
ENDCHAR
STARTCHAR guilsinglright
ENCODING 8250
SWIDTH 271 0
DWIDTH 3 0
BBX 3 5 0 1
BITMAP
3900
0B30
05A0
0B30
3900
ENDCHAR
STARTCHAR exclamdbl
ENCODING 8252
SWIDTH 491 0
DWIDTH 6 0
BBX 5 9 0 0
BITMAP
1F02F0
1F01E0
0F01E0
0F01E0
0F01E0
0E01E0
060060
020020
0D01D0
ENDCHAR
STARTCHAR fraction
ENCODING 8260
SWIDTH 403 0
DWIDTH 5 0
BBX 5 7 0 1
BITMAP
000540
000B00
006500
01B000
074000
1A0000
630000
ENDCHAR
STARTCHAR uni2074
ENCODING 8308
SWIDTH 329 0
DWIDTH 4 0
BBX 4 5 0 4
BITMAP
02F1
0AE1
38C1
9FF8
00C1
ENDCHAR
STARTCHAR uni207F
ENCODING 8319
SWIDTH 374 0
DWIDTH 4 0
BBX 4 5 0 4
BITMAP
4BE7
4B3D
4A1D
4A1D
4A1D
ENDCHAR
STARTCHAR franc
ENCODING 8355
SWIDTH 480 0
DWIDTH 6 0
BBX 6 9 0 0
BITMAP
1FFFF5
1F0000
1F0000
1F0000
1FFFD0
1F0000
DFF600
1F0000
1F0000
ENDCHAR
STARTCHAR lira
ENCODING 8356
SWIDTH 510 0
DWIDTH 6 0
BBX 6 9 0 0
BITMAP
01AEA1
07B1B6
0A6033
0B5000
7FFF10
0A6000
7FFF10
0B5000
6FFFFB
ENDCHAR
STARTCHAR uni20A6
ENCODING 8358
SWIDTH 691 0
DWIDTH 8 0
BBX 9 9 0 0
BITMAP
0AA002E000
0AF302E000
0ABB02E000
BFFFFFFF10
0A65A2E000
BFFFFFFF10
0A606BE000
0A600DE000
0A6006E000
ENDCHAR
STARTCHAR peseta
ENCODING 8359
SWIDTH 709 0
DWIDTH 9 0
BBX 8 9 0 0
BITMAP
1FFD54C0
1E05E4C0
1E00FFFB
1E00E4C0
1E05B4C0
1FFD34C0
1E0004C0
1E0003D1
1E0001CA
ENDCHAR
STARTCHAR uni20A8
ENCODING 8360
SWIDTH 911 0
DWIDTH 11 0
BBX 11 9 0 0
BITMAP
1FFFB2000000
1F019A000000
1F004C3CE800
1F019AA71D30
1FFFC19A1000
1F05C01AE700
1F00E3202E30
1F0089C51C40
1F003E4DE900
ENDCHAR
STARTCHAR uni20A9
ENCODING 8361
SWIDTH 634 0
DWIDTH 8 0
BBX 8 9 0 0
BITMAP
880B60E2
6A0D81E0
3C0DA3C0
BFFFFFF5
0D58C770
BFFFFFF5
08D4AD20
05F28E00
03F06C00
ENDCHAR
STARTCHAR uni20AA
ENCODING 8362
SWIDTH 669 0
DWIDTH 8 0
BBX 8 7 0 0
BITMAP
3FFFA0C4
3C01D3C4
3C5BB5C4
3C5BA5C4
3C5BA5C4
3C5B01E2
3C5FFF90
ENDCHAR
STARTCHAR dong
ENCODING 8363
SWIDTH 510 0
DWIDTH 6 0
BBX 7 11 0 -2
BITMAP
0000E200
001FFF10
08EBE200
2E24F200
6A00E200
7900E200
6A00E200
2E24F200
08EBD200
00000000
1FFFF700
ENDCHAR
STARTCHAR Euro
ENCODING 8364
SWIDTH 493 0
DWIDTH 6 0
BBX 6 9 0 0
BITMAP
006DE3
03E311
079000
6FFF50
088000
6FFF50
079000
03E311
006DE3
ENDCHAR
STARTCHAR uni20B1
ENCODING 8369
SWIDTH 648 0
DWIDTH 8 0
BBX 8 9 0 0
BITMAP
0CFFD500
0C505F10
BFFFFFF8
0C500980
BFFFFFF8
0C504F41
0CFFE600
0C500000
0C500000
ENDCHAR
STARTCHAR uni20B9
ENCODING 8377
SWIDTH 462 0
DWIDTH 6 0
BBX 6 9 0 0
BITMAP
9FFFF2
004E10
8FFFF2
003E20
AFE700
3F2000
09B000
01D600
005E10
ENDCHAR
STARTCHAR uni20BA
ENCODING 8378
SWIDTH 500 0
DWIDTH 6 0
BBX 6 9 0 0
BITMAP
079000
07CA00
4DC300
8ACA00
4DC397
8A90A6
0790D3
0797C0
07FC20
ENDCHAR
STARTCHAR uni20BC
ENCODING 8380
SWIDTH 575 0
DWIDTH 7 0
BBX 7 7 0 0
BITMAP
001F0000
02CFB100
0C7F7A00
2D1F0E10
5A1F0B40
791F0A50
791F0A50
ENDCHAR
STARTCHAR uni20BD
ENCODING 8381
SWIDTH 583 0
DWIDTH 7 0
BBX 7 9 0 0
BITMAP
0BFFE800
0B502D50
0B500980
0B502D50
BFFFE900
0B500000
BFFE0000
0B500000
0B500000
ENDCHAR
STARTCHAR uni2105
ENCODING 8453
SWIDTH 640 0
DWIDTH 8 0
BBX 7 9 0 0
BITMAP
0BD20000
39341800
39338400
0BE4A000
00093000
002A6E80
00A2C2C0
0180C2C0
00006E80
ENDCHAR
STARTCHAR uni2113
ENCODING 8467
SWIDTH 422 0
DWIDTH 5 0
BBX 5 9 0 0
BITMAP
01CD20
05B970
06AA60
06BE20
07F800
5FB000
05A000
02D100
008900
ENDCHAR
STARTCHAR uni2116
ENCODING 8470
SWIDTH 886 0
DWIDTH 11 0
BBX 10 9 0 0
BITMAP
2F303C1BE5
2F903C592D
2EC13C770D
2E763C5A2D
2E2C3C1BE5
2E0B6C0000
2E05CC4FFC
2E00EC0000
2E008C0000
ENDCHAR
STARTCHAR trademark
ENCODING 8482
SWIDTH 547 0
DWIDTH 7 0
BBX 6 3 0 6
BITMAP
6F9957
072B67
072777
ENDCHAR
STARTCHAR Omega
ENCODING 8486
SWIDTH 581 0
DWIDTH 7 0
BBX 7 9 0 0
BITMAP
02CEA100
0C719A00
3E001F10
5C000E30
5B000D30
4C000E20
1E002D00
08709600
5FF7FF20
ENDCHAR
STARTCHAR estimated
ENCODING 8494
SWIDTH 636 0
DWIDTH 8 0
BBX 7 7 0 0
BITMAP
007ED600
07911A40
0E5007A0
1FFFFFD0
0E500000
08911510
008EE800
ENDCHAR
STARTCHAR oneeighth
ENCODING 8539
SWIDTH 666 0
DWIDTH 8 0
BBX 8 9 0 0
BITMAP
18600000
7D604600
0760B100
07647000
076B4EC1
005677B3
00B03FD0
045086A4
00004ED1
ENDCHAR
STARTCHAR threeeighths
ENCODING 8540
SWIDTH 736 0
DWIDTH 9 0
BBX 9 9 0 0
BITMAP
2DE3000000
2387045000
06F30B1000
3478560000
2DE4B6EA00
00066A5D00
001B06FA00
00550C4D10
000007EB00
ENDCHAR
STARTCHAR fiveeighths
ENCODING 8541
SWIDTH 736 0
DWIDTH 9 0
BBX 8 9 0 0
BITMAP
2FF40000
39000730
4EE31B00
13878400
3DD4A6E9
00093B4D
002A07FA
00720C3D
000007EA
ENDCHAR
STARTCHAR seveneighths
ENCODING 8542
SWIDTH 692 0
DWIDTH 8 0
BBX 8 9 0 0
BITMAP
7FF90000
00841900
00C07500
0681B000
0C284BE4
001A1D68
00930CF4
01903C5A
00001CE5
ENDCHAR
STARTCHAR partialdiff
ENCODING 8706
SWIDTH 497 0
DWIDTH 6 0
BBX 6 9 0 0
BITMAP
0AFC20
0318C0
0000E2
06ECC5
2E32D6
5B00A6
4B00B4
1E33D1
05DD40
ENDCHAR
STARTCHAR Delta
ENCODING 8710
SWIDTH 614 0
DWIDTH 7 0
BBX 7 9 0 0
BITMAP
000D5000
004FA000
0098E000
00D2B400
04C06900
09702E00
0E200C40
4C000880
9FFFFFD0
ENDCHAR
STARTCHAR product
ENCODING 8719
SWIDTH 614 0
DWIDTH 7 0
BBX 7 10 0 -1
BITMAP
1FFFFF70
1F000970
1F000970
1F000970
1F000970
1F000970
1F000970
1F000970
1F000970
1F000970
ENDCHAR
STARTCHAR summation
ENCODING 8721
SWIDTH 513 0
DWIDTH 6 0
BBX 6 11 0 -2
BITMAP
8FFFF9
3D1000
089000
00C400
003D10
000A70
003D10
00C500
08A000
3D1000
8FFFFF
ENDCHAR
STARTCHAR minus
ENCODING 8722
SWIDTH 499 0
DWIDTH 6 0
BBX 6 1 0 4
BITMAP
1FFFF1
ENDCHAR
STARTCHAR radical
ENCODING 8730
SWIDTH 536 0
DWIDTH 6 0
BBX 6 9 0 0
BITMAP
00001E
00006A
0000A5
0000E1
9F44B0
078870
03CD20
00DD00
008800
ENDCHAR
STARTCHAR infinity
ENCODING 8734
SWIDTH 874 0
DWIDTH 10 0
BBX 10 7 0 0
BITMAP
04DD30AE90
1E34D791B6
5B009F104B
69006C003D
5B009E104B
1E34D791B6
04DD30AE90
ENDCHAR
STARTCHAR integral
ENCODING 8747
SWIDTH 235 0
DWIDTH 3 0
BBX 5 11 -1 -2
BITMAP
007E40
00F300
01F000
01F000
01F000
01F000
01F000
01F000
01F000
03E000
2E7000
ENDCHAR
STARTCHAR approxequal
ENCODING 8776
SWIDTH 492 0
DWIDTH 6 0
BBX 6 4 0 1
BITMAP
3DB332
424CC1
3DC332
424CD1
ENDCHAR
STARTCHAR notequal
ENCODING 8800
SWIDTH 479 0
DWIDTH 6 0
BBX 5 7 0 0
BITMAP
000030
000640
2FFFF0
007400
2FFFF0
082000
030000
ENDCHAR
STARTCHAR lessequal
ENCODING 8804
SWIDTH 445 0
DWIDTH 5 0
BBX 5 7 0 0
BITMAP
002860
29C600
6D5000
029C40
000130
000000
9FFF80
ENDCHAR
STARTCHAR greaterequal
ENCODING 8805
SWIDTH 460 0
DWIDTH 6 0
BBX 5 7 0 0
BITMAP
3A4000
03AB50
002AD0
1BB400
130000
000000
3FFFE0
ENDCHAR
STARTCHAR lozenge
ENCODING 9674
SWIDTH 442 0
DWIDTH 5 0
BBX 5 9 0 0
BITMAP
00E400
06CA00
0C3D20
4B0780
9702D0
4C0790
0C3D20
06CB00
00E400
ENDCHAR
STARTCHAR uniEE01
ENCODING 60929
SWIDTH 271 0
DWIDTH 3 0
BBX 2 7 1 1
BITMAP
30
C4
00
00
00
31
C4
ENDCHAR
STARTCHAR uniEE02
ENCODING 60930
SWIDTH 298 0
DWIDTH 4 0
BBX 3 3 0 4
BITMAP
56B0
56B0
56B0
ENDCHAR
STARTCHAR uniF6C3
ENCODING 63171
SWIDTH 235 0
DWIDTH 3 0
BBX 2 2 0 -1
BITMAP
2C
47
ENDCHAR
STARTCHAR uniFB01
ENCODING 64257
SWIDTH 489 0
DWIDTH 6 0
BBX 5 9 0 0
BITMAP
06EE50
0E4110
CFF3F0
0E21F0
0E21F0
0E21F0
0E21F0
0E21F0
0E21F0
ENDCHAR
STARTCHAR uniFB02
ENCODING 64258
SWIDTH 503 0
DWIDTH 6 0
BBX 6 9 0 0
BITMAP
05EEC2
0B61D2
9FF5D2
0C40D2
0C40D2
0C40D2
0C40D2
0C40D2
0C40D2
ENDCHAR
STARTCHAR uniFB03
ENCODING 64259
SWIDTH 744 0
DWIDTH 9 0
BBX 9 9 0 0
BITMAP
05E95EE500
0B60D51100
9FFFFF3F10
0C40D20F10
0C40D20F10
0C40D20F10
0C40D20F10
0C40D20F10
0C40D20F10
ENDCHAR
STARTCHAR uniFB04
ENCODING 64260
SWIDTH 744 0
DWIDTH 9 0
BBX 9 9 0 0
BITMAP
05E96EEB00
0B60D51F10
9FFFFF4F10
0C40D20F10
0C40D20F10
0C40D20F10
0C40D20F10
0C40D20F10
0C40D20F10
ENDCHAR
STARTCHAR uniFEFF
ENCODING 65279
SWIDTH 0 0
DWIDTH 0 0
BBX 1 1 0 0
BITMAP
00
ENDCHAR
STARTCHAR uniFFFC
ENCODING 65532
SWIDTH 1024 0
DWIDTH 12 0
BBX 12 11 0 -2
BITMAP
7F5EA9F4F6ED
73000000000A
000000000000
73000000000A
008E8CE60260
73A1ACF6536A
008E8CF76E40
73000000000A
73000000000A
000000000000
7F5EA9F4F6ED
ENDCHAR
STARTCHAR uniFFFD
ENCODING 65533
SWIDTH 1025 0
DWIDTH 12 0
BBX 12 12 0 -2
BITMAP
000005900000
00004FF80000
0003EFFF7000
003EC218F600
02EFA9A1FF50
2DFFFF55FFF5
2DFFF83FFFF5
02EFFFFFFF50
003EF76FF600
0003EFFF7000
00004FF80000
000005900000
ENDCHAR
STARTCHAR .notdef
ENCODING -1
SWIDTH 392 0
DWIDTH 5 0
BBX 5 9 0 0
BITMAP
5FFE10
420410
431410
425310
407310
425310
431410
410410
5FFE10
ENDCHAR
STARTCHAR glyph369
ENCODING -1
SWIDTH 364 0
DWIDTH 4 0
BBX 4 2 0 7
BITMAP
4A79
1A91
ENDCHAR
STARTCHAR uni2009.locl
ENCODING -1
SWIDTH 124 0
DWIDTH 2 0
BBX 1 1 0 0
BITMAP
00
ENDCHAR
STARTCHAR f_f.dlig
ENCODING -1
SWIDTH 546 0
DWIDTH 7 0
BBX 7 9 0 0
BITMAP
05E98E60
0B60F300
9FFFFF20
0C40F000
0C40F000
0C40F000
0C40F000
0C40F000
0C40F000
ENDCHAR
STARTCHAR longs_t.dlig
ENCODING -1
SWIDTH 544 0
DWIDTH 7 0
BBX 6 9 0 0
BITMAP
05EEB0
0B71F1
9F4EFF
0C40F1
0C40F1
0C40F1
0C40F1
0C40E2
06209E
ENDCHAR
STARTCHAR s_t.dlig
ENCODING -1
SWIDTH 710 0
DWIDTH 9 0
BBX 9 9 0 0
BITMAP
0005DE8000
000972F100
09EE7DFF10
3D1580E200
1DC400E200
017E60E200
2405C0E200
3D16B0D300
08ED308E10
ENDCHAR
STARTCHAR two.dnom
ENCODING -1
SWIDTH 329 0
DWIDTH 4 0
BBX 4 5 0 0
BITMAP
3DD2
5595
02C1
1C20
7FF8
ENDCHAR
STARTCHAR one.dnom
ENCODING -1
SWIDTH 329 0
DWIDTH 4 0
BBX 3 5 0 0
BITMAP
0780
4D90
0490
0490
0490
ENDCHAR
STARTCHAR zero.dnom
ENCODING -1
SWIDTH 329 0
DWIDTH 4 0
BBX 4 5 0 0
BITMAP
2DC1
6786
7567
7796
2DD1
ENDCHAR
STARTCHAR nine.c2sc
ENCODING -1
SWIDTH 447 0
DWIDTH 5 0
BBX 5 7 0 0
BITMAP
09EB10
4C1A70
7906A0
5C19A0
0AEC80
002C30
08D600
ENDCHAR
STARTCHAR eight.c2sc
ENCODING -1
SWIDTH 447 0
DWIDTH 5 0
BBX 5 7 0 0
BITMAP
1BFD30
3E2980
0AFE20
3D1980
6A04B0
4D1890
09EC20
ENDCHAR
STARTCHAR seven.c2sc
ENCODING -1
SWIDTH 447 0
DWIDTH 5 0
BBX 5 7 0 0
BITMAP
8FFFD0
000680
000D20
004B00
00B500
02D000
098000
ENDCHAR
STARTCHAR six.c2sc
ENCODING -1
SWIDTH 447 0
DWIDTH 5 0
BBX 5 7 0 0
BITMAP
02BD00
0D5100
3DDD30
5D27B0
5B03C0
2E27A0
07EC20
ENDCHAR
STARTCHAR five.c2sc
ENCODING -1
SWIDTH 447 0
DWIDTH 5 0
BBX 5 7 0 0
BITMAP
0CFF90
0E1000
1EDD30
0007B0
1302D0
2E27B0
06ED30
ENDCHAR
STARTCHAR four.c2sc
ENCODING -1
SWIDTH 447 0
DWIDTH 5 0
BBX 5 7 0 0
BITMAP
002F30
00AE30
03BC30
0B3C30
4A0C30
AFFFF0
000C30
ENDCHAR
STARTCHAR three.c2sc
ENCODING -1
SWIDTH 447 0
DWIDTH 5 0
BBX 5 7 0 0
BITMAP
0AEC20
5B1A80
000A70
03FE10
000890
6B1890
1BEC20
ENDCHAR
STARTCHAR two.c2sc
ENCODING -1
SWIDTH 447 0
DWIDTH 5 0
BBX 5 7 0 0
BITMAP
0AEC20
6B1990
110780
002E20
01D600
1C6000
6FFFE0
ENDCHAR
STARTCHAR one.c2sc
ENCODING -1
SWIDTH 447 0
DWIDTH 5 0
BBX 4 7 0 0
BITMAP
04A7
2BC7
0087
0087
0087
0087
0087
ENDCHAR
STARTCHAR zero.c2sc
ENCODING -1
SWIDTH 447 0
DWIDTH 5 0
BBX 5 7 0 0
BITMAP
08EB10
3D1980
5A04B0
6904C0
5A04B0
2D1980
08EB10
ENDCHAR
STARTCHAR Z.c2sc
ENCODING -1
SWIDTH 454 0
DWIDTH 5 0
BBX 5 7 0 0
BITMAP
8FFFD0
000970
004C00
00D300
089000
2D1000
8FFFF0
ENDCHAR
STARTCHAR Y.c2sc
ENCODING -1
SWIDTH 458 0
DWIDTH 6 0
BBX 6 7 0 0
BITMAP
9801E2
2E17A0
0A6D30
04EB00
00D500
00C400
00C400
ENDCHAR
STARTCHAR X.c2sc
ENCODING -1
SWIDTH 478 0
DWIDTH 6 0
BBX 6 7 0 0
BITMAP
6C02E2
0C4980
04DE10
00D900
05CE20
0D4890
6C01E3
ENDCHAR
STARTCHAR W.c2sc
ENCODING -1
SWIDTH 655 0
DWIDTH 8 0
BBX 8 7 0 0
BITMAP
87098087
5A0CB0B4
2C1CC0D1
0E4894D0
0BA56AA0
08E12F70
05D00E40
ENDCHAR
STARTCHAR V.c2sc
ENCODING -1
SWIDTH 487 0
DWIDTH 6 0
BBX 6 7 0 0
BITMAP
A70097
5B00D2
1E13D0
0A5780
059B30
01DD00
00B800
ENDCHAR
STARTCHAR U.c2sc
ENCODING -1
SWIDTH 488 0
DWIDTH 6 0
BBX 6 7 0 0
BITMAP
5A00C4
5A00C4
5A00C4
5A00C4
5A00C3
3E23E1
07EE60
ENDCHAR
STARTCHAR T.c2sc
ENCODING -1
SWIDTH 456 0
DWIDTH 5 0
BBX 6 7 0 0
BITMAP
AFFFF2
00C400
00C400
00C400
00C400
00C400
00C400
ENDCHAR
STARTCHAR S.c2sc
ENCODING -1
SWIDTH 453 0
DWIDTH 5 0
BBX 5 7 0 0
BITMAP
09ED30
4C15D0
3E4030
06DD30
2205D0
6B14E0
08ED50
ENDCHAR
STARTCHAR R.c2sc
ENCODING -1
SWIDTH 465 0
DWIDTH 6 0
BBX 6 7 0 0
BITMAP
4FFE60
4C03F1
4C03E1
4FFF60
4C0C50
4C05B0
4C00E3
ENDCHAR
STARTCHAR Q.c2sc
ENCODING -1
SWIDTH 519 0
DWIDTH 6 0
BBX 6 8 0 -1
BITMAP
05DE70
2E32D3
6A0088
790069
5A0088
2E32D4
05DFC0
0001A6
ENDCHAR
STARTCHAR P.c2sc
ENCODING -1
SWIDTH 481 0
DWIDTH 6 0
BBX 6 7 0 0
BITMAP
4FFE90
4C01D4
4C02D4
4FFE90
4C0000
4C0000
4C0000
ENDCHAR
STARTCHAR O.c2sc
ENCODING -1
SWIDTH 519 0
DWIDTH 6 0
BBX 6 7 0 0
BITMAP
05DE70
1E32D4
5A0078
69006A
5A0078
1E32D4
05DE70
ENDCHAR
STARTCHAR N.c2sc
ENCODING -1
SWIDTH 533 0
DWIDTH 6 0
BBX 6 7 0 0
BITMAP
4E1069
4F9069
4CC269
4C4A69
4C0B99
4C03F9
4C00A9
ENDCHAR
STARTCHAR M.c2sc
ENCODING -1
SWIDTH 652 0
DWIDTH 8 0
BBX 8 7 0 0
BITMAP
4F4007F1
4F900CF1
4CD02CE1
4BA477E1
4C59B2E1
4C1DC0F1
4C0A70F1
ENDCHAR
STARTCHAR L.c2sc
ENCODING -1
SWIDTH 411 0
DWIDTH 5 0
BBX 5 7 0 0
BITMAP
4C0000
4C0000
4C0000
4C0000
4C0000
4C0000
4FFF90
ENDCHAR
STARTCHAR K.c2sc
ENCODING -1
SWIDTH 473 0
DWIDTH 6 0
BBX 6 7 0 0
BITMAP
4C03E2
4C1D60
4CA900
4FF600
4E4E20
4C08A0
4C01D5
ENDCHAR
STARTCHAR J.c2sc
ENCODING -1
SWIDTH 419 0
DWIDTH 5 0
BBX 5 7 0 0
BITMAP
000B50
000B50
000B50
000B50
000B50
981E30
2CE900
ENDCHAR
STARTCHAR I.c2sc
ENCODING -1
SWIDTH 221 0
DWIDTH 3 0
BBX 2 7 0 0
BITMAP
3D
3D
3D
3D
3D
3D
3D
ENDCHAR
STARTCHAR H.c2sc
ENCODING -1
SWIDTH 533 0
DWIDTH 6 0
BBX 6 7 0 0
BITMAP
4C0069
4C0069
4C0069
4FFFF9
4C0069
4C0069
4C0069
ENDCHAR
STARTCHAR G.c2sc
ENCODING -1
SWIDTH 509 0
DWIDTH 6 0
BBX 6 7 0 0
BITMAP
05DE80
2E31D4
5A0011
690DF7
5B0097
1E41B7
04DFB1
ENDCHAR
STARTCHAR F.c2sc
ENCODING -1
SWIDTH 415 0
DWIDTH 5 0
BBX 5 7 0 0
BITMAP
4FFFA0
4C0000
4C0000
4FFF40
4C0000
4C0000
4C0000
ENDCHAR
STARTCHAR dollar.c2sc
ENCODING -1
SWIDTH 453 0
DWIDTH 5 0
BBX 5 11 0 -2
BITMAP
002100
009400
09FD40
4C14D0
3D4010
06DD30
1105D0
7B14E0
1AFE50
009400
003100
ENDCHAR
STARTCHAR sterling.c2sc
ENCODING -1
SWIDTH 467 0
DWIDTH 6 0
BBX 6 7 0 0
BITMAP
04DE50
0C55D0
0E2010
AFFF20
0D2000
0E1000
4FFFF2
ENDCHAR
STARTCHAR yen.c2sc
ENCODING -1
SWIDTH 400 0
DWIDTH 5 0
BBX 5 7 0 0
BITMAP
970A60
2C1D00
097600
7FFF30
02D000
7FFF30
02D000
ENDCHAR
STARTCHAR Gamma.c2sc
ENCODING -1
SWIDTH 405 0
DWIDTH 5 0
BBX 5 7 0 0
BITMAP
4FFF80
4C0000
4C0000
4C0000
4C0000
4C0000
4C0000
ENDCHAR
STARTCHAR Delta.c2sc
ENCODING -1
SWIDTH 487 0
DWIDTH 6 0
BBX 6 7 0 0
BITMAP
00B800
01DD00
059B30
0A4780
1E12D0
5B00D2
AFFFF7
ENDCHAR
STARTCHAR Theta.c2sc
ENCODING -1
SWIDTH 519 0
DWIDTH 6 0
BBX 6 7 0 0
BITMAP
05DE70
1E32D4
5A0078
69FFAA
5A0078
1E32D4
05DE70
ENDCHAR
STARTCHAR Lambda.c2sc
ENCODING -1
SWIDTH 487 0
DWIDTH 6 0
BBX 6 7 0 0
BITMAP
00B800
01DD00
059B30
0A5780
1E13D0
5B00D2
A70097
ENDCHAR
STARTCHAR Xi.c2sc
ENCODING -1
SWIDTH 389 0
DWIDTH 5 0
BBX 5 7 0 0
BITMAP
9FFF40
000000
000000
4FFE00
000000
000000
9FFF40
ENDCHAR
STARTCHAR Pi.c2sc
ENCODING -1
SWIDTH 525 0
DWIDTH 6 0
BBX 6 7 0 0
BITMAP
4FFFF8
4C0088
4C0088
4C0088
4C0088
4C0088
4C0088
ENDCHAR
STARTCHAR Sigma.c2sc
ENCODING -1
SWIDTH 435 0
DWIDTH 5 0
BBX 5 7 0 0
BITMAP
8FFFA0
3D1000
09A000
02F200
09A000
3E1000
8FFFE0
ENDCHAR
STARTCHAR Phi.c2sc
ENCODING -1
SWIDTH 587 0
DWIDTH 7 0
BBX 7 7 0 0
BITMAP
000F1000
06DFD700
3D2F3D40
690F1970
3D2F3D40
06DFD700
000F1000
ENDCHAR
STARTCHAR Psi.c2sc
ENCODING -1
SWIDTH 560 0
DWIDTH 7 0
BBX 7 7 0 0
BITMAP
692D0D20
692D0D20
5A2D0E10
2E5D7C00
05DFC200
002D0000
002D0000
ENDCHAR
STARTCHAR Omega.c2sc
ENCODING -1
SWIDTH 540 0
DWIDTH 6 0
BBX 6 7 0 0
BITMAP
04DE90
1E41B7
4C004B
5B003C
2C005A
0B51B3
4FF7FC
ENDCHAR
STARTCHAR uni0402.c2sc
ENCODING -1
SWIDTH 596 0
DWIDTH 7 0
BBX 7 7 0 0
BITMAP
AFFFC000
00F10000
00FDFB10
00F31980
00F106A0
00F10980
00F19B10
ENDCHAR
STARTCHAR uni0404.c2sc
ENCODING -1
SWIDTH 490 0
DWIDTH 6 0
BBX 6 7 0 0
BITMAP
05DE70
1E31D3
5A0032
6FFA00
5A0032
2E31D3
05DE70
ENDCHAR
STARTCHAR uni0409.c2sc
ENCODING -1
SWIDTH 782 0
DWIDTH 9 0
BBX 9 7 0 0
BITMAP
07FFF70000
0880870000
0870870000
09708FFD40
09608705D0
1D308705D0
AA008FFD40
ENDCHAR
STARTCHAR uni040A.c2sc
ENCODING -1
SWIDTH 788 0
DWIDTH 9 0
BBX 9 7 0 0
BITMAP
4C00780000
4C00780000
4C00780000
4FFFFFFD50
4C007804E0
4C007804E0
4C007FFD50
ENDCHAR
STARTCHAR uni040B.c2sc
ENCODING -1
SWIDTH 596 0
DWIDTH 7 0
BBX 7 7 0 0
BITMAP
AFFFC000
00F10000
00FDFB10
00F31A70
00F105A0
00F105A0
00F105A0
ENDCHAR
STARTCHAR uni040F.c2sc
ENCODING -1
SWIDTH 524 0
DWIDTH 6 0
BBX 6 9 0 -2
BITMAP
4C0088
4C0088
4C0088
4C0088
4C0088
4C0088
4FFFF8
005A00
005A00
ENDCHAR
STARTCHAR uni0411.c2sc
ENCODING -1
SWIDTH 479 0
DWIDTH 6 0
BBX 6 7 0 0
BITMAP
4FFFA0
4C0000
4C0000
4FFE80
4C02E2
4C02E2
4FFE80
ENDCHAR
STARTCHAR uni0414.c2sc
ENCODING -1
SWIDTH 563 0
DWIDTH 7 0
BBX 7 9 0 -2
BITMAP
04FFFA00
04B05A00
05B05A00
06905A00
08705A00
0E205A00
AFFFFF60
A6000A60
A6000A60
ENDCHAR
STARTCHAR uni0416.c2sc
ENCODING -1
SWIDTH 651 0
DWIDTH 8 0
BBX 8 7 0 0
BITMAP
5D0971E2
0D5978A0
05C97E20
01FFFD00
07B97D50
1E4977C0
7C0971E5
ENDCHAR
STARTCHAR uni0417.c2sc
ENCODING -1
SWIDTH 466 0
DWIDTH 6 0
BBX 5 7 0 0
BITMAP
1AED40
5A16C0
0005B0
00FF20
0005C0
7B15D0
1BED40
ENDCHAR
STARTCHAR uni0418.c2sc
ENCODING -1
SWIDTH 537 0
DWIDTH 6 0
BBX 6 7 0 0
BITMAP
4C00AA
4C03FA
4C0BAA
4C5B5A
4CD35A
4F905A
4E205A
ENDCHAR
STARTCHAR uni041A.c2sc
ENCODING -1
SWIDTH 473 0
DWIDTH 6 0
BBX 6 7 0 0
BITMAP
4C04D1
4C0D40
4C7900
4FF300
4C7B00
4C0C60
4C04E2
ENDCHAR
STARTCHAR uni041B.c2sc
ENCODING -1
SWIDTH 521 0
DWIDTH 6 0
BBX 6 7 0 0
BITMAP
07FFF7
088087
087087
097087
0A6087
1D3087
AA0087
ENDCHAR
STARTCHAR uni0423.c2sc
ENCODING -1
SWIDTH 454 0
DWIDTH 5 0
BBX 6 7 0 0
BITMAP
8A02F1
3E06A0
0C4B50
079E00
01F900
01D400
0DA000
ENDCHAR
STARTCHAR uni0426.c2sc
ENCODING -1
SWIDTH 564 0
DWIDTH 7 0
BBX 7 9 0 -2
BITMAP
4C008800
4C008800
4C008800
4C008800
4C008800
4C008800
4FFFFF60
00000960
00000950
ENDCHAR
STARTCHAR uni0427.c2sc
ENCODING -1
SWIDTH 487 0
DWIDTH 6 0
BBX 6 7 0 0
BITMAP
9700E1
9700E1
9700E1
6B12F1
1AEDF1
0000E1
0000E1
ENDCHAR
STARTCHAR uni0428.c2sc
ENCODING -1
SWIDTH 691 0
DWIDTH 8 0
BBX 8 7 0 0
BITMAP
4C06A088
4C06A088
4C06A088
4C06A088
4C06A088
4C06A088
4FFFFFF8
ENDCHAR
STARTCHAR uni0429.c2sc
ENCODING -1
SWIDTH 731 0
DWIDTH 9 0
BBX 9 9 0 -2
BITMAP
4C06A08800
4C06A08800
4C06A08800
4C06A08800
4C06A08800
4C06A08800
4FFFFFFF60
0000000960
0000000950
ENDCHAR
STARTCHAR uni042A.c2sc
ENCODING -1
SWIDTH 559 0
DWIDTH 7 0
BBX 7 7 0 0
BITMAP
CFC00000
04C00000
04C00000
04FFE800
04C01E20
04C02E20
04FFE800
ENDCHAR
STARTCHAR uni042B.c2sc
ENCODING -1
SWIDTH 658 0
DWIDTH 8 0
BBX 8 7 0 0
BITMAP
4C0000E2
4C0000E2
4C0000E2
4FFE80E2
4C02E2E2
4C02E2E2
4FFE80E2
ENDCHAR
STARTCHAR uni042C.c2sc
ENCODING -1
SWIDTH 475 0
DWIDTH 6 0
BBX 6 7 0 0
BITMAP
4C0000
4C0000
4C0000
4FFE80
4C02E2
4C02E2
4FFE80
ENDCHAR
STARTCHAR uni042D.c2sc
ENCODING -1
SWIDTH 491 0
DWIDTH 6 0
BBX 6 7 0 0
BITMAP
09ED40
5C14D1
2300C3
00CFF5
2200C4
5C14E1
09ED40
ENDCHAR
STARTCHAR uni042E.c2sc
ENCODING -1
SWIDTH 705 0
DWIDTH 8 0
BBX 8 7 0 0
BITMAP
4C02CE90
4C0C61A7
4C1E004C
4FFD002D
4C2E003C
4C0C61A7
4C03CEA1
ENDCHAR
STARTCHAR uni042F.c2sc
ENCODING -1
SWIDTH 499 0
DWIDTH 6 0
BBX 6 7 0 0
BITMAP
08EFF3
2E20C3
2E10C3
07FFF3
06A0C3
0D30C3
4C00C3
ENDCHAR
STARTCHAR uni0492.c2sc
ENCODING -1
SWIDTH 444 0
DWIDTH 5 0
BBX 5 7 0 0
BITMAP
0CFFF0
0C4000
0C4000
CFF500
0C4000
0C4000
0C4000
ENDCHAR
STARTCHAR uni0496.c2sc
ENCODING -1
SWIDTH 676 0
DWIDTH 8 0
BBX 8 9 0 -2
BITMAP
5D0971E2
0D5978A0
05C97E20
01FFFD00
07B97D50
1E4977D0
7C0971ED
0000001D
0000001D
ENDCHAR
STARTCHAR uni049A.c2sc
ENCODING -1
SWIDTH 492 0
DWIDTH 6 0
BBX 6 9 0 -2
BITMAP
4C04D1
4C0D40
4C7900
4FF300
4C7C00
4C0C70
4C04F9
000059
000059
ENDCHAR
STARTCHAR uni049C.c2sc
ENCODING -1
SWIDTH 562 0
DWIDTH 7 0
BBX 7 7 0 0
BITMAP
4C003E10
4C40C500
4CC6A000
4FFF4000
4CC6C000
4C20C700
4C003E20
ENDCHAR
STARTCHAR uni04A0.c2sc
ENCODING -1
SWIDTH 571 0
DWIDTH 7 0
BBX 7 7 0 0
BITMAP
AFF02E20
01F0B700
01F5C000
01FF6000
01F4D100
01F0A900
01F02E40
ENDCHAR
STARTCHAR uni04A8.c2sc
ENCODING -1
SWIDTH 625 0
DWIDTH 8 0
BBX 7 7 0 0
BITMAP
06B5EC10
2E2E3980
5A1E05A0
691E05B0
4B0D1790
1D569D40
03CFFF90
ENDCHAR
STARTCHAR uni04B0.c2sc
ENCODING -1
SWIDTH 480 0
DWIDTH 6 0
BBX 6 7 0 0
BITMAP
9801E2
2E17A0
0A6D30
04EB00
0DFF50
00C400
00C400
ENDCHAR
STARTCHAR uni04B2.c2sc
ENCODING -1
SWIDTH 514 0
DWIDTH 6 0
BBX 6 9 0 -2
BITMAP
6C02E2
0C4980
04DE10
00D900
05CE20
0D48A0
6C01EC
00002C
00002C
ENDCHAR
STARTCHAR uni04B4.c2sc
ENCODING -1
SWIDTH 695 0
DWIDTH 8 0
BBX 8 9 0 -2
BITMAP
AFFFC4C0
00F104C0
00F104C0
00F104C0
00F104C0
00F104C0
00FFFFFA
0000005A
00000059
ENDCHAR
STARTCHAR uni04B8.c2sc
ENCODING -1
SWIDTH 487 0
DWIDTH 6 0
BBX 6 7 0 0
BITMAP
9700E1
9700E1
9741E1
6BA4F1
1AFDF1
00A2E1
0010E1
ENDCHAR
STARTCHAR uni04BA.c2sc
ENCODING -1
SWIDTH 487 0
DWIDTH 6 0
BBX 6 7 0 0
BITMAP
4C0000
4C0000
4EDE90
4D21D4
4C0096
4C0097
4C0097
ENDCHAR
STARTCHAR uni04BC.c2sc
ENCODING -1
SWIDTH 632 0
DWIDTH 8 0
BBX 7 7 0 0
BITMAP
002BEB20
40C718A0
B5E001E0
3DFFFFF0
01E00000
00C71310
002BED20
ENDCHAR
STARTCHAR uni04D8.c2sc
ENCODING -1
SWIDTH 527 0
DWIDTH 6 0
BBX 6 7 0 0
BITMAP
07EE80
0312C5
00005A
6FFFFB
5A005A
2E31C6
05DE80
ENDCHAR
STARTCHAR uni04E0.c2sc
ENCODING -1
SWIDTH 466 0
DWIDTH 6 0
BBX 5 7 0 0
BITMAP
5FFFB0
001D40
009800
00EC30
0005D0
6B15D0
1BED40
ENDCHAR
STARTCHAR uni04E8.c2sc
ENCODING -1
SWIDTH 519 0
DWIDTH 6 0
BBX 6 7 0 0
BITMAP
05DE70
1E32D4
5A0078
6FFFFA
5A0078
1E32D4
05DE70
ENDCHAR
STARTCHAR lira.c2sc
ENCODING -1
SWIDTH 467 0
DWIDTH 6 0
BBX 6 7 0 0
BITMAP
06EE90
0D5010
AFFF20
0D2000
AFFF20
1E1000
4FFFF2
ENDCHAR
STARTCHAR Euro.c2sc
ENCODING -1
SWIDTH 433 0
DWIDTH 5 0
BBX 5 7 0 0
BITMAP
02BE90
0A8010
8FFF30
0C3000
8FFF30
0A8010
02CE90
ENDCHAR
STARTCHAR uni2116.c2sc
ENCODING -1
SWIDTH 884 0
DWIDTH 11 0
BBX 10 7 0 0
BITMAP
4E10692CE5
4F9069783D
4CC269783D
4C4A692CE5
4C0B990000
4C03F93FF8
4C00A90000
ENDCHAR
STARTCHAR uni20BD.c2sc
ENCODING -1
SWIDTH 512 0
DWIDTH 6 0
BBX 6 7 0 0
BITMAP
0BFFC2
0B408A
0B408A
AFFFC2
0B4000
AFF800
0B4000
ENDCHAR
STARTCHAR three.dnom
ENCODING -1
SWIDTH 329 0
DWIDTH 4 0
BBX 4 5 0 0
BITMAP
3ED1
22A4
09E1
4395
4ED2
ENDCHAR
STARTCHAR four.dnom
ENCODING -1
SWIDTH 329 0
DWIDTH 4 0
BBX 4 5 0 0
BITMAP
02F1
0AE1
38C1
9FF8
00C1
ENDCHAR
STARTCHAR five.dnom
ENCODING -1
SWIDTH 329 0
DWIDTH 4 0
BBX 4 5 0 0
BITMAP
2FF4
3800
5EE3
1387
3DD2
ENDCHAR
STARTCHAR six.dnom
ENCODING -1
SWIDTH 329 0
DWIDTH 4 0
BBX 4 5 0 0
BITMAP
09C0
4B10
7DE3
6887
1DD3
ENDCHAR
STARTCHAR seven.dnom
ENCODING -1
SWIDTH 329 0
DWIDTH 4 0
BBX 4 5 0 0
BITMAP
9FF7
00A2
01B0
0760
0D10
ENDCHAR
STARTCHAR eight.dnom
ENCODING -1
SWIDTH 329 0
DWIDTH 4 0
BBX 4 5 0 0
BITMAP
2DD1
59A4
2FE1
7896
3ED2
ENDCHAR
STARTCHAR nine.dnom
ENCODING -1
SWIDTH 329 0
DWIDTH 4 0
BBX 4 5 0 0
BITMAP
3DC1
7895
3EE6
01C3
0C90
ENDCHAR
STARTCHAR glyph550
ENCODING -1
SWIDTH 404 0
DWIDTH 5 0
BBX 4 1 0 4
BITMAP
2FFF
ENDCHAR
STARTCHAR glyph551
ENCODING -1
SWIDTH 306 0
DWIDTH 4 0
BBX 3 4 1 6
BITMAP
1D10
4600
D600
D600
ENDCHAR
STARTCHAR E.c2sc
ENCODING -1
SWIDTH 428 0
DWIDTH 5 0
BBX 5 7 0 0
BITMAP
4FFFB0
4C0000
4C0000
4FFF50
4C0000
4C0000
4FFFC0
ENDCHAR
STARTCHAR g.ss01
ENCODING -1
SWIDTH 463 0
DWIDTH 6 0
BBX 6 9 0 -2
BITMAP
0AEFF4
6B17B0
6B17B0
0CEC30
2C0000
2FFE90
9601E3
B704E1
3CFD40
ENDCHAR
STARTCHAR alpha.ss02
ENCODING -1
SWIDTH 523 0
DWIDTH 6 0
BBX 6 7 0 0
BITMAP
06EB78
1E36E6
4B00E4
6A00C2
5B00E4
2E36E6
07EB69
ENDCHAR
STARTCHAR R.ss03
ENCODING -1
SWIDTH 577 0
DWIDTH 7 0
BBX 6 9 1 0
BITMAP
FFFD40
F106D0
F101F0
F106C0
FFFF40
F107C0
F102F0
F101F0
F100E3
ENDCHAR
STARTCHAR K.ss04
ENCODING -1
SWIDTH 560 0
DWIDTH 7 0
BBX 6 9 1 0
BITMAP
F103E2
F11D60
F18B00
F7E200
FAE100
F1A900
F12E30
F108B0
F101E5
ENDCHAR
STARTCHAR k.ss04
ENCODING -1
SWIDTH 453 0
DWIDTH 5 0
BBX 6 9 0 0
BITMAP
3D0000
3D0000
3D06C0
3D0C40
3D5B00
3FF600
3D4D00
3D0B70
3D02E2
ENDCHAR
STARTCHAR K.ss05
ENCODING -1
SWIDTH 572 0
DWIDTH 7 0
BBX 6 9 1 0
BITMAP
F106D1
F12E40
F1C800
F9C000
FF5000
F7D100
F1AA00
F11D60
F103E3
ENDCHAR
STARTCHAR k.ss05
ENCODING -1
SWIDTH 454 0
DWIDTH 5 0
BBX 5 9 0 0
BITMAP
3D0000
3D0000
3D09A0
3D3D10
3DB400
3FD100
3DD800
3D3E30
3D06D0
ENDCHAR
STARTCHAR D.c2sc
ENCODING -1
SWIDTH 492 0
DWIDTH 6 0
BBX 6 7 0 0
BITMAP
4FFC30
4C05D0
4C00C3
4C00B5
4C00C3
4C06D0
4FFC30
ENDCHAR
STARTCHAR C.c2sc
ENCODING -1
SWIDTH 490 0
DWIDTH 6 0
BBX 6 7 0 0
BITMAP
05DE70
1E32D3
5A0043
690000
5A0042
2E32D3
05DE70
ENDCHAR
STARTCHAR B.c2sc
ENCODING -1
SWIDTH 475 0
DWIDTH 6 0
BBX 6 7 0 0
BITMAP
4FFD50
4C04D0
4C04C0
4FFF60
4C02E1
4C02F1
4FFE70
ENDCHAR
STARTCHAR A.c2sc
ENCODING -1
SWIDTH 501 0
DWIDTH 6 0
BBX 6 7 0 0
BITMAP
009A00
00DD00
04A950
0944A0
0EFFE0
4A00A5
96006A
ENDCHAR
STARTCHAR glyph564
ENCODING -1
SWIDTH 236 0
DWIDTH 3 0
BBX 3 3 0 6
BITMAP
0820
0E00
1E00
ENDCHAR
STARTCHAR glyph565
ENCODING -1
SWIDTH 402 0
DWIDTH 5 0
BBX 4 4 0 7
BITMAP
0840
0260
3B4A
0AE4
ENDCHAR
STARTCHAR glyph566
ENCODING -1
SWIDTH 0 0
DWIDTH 0 0
BBX 4 3 -5 7
BITMAP
00A1
0C66
18C4
ENDCHAR
STARTCHAR glyph567
ENCODING -1
SWIDTH 455 0
DWIDTH 5 0
BBX 6 3 0 7
BITMAP
000079
05E7A2
1C3C20
ENDCHAR
STARTCHAR glyph568
ENCODING -1
SWIDTH 454 0
DWIDTH 5 0
BBX 6 3 -1 7
BITMAP
880000
1B6E60
02C3C2
ENDCHAR
STARTCHAR glyph569
ENCODING -1
SWIDTH 446 0
DWIDTH 5 0
BBX 6 4 0 7
BITMAP
0001A0
0000B1
07D9A0
2B1B20
ENDCHAR
STARTCHAR glyph570
ENCODING -1
SWIDTH 453 0
DWIDTH 5 0
BBX 5 5 0 7
BITMAP
087600
068700
000000
06E600
2C2C20
ENDCHAR
STARTCHAR uni0490.c2sc
ENCODING -1
SWIDTH 405 0
DWIDTH 5 0
BBX 5 9 0 0
BITMAP
000670
000780
4FFF80
4C0000
4C0000
4C0000
4C0000
4C0000
4C0000
ENDCHAR
STARTCHAR glyph572
ENCODING -1
SWIDTH 404 0
DWIDTH 5 0
BBX 4 4 0 7
BITMAP
00A2
0090
3B4A
0AE4
ENDCHAR
STARTCHAR glyph573
ENCODING -1
SWIDTH 404 0
DWIDTH 5 0
BBX 4 5 0 7
BITMAP
01A1
01B3
02B0
3A59
0BE3
ENDCHAR
STARTCHAR zero.numr
ENCODING -1
SWIDTH 329 0
DWIDTH 4 0
BBX 4 5 0 4
BITMAP
2DC1
6786
7567
7796
2DD1
ENDCHAR
STARTCHAR four.numr
ENCODING -1
SWIDTH 329 0
DWIDTH 4 0
BBX 4 5 0 4
BITMAP
02F1
0AE1
38C1
9FF8
00C1
ENDCHAR
STARTCHAR five.numr
ENCODING -1
SWIDTH 329 0
DWIDTH 4 0
BBX 4 5 0 4
BITMAP
2FF4
3800
5EE3
1387
3DD2
ENDCHAR
STARTCHAR six.numr
ENCODING -1
SWIDTH 329 0
DWIDTH 4 0
BBX 4 5 0 4
BITMAP
09C0
4B10
7DE3
6887
1DD3
ENDCHAR
STARTCHAR seven.numr
ENCODING -1
SWIDTH 329 0
DWIDTH 4 0
BBX 4 5 0 4
BITMAP
9FF7
00A2
01B0
0760
0D10
ENDCHAR
STARTCHAR eight.numr
ENCODING -1
SWIDTH 329 0
DWIDTH 4 0
BBX 4 5 0 4
BITMAP
2DD1
59A4
2FE1
7896
3ED2
ENDCHAR
STARTCHAR nine.numr
ENCODING -1
SWIDTH 329 0
DWIDTH 4 0
BBX 4 5 0 4
BITMAP
3DC1
7895
3EE6
01C3
0C90
ENDCHAR
STARTCHAR C.ss06
ENCODING -1
SWIDTH 603 0
DWIDTH 7 0
BBX 7 9 0 0
BITMAP
009ED600
09B13E30
0E200770
3D000000
4C000000
3E000000
0E200770
08B12D30
008ED600
ENDCHAR
STARTCHAR G.ss06
ENCODING -1
SWIDTH 618 0
DWIDTH 7 0
BBX 7 9 0 0
BITMAP
009ED600
08B13D40
0E200650
3D000000
4C000000
3E00FF90
0E300790
08C21990
008EEA20
ENDCHAR
STARTCHAR D.ss06
ENCODING -1
SWIDTH 608 0
DWIDTH 7 0
BBX 6 9 1 0
BITMAP
FFEA10
F119B0
F100D4
F10097
F10088
F100A7
F100D4
F129B0
FFEA10
ENDCHAR
STARTCHAR O.ss06
ENCODING -1
SWIDTH 643 0
DWIDTH 8 0
BBX 7 9 0 0
BITMAP
008ED500
07B13E30
0E2007A0
3D0003D0
4C0002E0
3D0003D0
0E2007A0
08B13E30
008ED500
ENDCHAR
STARTCHAR Q.ss06
ENCODING -1
SWIDTH 644 0
DWIDTH 8 0
BBX 7 11 0 -2
BITMAP
008ED500
07B13E30
0E2007A0
3D0003D0
4C0002E0
3D0003D0
0E2007A0
08B13E30
008EF900
00003D50
00000200
ENDCHAR
STARTCHAR one.oldstyle.pnum
ENCODING -1
SWIDTH 421 0
DWIDTH 5 0
BBX 4 7 0 0
BITMAP
039A
1B8B
004B
004B
004B
004B
004B
ENDCHAR
STARTCHAR two.oldstyle.pnum
ENCODING -1
SWIDTH 492 0
DWIDTH 6 0
BBX 6 7 0 0
BITMAP
05EE60
1E33E0
1501E0
000A70
009A00
07B000
1FFFF5
ENDCHAR
STARTCHAR three.oldstyle.pnum
ENCODING -1
SWIDTH 474 0
DWIDTH 6 0
BBX 5 9 0 -2
BITMAP
7FFFE0
000B50
008800
01FC20
0018B0
0001E0
0002D0
421A90
6DE910
ENDCHAR
STARTCHAR four.oldstyle.pnum
ENCODING -1
SWIDTH 524 0
DWIDTH 6 0
BBX 6 9 0 -2
BITMAP
0006F0
001DF0
0078F0
01D2F0
0961F0
2D01F0
8FFFFE
0001F0
0001F0
ENDCHAR
STARTCHAR five.oldstyle.pnum
ENCODING -1
SWIDTH 483 0
DWIDTH 6 0
BBX 6 9 0 -2
BITMAP
0CFFF3
0D1000
0E0000
2EDD40
2A15E0
0000D2
0000E2
2417C0
2BEC30
ENDCHAR
STARTCHAR seven.oldstyle.pnum
ENCODING -1
SWIDTH 458 0
DWIDTH 6 0
BBX 6 9 0 -2
BITMAP
8FFFF1
0003C0
000870
000D10
004B00
00A600
01E100
06A000
0B4000
ENDCHAR
STARTCHAR glyph592
ENCODING -1
SWIDTH 402 0
DWIDTH 5 0
BBX 4 5 0 7
BITMAP
0B57
06B5
0000
3B4A
0BE3
ENDCHAR
STARTCHAR glyph593
ENCODING -1
SWIDTH 183 0
DWIDTH 2 0
BBX 2 3 0 -2
BITMAP
79
79
79
ENDCHAR
STARTCHAR OE.c2sc
ENCODING -1
SWIDTH 714 0
DWIDTH 9 0
BBX 9 7 0 0
BITMAP
05DFFFFF30
1E30C40000
5A00C40000
6900CFFC00
5A00C40000
1E30C40000
05DFFFFF30
ENDCHAR
STARTCHAR nine.oldstyle.pnum
ENCODING -1
SWIDTH 520 0
DWIDTH 6 0
BBX 6 9 0 -2
BITMAP
04DE70
0D52D3
2D0087
2D0078
0D52C8
04DED8
0000B5
0216D1
08EC30
ENDCHAR
STARTCHAR glyph596
ENCODING -1
SWIDTH 234 0
DWIDTH 3 0
BBX 3 3 -1 -2
BITMAP
00F0
03E0
2E80
ENDCHAR
STARTCHAR three.oldstyle
ENCODING -1
SWIDTH 494 0
DWIDTH 6 0
BBX 6 9 0 -2
BITMAP
4FFFF2
000880
005B00
00DE40
0006E0
0000D3
0000E2
3318C0
4CEB20
ENDCHAR
STARTCHAR five.oldstyle
ENCODING -1
SWIDTH 494 0
DWIDTH 6 0
BBX 6 9 0 -2
BITMAP
0AFFF4
0C2000
0E0000
0FDE50
1A14E1
0000C3
0000D3
1516D0
1BEC30
ENDCHAR
STARTCHAR four.oldstyle
ENCODING -1
SWIDTH 494 0
DWIDTH 6 0
BBX 6 9 0 -2
BITMAP
0008D0
002ED0
0098D0
03C3D0
0B43D0
4B03D0
AFFFFC
0003D0
0003D0
ENDCHAR
STARTCHAR two.oldstyle
ENCODING -1
SWIDTH 494 0
DWIDTH 6 0
BBX 6 7 0 0
BITMAP
05EE50
2E24E0
2502E0
000B60
009900
08B000
2FFFF4
ENDCHAR
STARTCHAR seven.oldstyle
ENCODING -1
SWIDTH 494 0
DWIDTH 6 0
BBX 6 9 0 -2
BITMAP
4FFFF5
0000D1
0005A0
000A50
001E00
006900
00C400
02D000
088000
ENDCHAR
STARTCHAR zero.oldstyle
ENCODING -1
SWIDTH 494 0
DWIDTH 6 0
BBX 6 7 0 0
BITMAP
06DD60
3D23E2
780096
970088
780097
3D23E2
07ED60
ENDCHAR
STARTCHAR six.oldstyle
ENCODING -1
SWIDTH 494 0
DWIDTH 6 0
BBX 6 9 0 0
BITMAP
008E40
08B200
0E1000
2EBE60
3F43E1
4C00C4
2D00C3
0D53E1
03DE50
ENDCHAR
STARTCHAR nine.oldstyle
ENCODING -1
SWIDTH 494 0
DWIDTH 6 0
BBX 6 9 0 -2
BITMAP
06ED40
2E24E1
5A00C4
5A00A5
2E33E5
06EDE4
0001E2
0219B0
0BEB10
ENDCHAR
STARTCHAR eight.oldstyle
ENCODING -1
SWIDTH 494 0
DWIDTH 6 0
BBX 6 9 0 0
BITMAP
05ED40
0E34D0
2E00F1
0D34C0
06FF40
1D23D1
4B00D3
2E23E1
07EE60
ENDCHAR
STARTCHAR one.oldstyle
ENCODING -1
SWIDTH 494 0
DWIDTH 6 0
BBX 4 7 1 0
BITMAP
17C2
97E2
00E2
00E2
00E2
00E2
00E2
ENDCHAR
STARTCHAR glyph607
ENCODING -1
SWIDTH 237 0
DWIDTH 3 0
BBX 3 9 -1 -2
BITMAP
01F0
01F0
01F0
01F0
01F0
01F0
01F0
03E0
2E70
ENDCHAR
STARTCHAR glyph608
ENCODING -1
SWIDTH 238 0
DWIDTH 3 0
BBX 3 9 -1 -2
BITMAP
01F0
01F0
01F0
01F0
01F0
01F0
01F0
03E0
2E70
ENDCHAR
STARTCHAR glyph609
ENCODING -1
SWIDTH 235 0
DWIDTH 3 0
BBX 2 7 0 0
BITMAP
2D
2D
2D
2D
2D
2D
2D
ENDCHAR
STARTCHAR glyph610
ENCODING -1
SWIDTH 235 0
DWIDTH 3 0
BBX 2 9 0 -2
BITMAP
2D
2D
2D
2D
2D
2D
2F
A3
BC
ENDCHAR
STARTCHAR glyph611
ENCODING -1
SWIDTH 235 0
DWIDTH 3 0
BBX 2 7 0 0
BITMAP
2D
2D
2D
2D
2D
2D
2D
ENDCHAR
STARTCHAR germandbls.sc
ENCODING -1
SWIDTH 475 0
DWIDTH 6 0
BBX 6 7 0 0
BITMAP
08EC30
1E2B80
3C4C00
4C8E80
4C02E1
4C12F1
4CAE70
ENDCHAR
STARTCHAR zero.oldstyle.pnum
ENCODING -1
SWIDTH 545 0
DWIDTH 7 0
BBX 6 7 0 0
BITMAP
03CE90
0D51B7
3D004B
4B003D
3D004B
0D51B7
03CE90
ENDCHAR
STARTCHAR seven.pnum
ENCODING -1
SWIDTH 458 0
DWIDTH 6 0
BBX 5 9 0 0
BITMAP
9FFFF0
0004B0
000960
000D10
004B00
00A500
01E100
05A000
0A5000
ENDCHAR
STARTCHAR b.ss06
ENCODING -1
SWIDTH 493 0
DWIDTH 6 0
BBX 6 9 0 0
BITMAP
3C0000
3C0000
3DBE60
3F33E2
3C00A5
3C0097
3C00A5
3F33E1
3CBE60
ENDCHAR
STARTCHAR c.ss06
ENCODING -1
SWIDTH 460 0
DWIDTH 6 0
BBX 5 7 0 0
BITMAP
05DD40
1E34D0
5A0060
690000
5A0030
1E33D0
05DD30
ENDCHAR
STARTCHAR d.ss06
ENCODING -1
SWIDTH 503 0
DWIDTH 6 0
BBX 6 9 0 0
BITMAP
0000C4
0000C4
06ECD4
1E43E4
5B00C4
6900C4
5B00C4
1E33E4
06ECC4
ENDCHAR
STARTCHAR g.ss06
ENCODING -1
SWIDTH 500 0
DWIDTH 6 0
BBX 6 9 0 -2
BITMAP
06ECC4
1E43E4
5B00C4
6900C4
5B00C4
1E33E4
06ECE3
0103D0
09ED40
ENDCHAR
STARTCHAR o.ss06
ENCODING -1
SWIDTH 508 0
DWIDTH 6 0
BBX 6 7 0 0
BITMAP
05DD50
1E43E2
5B0096
690088
5B0097
1E43E2
04DE60
ENDCHAR
STARTCHAR p.ss06
ENCODING -1
SWIDTH 500 0
DWIDTH 6 0
BBX 6 9 0 -2
BITMAP
3CCE60
3E34E2
3C00B5
3C0097
3C00B5
3E34E1
3DCE60
3C0000
3C0000
ENDCHAR
STARTCHAR q.ss06
ENCODING -1
SWIDTH 508 0
DWIDTH 6 0
BBX 6 9 0 -2
BITMAP
06ECC3
1E43E3
5B00C3
6900C3
5B00C3
1E43E3
05ECD3
0000C3
0000C3
ENDCHAR
STARTCHAR e.ss07
ENCODING -1
SWIDTH 468 0
DWIDTH 6 0
BBX 6 7 0 0
BITMAP
05ED40
1E34D0
5B00E1
6FFFF2
5B0000
1E4140
04DE80
ENDCHAR
STARTCHAR g.ss07
ENCODING -1
SWIDTH 492 0
DWIDTH 6 0
BBX 6 9 0 -2
BITMAP
06EBD2
1E34F2
5B00D2
6900D2
5B00D2
1E34F2
06EBE1
0104D0
08ED40
ENDCHAR
STARTCHAR one.pnum
ENCODING -1
SWIDTH 382 0
DWIDTH 5 0
BBX 4 9 0 0
BITMAP
16B5
79C5
00B5
00B5
00B5
00B5
00B5
00B5
00B5
ENDCHAR
STARTCHAR ampersand.c2sc
ENCODING -1
SWIDTH 526 0
DWIDTH 6 0
BBX 6 7 0 0
BITMAP
08EA00
0E3E20
0A9D00
07F544
3C4D96
5C18F1
1BECB8
ENDCHAR
STARTCHAR Lslash.c2sc
ENCODING -1
SWIDTH 411 0
DWIDTH 5 0
BBX 5 7 0 0
BITMAP
4C0000
4C0000
4EC000
DD3000
4C0000
4C0000
4FFF90
ENDCHAR
STARTCHAR AE.c2sc
ENCODING -1
SWIDTH 676 0
DWIDTH 8 0
BBX 8 7 0 0
BITMAP
000DFFF6
005BD000
00C3E000
04A1FFF2
0BFFF000
2C00F000
9700FFFA
ENDCHAR
STARTCHAR Thorn.c2sc
ENCODING -1
SWIDTH 440 0
DWIDTH 5 0
BBX 5 7 0 0
BITMAP
4C0000
4FFC20
4C08A0
4C03D0
4C07A0
4FFC20
4C0000
ENDCHAR
STARTCHAR Oslash.c2sc
ENCODING -1
SWIDTH 519 0
DWIDTH 6 0
BBX 6 9 0 -1
BITMAP
000011
05DEC4
1E44F4
5B0AA8
69496A
5AB178
1E82D4
1CDE70
120000
ENDCHAR
STARTCHAR Hbar.c2sc
ENCODING -1
SWIDTH 533 0
DWIDTH 6 0
BBX 7 7 0 0
BITMAP
4C006900
AFFFFF10
4C006900
4FFFF900
4C006900
4C006900
4C006900
ENDCHAR
STARTCHAR Eng.c2sc
ENCODING -1
SWIDTH 533 0
DWIDTH 6 0
BBX 6 9 0 -2
BITMAP
4E1069
4F9069
4CB269
4C3A69
4C0999
4C01E9
4C0079
000088
0007D3
ENDCHAR
STARTCHAR Dcroat.c2sc
ENCODING -1
SWIDTH 492 0
DWIDTH 6 0
BBX 7 7 -1 0
BITMAP
04FFC300
04C05D00
04C00C30
4FFE0B50
04C00C30
04C06D00
04FFC300
ENDCHAR
STARTCHAR Eth.c2sc
ENCODING -1
SWIDTH 492 0
DWIDTH 6 0
BBX 7 7 -1 0
BITMAP
04FFC300
04C05D00
04C00C30
4FFE0B50
04C00C30
04C06D00
04FFC300
ENDCHAR
STARTCHAR Tbar.c2sc
ENCODING -1
SWIDTH 456 0
DWIDTH 5 0
BBX 6 7 0 0
BITMAP
AFFFF2
00C400
0DFF50
00C400
00C400
00C400
00C400
ENDCHAR
STARTCHAR Agrave.c2sc
ENCODING -1
SWIDTH 501 0
DWIDTH 6 0
BBX 6 10 0 0
BITMAP
06D100
00A500
000000
009A00
00DD00
04A950
0944A0
0EFFE0
4A00A5
96006A
ENDCHAR
STARTCHAR Aacute.c2sc
ENCODING -1
SWIDTH 501 0
DWIDTH 6 0
BBX 6 10 0 0
BITMAP
000C70
004A00
000000
009A00
00DD00
04A950
0944A0
0EFFE0
4A00A5
96006A
ENDCHAR
STARTCHAR Acircumflex.c2sc
ENCODING -1
SWIDTH 501 0
DWIDTH 6 0
BBX 6 10 0 0
BITMAP
00BB00
049840
000000
009A00
00DD00
04A950
0944A0
0EFFE0
4A00A5
96006A
ENDCHAR
STARTCHAR Atilde.c2sc
ENCODING -1
SWIDTH 501 0
DWIDTH 6 0
BBX 6 10 0 0
BITMAP
05D2B0
0A3D60
000000
009A00
00DD00
04A950
0944A0
0EFFE0
4A00A5
96006A
ENDCHAR
STARTCHAR Adieresis.c2sc
ENCODING -1
SWIDTH 501 0
DWIDTH 6 0
BBX 6 10 0 0
BITMAP
020020
0B43C0
000000
009A00
00DD00
04A950
0944A0
0EFFE0
4A00A5
96006A
ENDCHAR
STARTCHAR Aring.c2sc
ENCODING -1
SWIDTH 501 0
DWIDTH 6 0
BBX 6 11 0 0
BITMAP
009910
036540
009910
000000
009A00
00DD00
04A950
0944A0
0EFFE0
4A00A5
96006A
ENDCHAR
STARTCHAR Aringacute.c2sc
ENCODING -1
SWIDTH 501 0
DWIDTH 6 0
BBX 6 10 0 0
BITMAP
000B40
001A00
009A00
00FF00
00DD00
04A950
0944A0
0EFFE0
4A00A5
96006A
ENDCHAR
STARTCHAR Ccedilla.c2sc
ENCODING -1
SWIDTH 490 0
DWIDTH 6 0
BBX 6 9 0 -2
BITMAP
05DE70
1E32D3
5A0043
690000
5A0042
2E32D3
05DE70
003400
007C00
ENDCHAR
STARTCHAR Egrave.c2sc
ENCODING -1
SWIDTH 428 0
DWIDTH 5 0
BBX 5 10 0 0
BITMAP
0A9000
01C200
000000
4FFFB0
4C0000
4C0000
4FFF50
4C0000
4C0000
4FFFC0
ENDCHAR
STARTCHAR Eacute.c2sc
ENCODING -1
SWIDTH 428 0
DWIDTH 5 0
BBX 5 10 0 0
BITMAP
002E40
008600
000000
4FFFB0
4C0000
4C0000
4FFF50
4C0000
4C0000
4FFFC0
ENDCHAR
STARTCHAR Ecircumflex.c2sc
ENCODING -1
SWIDTH 428 0
DWIDTH 5 0
BBX 5 10 0 0
BITMAP
01D700
075B10
000000
4FFFB0
4C0000
4C0000
4FFF50
4C0000
4C0000
4FFFC0
ENDCHAR
STARTCHAR Edieresis.c2sc
ENCODING -1
SWIDTH 428 0
DWIDTH 5 0
BBX 5 10 0 0
BITMAP
020110
1E1780
000000
4FFFB0
4C0000
4C0000
4FFF50
4C0000
4C0000
4FFFC0
ENDCHAR
STARTCHAR Igrave.c2sc
ENCODING -1
SWIDTH 221 0
DWIDTH 3 0
BBX 3 10 -1 0
BITMAP
2E30
0590
0000
03D0
03D0
03D0
03D0
03D0
03D0
03D0
ENDCHAR
STARTCHAR Iacute.c2sc
ENCODING -1
SWIDTH 221 0
DWIDTH 3 0
BBX 3 10 0 0
BITMAP
08C0
1C10
0000
3D00
3D00
3D00
3D00
3D00
3D00
3D00
ENDCHAR
STARTCHAR Icircumflex.c2sc
ENCODING -1
SWIDTH 221 0
DWIDTH 3 0
BBX 4 10 -1 0
BITMAP
06D2
1B48
0000
03D0
03D0
03D0
03D0
03D0
03D0
03D0
ENDCHAR
STARTCHAR Idieresis.c2sc
ENCODING -1
SWIDTH 221 0
DWIDTH 3 0
BBX 5 10 -1 0
BITMAP
110200
690D20
000000
03D000
03D000
03D000
03D000
03D000
03D000
03D000
ENDCHAR
STARTCHAR Ntilde.c2sc
ENCODING -1
SWIDTH 533 0
DWIDTH 6 0
BBX 6 10 0 0
BITMAP
03D3B0
084C80
000000
4E1069
4F9069
4CC269
4C4A69
4C0B99
4C03F9
4C00A9
ENDCHAR
STARTCHAR Ograve.c2sc
ENCODING -1
SWIDTH 519 0
DWIDTH 6 0
BBX 6 10 0 0
BITMAP
05D100
008600
000000
05DE70
1E32D4
5A0078
69006A
5A0078
1E32D4
05DE70
ENDCHAR
STARTCHAR Oacute.c2sc
ENCODING -1
SWIDTH 519 0
DWIDTH 6 0
BBX 6 10 0 0
BITMAP
000B90
003B00
000000
05DE70
1E32D4
5A0078
69006A
5A0078
1E32D4
05DE70
ENDCHAR
STARTCHAR Ocircumflex.c2sc
ENCODING -1
SWIDTH 519 0
DWIDTH 6 0
BBX 6 10 0 0
BITMAP
009C10
03A760
000000
05DE70
1E32D4
5A0078
69006A
5A0078
1E32D4
05DE70
ENDCHAR
STARTCHAR Otilde.c2sc
ENCODING -1
SWIDTH 519 0
DWIDTH 6 0
BBX 6 10 0 0
BITMAP
04D3B0
093C70
000000
05DE70
1E32D4
5A0078
69006A
5A0078
1E32D4
05DE70
ENDCHAR
STARTCHAR Odieresis.c2sc
ENCODING -1
SWIDTH 519 0
DWIDTH 6 0
BBX 6 10 0 0
BITMAP
011020
0A62D0
000000
05DE70
1E32D4
5A0078
69006A
5A0078
1E32D4
05DE70
ENDCHAR
STARTCHAR Ugrave.c2sc
ENCODING -1
SWIDTH 488 0
DWIDTH 6 0
BBX 6 10 0 0
BITMAP
08C000
00B400
000000
5A00C4
5A00C4
5A00C4
5A00C4
5A00C3
3E23E1
07EE60
ENDCHAR
STARTCHAR Uacute.c2sc
ENCODING -1
SWIDTH 488 0
DWIDTH 6 0
BBX 6 10 0 0
BITMAP
001D60
006900
000000
5A00C4
5A00C4
5A00C4
5A00C4
5A00C3
3E23E1
07EE60
ENDCHAR
STARTCHAR Ucircumflex.c2sc
ENCODING -1
SWIDTH 488 0
DWIDTH 6 0
BBX 6 10 0 0
BITMAP
00BA00
057930
000000
5A00C4
5A00C4
5A00C4
5A00C4
5A00C3
3E23E1
07EE60
ENDCHAR
STARTCHAR Udieresis.c2sc
ENCODING -1
SWIDTH 488 0
DWIDTH 6 0
BBX 6 10 0 0
BITMAP
020020
0C35A0
000000
5A00C4
5A00C4
5A00C4
5A00C4
5A00C3
3E23E1
07EE60
ENDCHAR
STARTCHAR Yacute.c2sc
ENCODING -1
SWIDTH 458 0
DWIDTH 6 0
BBX 6 10 0 0
BITMAP
002E30
008600
000000
9801E2
2E17A0
0A6D30
04EB00
00D500
00C400
00C400
ENDCHAR
STARTCHAR Amacron.c2sc
ENCODING -1
SWIDTH 501 0
DWIDTH 6 0
BBX 6 9 0 0
BITMAP
0AFFB0
000000
009A00
00DD00
04A950
0944A0
0EFFE0
4A00A5
96006A
ENDCHAR
STARTCHAR Abreve.c2sc
ENCODING -1
SWIDTH 501 0
DWIDTH 6 0
BBX 6 10 0 0
BITMAP
0A54B0
03DD30
000000
009A00
00DD00
04A950
0944A0
0EFFE0
4A00A5
96006A
ENDCHAR
STARTCHAR Aogonek.c2sc
ENCODING -1
SWIDTH 501 0
DWIDTH 6 0
BBX 6 9 0 -2
BITMAP
009A00
00DD00
04A950
0944A0
0EFFE0
4A00A5
96006A
0000A2
0001D9
ENDCHAR
STARTCHAR Cacute.c2sc
ENCODING -1
SWIDTH 490 0
DWIDTH 6 0
BBX 6 10 0 0
BITMAP
000C70
005A00
000000
05DE70
1E32D3
5A0043
690000
5A0042
2E32D3
05DE70
ENDCHAR
STARTCHAR Ccircumflex.c2sc
ENCODING -1
SWIDTH 490 0
DWIDTH 6 0
BBX 6 10 0 0
BITMAP
00BB00
048840
000000
05DE70
1E32D3
5A0043
690000
5A0042
2E32D3
05DE70
ENDCHAR
STARTCHAR Cdotaccent.c2sc
ENCODING -1
SWIDTH 490 0
DWIDTH 6 0
BBX 6 10 0 0
BITMAP
001100
007800
000000
05DE70
1E32D3
5A0043
690000
5A0042
2E32D3
05DE70
ENDCHAR
STARTCHAR Ccaron.c2sc
ENCODING -1
SWIDTH 490 0
DWIDTH 6 0
BBX 6 10 0 0
BITMAP
049950
009900
000000
05DE70
1E32D3
5A0043
690000
5A0042
2E32D3
05DE70
ENDCHAR
STARTCHAR Dcaron.c2sc
ENCODING -1
SWIDTH 492 0
DWIDTH 6 0
BBX 6 10 0 0
BITMAP
0B4C00
02E300
000000
4FFC30
4C05D0
4C00C3
4C00B5
4C00C3
4C06D0
4FFC30
ENDCHAR
STARTCHAR Emacron.c2sc
ENCODING -1
SWIDTH 428 0
DWIDTH 5 0
BBX 5 9 0 0
BITMAP
0EFF80
000000
4FFFB0
4C0000
4C0000
4FFF50
4C0000
4C0000
4FFFC0
ENDCHAR
STARTCHAR Ebreve.c2sc
ENCODING -1
SWIDTH 428 0
DWIDTH 5 0
BBX 5 10 0 0
BITMAP
0D2870
06EC10
000000
4FFFB0
4C0000
4C0000
4FFF50
4C0000
4C0000
4FFFC0
ENDCHAR
STARTCHAR Edotaccent.c2sc
ENCODING -1
SWIDTH 428 0
DWIDTH 5 0
BBX 5 10 0 0
BITMAP
002000
00B400
000000
4FFFB0
4C0000
4C0000
4FFF50
4C0000
4C0000
4FFFC0
ENDCHAR
STARTCHAR Eogonek.c2sc
ENCODING -1
SWIDTH 428 0
DWIDTH 5 0
BBX 5 9 0 -2
BITMAP
4FFFB0
4C0000
4C0000
4FFF50
4C0000
4C0000
4FFFC0
001B10
002E60
ENDCHAR
STARTCHAR Ecaron.c2sc
ENCODING -1
SWIDTH 428 0
DWIDTH 5 0
BBX 5 10 0 0
BITMAP
085C20
01C600
000000
4FFFB0
4C0000
4C0000
4FFF50
4C0000
4C0000
4FFFC0
ENDCHAR
STARTCHAR Gcircumflex.c2sc
ENCODING -1
SWIDTH 509 0
DWIDTH 6 0
BBX 6 10 0 0
BITMAP
00BA00
048940
000000
05DE80
2E31D4
5A0011
690DF7
5B0097
1E41B7
04DFB1
ENDCHAR
STARTCHAR Gbreve.c2sc
ENCODING -1
SWIDTH 509 0
DWIDTH 6 0
BBX 6 10 0 0
BITMAP
0A55A0
03DD30
000000
05DE80
2E31D4
5A0011
690DF7
5B0097
1E41B7
04DFB1
ENDCHAR
STARTCHAR Gdotaccent.c2sc
ENCODING -1
SWIDTH 509 0
DWIDTH 6 0
BBX 6 10 0 0
BITMAP
001100
008700
000000
05DE80
2E31D4
5A0011
690DF7
5B0097
1E41B7
04DFB1
ENDCHAR
STARTCHAR uni0122.c2sc
ENCODING -1
SWIDTH 509 0
DWIDTH 6 0
BBX 6 10 0 -3
BITMAP
05DE80
2E31D4
5A0011
690DF7
5B0097
1E41B7
04DFB1
000000
008700
009200
ENDCHAR
STARTCHAR Hcircumflex.c2sc
ENCODING -1
SWIDTH 533 0
DWIDTH 6 0
BBX 6 10 0 0
BITMAP
009C10
02A760
000000
4C0069
4C0069
4C0069
4FFFF9
4C0069
4C0069
4C0069
ENDCHAR
STARTCHAR Itilde.c2sc
ENCODING -1
SWIDTH 221 0
DWIDTH 3 0
BBX 5 10 -1 0
BITMAP
2D5A10
66AA00
000000
03D000
03D000
03D000
03D000
03D000
03D000
03D000
ENDCHAR
STARTCHAR Imacron.c2sc
ENCODING -1
SWIDTH 221 0
DWIDTH 3 0
BBX 5 9 -1 0
BITMAP
5FFF10
000000
03D000
03D000
03D000
03D000
03D000
03D000
03D000
ENDCHAR
STARTCHAR Ibreve.c2sc
ENCODING -1
SWIDTH 221 0
DWIDTH 3 0
BBX 4 10 -1 0
BITMAP
5A1E
0BE7
0000
03D0
03D0
03D0
03D0
03D0
03D0
03D0
ENDCHAR
STARTCHAR Iogonek.c2sc
ENCODING -1
SWIDTH 221 0
DWIDTH 3 0
BBX 2 9 0 -2
BITMAP
3D
3D
3D
3D
3D
3D
3F
94
AD
ENDCHAR
STARTCHAR Idotaccent.c2sc
ENCODING -1
SWIDTH 221 0
DWIDTH 3 0
BBX 2 10 0 0
BITMAP
02
3C
00
3D
3D
3D
3D
3D
3D
3D
ENDCHAR
STARTCHAR Jcircumflex.c2sc
ENCODING -1
SWIDTH 419 0
DWIDTH 5 0
BBX 6 10 0 0
BITMAP
002D60
0085B1
000000
000B50
000B50
000B50
000B50
000B50
981E30
2CE900
ENDCHAR
STARTCHAR uni0136.c2sc
ENCODING -1
SWIDTH 473 0
DWIDTH 6 0
BBX 6 10 0 -3
BITMAP
4C03E2
4C1D60
4CA900
4FF600
4E4E20
4C08A0
4C01D5
000000
00C300
00B000
ENDCHAR
STARTCHAR Lacute.c2sc
ENCODING -1
SWIDTH 411 0
DWIDTH 5 0
BBX 5 10 0 0
BITMAP
08B000
1C1000
000000
4C0000
4C0000
4C0000
4C0000
4C0000
4C0000
4FFF90
ENDCHAR
STARTCHAR uni013B.c2sc
ENCODING -1
SWIDTH 411 0
DWIDTH 5 0
BBX 5 10 0 -3
BITMAP
4C0000
4C0000
4C0000
4C0000
4C0000
4C0000
4FFF90
000000
00C200
01B000
ENDCHAR
STARTCHAR Lcaron.c2sc
ENCODING -1
SWIDTH 411 0
DWIDTH 5 0
BBX 5 7 0 0
BITMAP
4C3C00
4C5600
4C0000
4C0000
4C0000
4C0000
4FFF90
ENDCHAR
STARTCHAR Ldot.c2sc
ENCODING -1
SWIDTH 411 0
DWIDTH 5 0
BBX 5 7 0 0
BITMAP
4C0000
4C0000
4C0200
4C5B00
4C0000
4C0000
4FFF90
ENDCHAR
STARTCHAR Nacute.c2sc
ENCODING -1
SWIDTH 533 0
DWIDTH 6 0
BBX 6 10 0 0
BITMAP
000AA0
002B10
000000
4E1069
4F9069
4CC269
4C4A69
4C0B99
4C03F9
4C00A9
ENDCHAR
STARTCHAR uni0145.c2sc
ENCODING -1
SWIDTH 533 0
DWIDTH 6 0
BBX 6 10 0 -3
BITMAP
4E1069
4F9069
4CC269
4C4A69
4C0B99
4C03F9
4C00A9
000000
005900
007400
ENDCHAR
STARTCHAR Ncaron.c2sc
ENCODING -1
SWIDTH 533 0
DWIDTH 6 0
BBX 6 10 0 0
BITMAP
02B670
007C00
000000
4E1069
4F9069
4CC269
4C4A69
4C0B99
4C03F9
4C00A9
ENDCHAR
STARTCHAR Omacron.c2sc
ENCODING -1
SWIDTH 519 0
DWIDTH 6 0
BBX 6 9 0 0
BITMAP
08FFD0
000000
05DE70
1E32D4
5A0078
69006A
5A0078
1E32D4
05DE70
ENDCHAR
STARTCHAR Obreve.c2sc
ENCODING -1
SWIDTH 519 0
DWIDTH 6 0
BBX 6 10 0 0
BITMAP
0873C0
02DE40
000000
05DE70
1E32D4
5A0078
69006A
5A0078
1E32D4
05DE70
ENDCHAR
STARTCHAR Ohungarumlaut.c2sc
ENCODING -1
SWIDTH 519 0
DWIDTH 6 0
BBX 6 10 0 0
BITMAP
00A8D3
00B780
000000
05DE70
1E32D4
5A0078
69006A
5A0078
1E32D4
05DE70
ENDCHAR
STARTCHAR Racute.c2sc
ENCODING -1
SWIDTH 465 0
DWIDTH 6 0
BBX 6 10 0 0
BITMAP
003E30
009500
000000
4FFE60
4C03F1
4C03E1
4FFF60
4C0C50
4C05B0
4C00E3
ENDCHAR
STARTCHAR uni0156.c2sc
ENCODING -1
SWIDTH 465 0
DWIDTH 6 0
BBX 6 10 0 -3
BITMAP
4FFE60
4C03F1
4C03E1
4FFF60
4C0C50
4C05B0
4C00E3
000000
00C200
01B000
ENDCHAR
STARTCHAR Rcaron.c2sc
ENCODING -1
SWIDTH 465 0
DWIDTH 6 0
BBX 6 10 0 0
BITMAP
094C10
01D500
000000
4FFE60
4C03F1
4C03E1
4FFF60
4C0C50
4C05B0
4C00E3
ENDCHAR
STARTCHAR Sacute.c2sc
ENCODING -1
SWIDTH 453 0
DWIDTH 5 0
BBX 5 10 0 0
BITMAP
002E40
008700
000000
09ED30
4C15D0
3E4030
06DD30
2205D0
6B14E0
08ED50
ENDCHAR
STARTCHAR Scircumflex.c2sc
ENCODING -1
SWIDTH 453 0
DWIDTH 5 0
BBX 5 10 0 0
BITMAP
01D800
076B20
000000
09ED30
4C15D0
3E4030
06DD30
2205D0
6B14E0
08ED50
ENDCHAR
STARTCHAR Scedilla.c2sc
ENCODING -1
SWIDTH 453 0
DWIDTH 5 0
BBX 5 9 0 -2
BITMAP
09ED30
4C15D0
3E4030
06DD30
2205D0
6B14E0
08ED50
004300
009A00
ENDCHAR
STARTCHAR Scaron.c2sc
ENCODING -1
SWIDTH 453 0
DWIDTH 5 0
BBX 5 10 0 0
BITMAP
086B20
00C600
000000
09ED30
4C15D0
3E4030
06DD30
2205D0
6B14E0
08ED50
ENDCHAR
STARTCHAR uni021A.c2sc
ENCODING -1
SWIDTH 456 0
DWIDTH 5 0
BBX 6 10 0 -3
BITMAP
AFFFF2
00C400
00C400
00C400
00C400
00C400
00C400
000000
00C300
00B000
ENDCHAR
STARTCHAR Tcaron.c2sc
ENCODING -1
SWIDTH 456 0
DWIDTH 5 0
BBX 6 10 0 0
BITMAP
085C20
01D600
000000
AFFFF2
00C400
00C400
00C400
00C400
00C400
00C400
ENDCHAR
STARTCHAR uni0162.c2sc
ENCODING -1
SWIDTH 456 0
DWIDTH 5 0
BBX 6 9 0 -2
BITMAP
AFFFF2
00C400
00C400
00C400
00C400
00C400
00C400
006200
00B800
ENDCHAR
STARTCHAR Utilde.c2sc
ENCODING -1
SWIDTH 488 0
DWIDTH 6 0
BBX 6 10 0 0
BITMAP
06C3A0
0B3D40
000000
5A00C4
5A00C4
5A00C4
5A00C4
5A00C3
3E23E1
07EE60
ENDCHAR
STARTCHAR Umacron.c2sc
ENCODING -1
SWIDTH 488 0
DWIDTH 6 0
BBX 6 9 0 0
BITMAP
0BFFA0
000000
5A00C4
5A00C4
5A00C4
5A00C4
5A00C3
3E23E1
07EE60
ENDCHAR
STARTCHAR Ubreve.c2sc
ENCODING -1
SWIDTH 488 0
DWIDTH 6 0
BBX 6 10 0 0
BITMAP
0B4690
04ED20
000000
5A00C4
5A00C4
5A00C4
5A00C4
5A00C3
3E23E1
07EE60
ENDCHAR
STARTCHAR Uring.c2sc
ENCODING -1
SWIDTH 488 0
DWIDTH 6 0
BBX 6 11 0 0
BITMAP
019900
055720
019900
000000
5A00C4
5A00C4
5A00C4
5A00C4
5A00C3
3E23E1
07EE60
ENDCHAR
STARTCHAR Uhungarumlaut.c2sc
ENCODING -1
SWIDTH 488 0
DWIDTH 6 0
BBX 6 10 0 0
BITMAP
00C7D1
02A950
000000
5A00C4
5A00C4
5A00C4
5A00C4
5A00C3
3E23E1
07EE60
ENDCHAR
STARTCHAR Uogonek.c2sc
ENCODING -1
SWIDTH 488 0
DWIDTH 6 0
BBX 6 9 0 -2
BITMAP
5A00C4
5A00C4
5A00C4
5A00C4
5A00C3
3E23E1
07EF60
006700
006E30
ENDCHAR
STARTCHAR Wcircumflex.c2sc
ENCODING -1
SWIDTH 655 0
DWIDTH 8 0
BBX 8 10 0 0
BITMAP
000BA000
00489400
00000000
87098087
5A0CB0B4
2C1CC0D1
0E4894D0
0BA56AA0
08E12F70
05D00E40
ENDCHAR
STARTCHAR Ycircumflex.c2sc
ENCODING -1
SWIDTH 458 0
DWIDTH 6 0
BBX 6 10 0 0
BITMAP
02D700
085B10
000000
9801E2
2E17A0
0A6D30
04EB00
00D500
00C400
00C400
ENDCHAR
STARTCHAR Ydieresis.c2sc
ENCODING -1
SWIDTH 458 0
DWIDTH 6 0
BBX 6 10 0 0
BITMAP
020110
1E1780
000000
9801E2
2E17A0
0A6D30
04EB00
00D500
00C400
00C400
ENDCHAR
STARTCHAR Zacute.c2sc
ENCODING -1
SWIDTH 454 0
DWIDTH 5 0
BBX 5 10 0 0
BITMAP
002E30
008600
000000
8FFFD0
000970
004C00
00D300
089000
2D1000
8FFFF0
ENDCHAR
STARTCHAR Zdotaccent.c2sc
ENCODING -1
SWIDTH 454 0
DWIDTH 5 0
BBX 5 10 0 0
BITMAP
002000
00B400
000000
8FFFD0
000970
004C00
00D300
089000
2D1000
8FFFF0
ENDCHAR
STARTCHAR Zcaron.c2sc
ENCODING -1
SWIDTH 454 0
DWIDTH 5 0
BBX 5 10 0 0
BITMAP
085C20
01D600
000000
8FFFD0
000970
004C00
00D300
089000
2D1000
8FFFF0
ENDCHAR
STARTCHAR two.pnum
ENCODING -1
SWIDTH 493 0
DWIDTH 6 0
BBX 6 9 0 0
BITMAP
07ED50
3D24E0
4600E2
0002D0
000A60
006B00
03D200
1C4000
5FFFF7
ENDCHAR
STARTCHAR three.pnum
ENCODING -1
SWIDTH 493 0
DWIDTH 6 0
BBX 6 9 0 0
BITMAP
07ED40
2D25D0
2500F0
0006C0
00FF40
0004E0
3500E2
3D24E0
07ED40
ENDCHAR
STARTCHAR four.pnum
ENCODING -1
SWIDTH 493 0
DWIDTH 6 0
BBX 6 9 0 0
BITMAP
000B90
004F90
00B990
04B690
0B3690
4B0690
9FFFF8
000690
000690
ENDCHAR
STARTCHAR five.pnum
ENCODING -1
SWIDTH 493 0
DWIDTH 6 0
BBX 6 9 0 0
BITMAP
08FFF3
0A5000
0B3000
0CDE70
0533E2
0000A5
1500A5
0E32E2
04DE60
ENDCHAR
STARTCHAR six.pnum
ENCODING -1
SWIDTH 503 0
DWIDTH 6 0
BBX 6 9 0 0
BITMAP
007D60
06C300
0C4000
0FAE80
1F62E3
1E0096
0F1096
0B72E2
02CE70
ENDCHAR
STARTCHAR eight.pnum
ENCODING -1
SWIDTH 513 0
DWIDTH 6 0
BBX 6 9 0 0
BITMAP
04DE60
0D53E1
0F00D3
0C53D1
04FF60
0D32D2
2D00B5
1E32E3
05DE70
ENDCHAR
STARTCHAR nine.pnum
ENCODING -1
SWIDTH 503 0
DWIDTH 6 0
BBX 6 9 0 0
BITMAP
06EC20
2E27B0
5A00F0
5A00E2
2E26F2
07EAF1
0002D0
002B70
06E800
ENDCHAR
STARTCHAR zero.pnum
ENCODING -1
SWIDTH 513 0
DWIDTH 6 0
BBX 6 9 0 0
BITMAP
04DE60
0D53E1
1E00C4
3D00A5
3C00A6
3D00A5
1E00C4
0C53E1
03DE60
ENDCHAR
STARTCHAR G_acutecomb.ccmp
ENCODING -1
SWIDTH 590 0
DWIDTH 7 0
BBX 7 12 0 0
BITMAP
0007C100
001C2000
00000000
02CEC400
0C715E00
2E000920
4C000000
4C000000
4D06FF40
2E000C40
0B812D40
02BED800
ENDCHAR
STARTCHAR g_acutecomb.ccmp
ENCODING -1
SWIDTH 492 0
DWIDTH 6 0
BBX 6 12 0 -2
BITMAP
001D50
007800
000000
08EBD2
3E24F2
6A00D2
7900D2
6A00D2
2E24F2
08EBE2
0203E0
0AED50
ENDCHAR
STARTCHAR N_gravecomb.ccmp
ENCODING -1
SWIDTH 619 0
DWIDTH 7 0
BBX 7 12 0 0
BITMAP
00B80000
001C1000
00000000
1F400980
1FB00980
1FC30980
1F4B0980
1F0C3980
1F05B980
1F00CC80
1F005F80
1F000C80
ENDCHAR
STARTCHAR n_gravecomb.ccmp
ENCODING -1
SWIDTH 483 0
DWIDTH 6 0
BBX 5 10 0 0
BITMAP
08C000
00B400
000000
3CBE60
3F34E0
3C00F0
3C00F0
3C00F0
3C00F0
3C00F0
ENDCHAR
STARTCHAR A_uni030F.ccmp
ENCODING -1
SWIDTH 576 0
DWIDTH 7 0
BBX 7 12 0 0
BITMAP
0C8D0000
02C95000
00000000
002F1000
007E6000
00C8A000
01E1E000
06A0C400
0A608900
0EFFFE00
4D000E30
98000980
ENDCHAR
STARTCHAR a_uni030F.ccmp
ENCODING -1
SWIDTH 479 0
DWIDTH 6 0
BBX 6 10 0 0
BITMAP
5DA600
088C00
000000
05ED40
1E25C0
0202E0
07EFE0
3D22E0
4D16E0
0BE9F1
ENDCHAR
STARTCHAR E_uni030F.ccmp
ENCODING -1
SWIDTH 496 0
DWIDTH 6 0
BBX 6 12 0 0
BITMAP
3E9900
06AC10
000000
1FFFF7
1F0000
1F0000
1F0000
1FFFF0
1F0000
1F0000
1F0000
1FFFF8
ENDCHAR
STARTCHAR e_uni030F.ccmp
ENCODING -1
SWIDTH 468 0
DWIDTH 6 0
BBX 6 10 0 0
BITMAP
6CB500
0A8B00
000000
06ED40
2E24D0
5A00E1
6FFFF2
5A0000
2E2170
06EE80
ENDCHAR
STARTCHAR I_uni030F.ccmp
ENCODING -1
SWIDTH 250 0
DWIDTH 3 0
BBX 4 12 -1 0
BITMAP
C8D0
2C95
0000
00F1
00F1
00F1
00F1
00F1
00F1
00F1
00F1
00F1
ENDCHAR
STARTCHAR dotlessi_uni030F.ccmp
ENCODING -1
SWIDTH 234 0
DWIDTH 3 0
BBX 5 10 -2 0
BITMAP
1D8C00
03CA40
000000
002D00
002D00
002D00
002D00
002D00
002D00
002D00
ENDCHAR
STARTCHAR O_uni030F.ccmp
ENCODING -1
SWIDTH 600 0
DWIDTH 7 0
BBX 7 12 0 0
BITMAP
0A9E1000
01C87000
00000000
02BEC300
0B815E10
2E000B50
3C000A70
4C000970
4C000970
2E000B50
0B815E10
02BEC300
ENDCHAR
STARTCHAR o_uni030F.ccmp
ENCODING -1
SWIDTH 501 0
DWIDTH 6 0
BBX 6 10 0 0
BITMAP
5CB600
098C00
000000
05DD50
2E33E2
5A00A6
790097
5A00A6
2E32E2
06DD60
ENDCHAR
STARTCHAR R_uni030F.ccmp
ENCODING -1
SWIDTH 530 0
DWIDTH 6 0
BBX 7 12 0 0
BITMAP
3D980000
069C1000
00000000
1FFFB200
1F019A00
1F004C00
1F019A00
1FFFC100
1F05C000
1F00E300
1F008900
1F003E10
ENDCHAR
STARTCHAR r_uni030F.ccmp
ENCODING -1
SWIDTH 304 0
DWIDTH 4 0
BBX 5 10 -1 0
BITMAP
3D9800
069C10
000000
03DC60
03F400
03C000
03C000
03C000
03C000
03C000
ENDCHAR
STARTCHAR U_uni030F.ccmp
ENCODING -1
SWIDTH 561 0
DWIDTH 7 0
BBX 6 12 0 0
BITMAP
1D8C00
03CA30
000000
4C001F
4C001F
4C001F
4C001F
4C001F
4C001F
3D002E
1E417B
05DEB2
ENDCHAR
STARTCHAR u_uni030F.ccmp
ENCODING -1
SWIDTH 483 0
DWIDTH 6 0
BBX 5 10 0 0
BITMAP
6CB500
0A8B00
000000
4C00F0
4C00F0
4C00F0
4C00F0
4C00F0
2E26F0
09EAF0
ENDCHAR
STARTCHAR Upsilon1_acutecomb.ccmp
ENCODING -1
SWIDTH 514 0
DWIDTH 6 0
BBX 9 9 -2 0
BITMAP
4A5D103E20
550A70A700
0004C1E100
0000D9A000
00007F4000
00003E0000
00002E0000
00002E0000
00002E0000
ENDCHAR
STARTCHAR B_dotbelowcomb.ccmp
ENCODING -1
SWIDTH 545 0
DWIDTH 7 0
BBX 6 12 0 -3
BITMAP
1FFFB1
1F01A8
1F006A
1F01B6
1FFFD1
1F008A
1F004C
1F009A
1FFFB2
000000
005A00
001200
ENDCHAR
STARTCHAR b_dotbelowcomb.ccmp
ENCODING -1
SWIDTH 493 0
DWIDTH 6 0
BBX 6 12 0 -3
BITMAP
3C0000
3C0000
3DBE70
3E32E2
3C00B5
3C00A6
3C00B5
3E32E2
3CBE70
000000
007800
001100
ENDCHAR
STARTCHAR D_dotbelowcomb.ccmp
ENCODING -1
SWIDTH 570 0
DWIDTH 7 0
BBX 7 12 0 -3
BITMAP
1FFD9000
1F02A800
1F002E00
1F000F10
1F000E10
1F000F10
1F002E00
1F02B800
1FFD8000
00000000
00690000
00120000
ENDCHAR
STARTCHAR d_dotbelowcomb.ccmp
ENCODING -1
SWIDTH 496 0
DWIDTH 6 0
BBX 6 12 0 -3
BITMAP
0000E2
0000E2
08EBE2
2E24F2
6A00E2
7900E2
6A00E2
2E24F2
08EBD2
000000
006900
001200
ENDCHAR
STARTCHAR D_uniF6C3.ccmp
ENCODING -1
SWIDTH 570 0
DWIDTH 7 0
BBX 7 12 0 -3
BITMAP
1FFD9000
1F02A800
1F002E00
1F000F10
1F000E10
1F000F10
1F002E00
1F02B800
1FFD8000
00000000
00690000
00840000
ENDCHAR
STARTCHAR d_uniF6C3.ccmp
ENCODING -1
SWIDTH 496 0
DWIDTH 6 0
BBX 6 12 0 -3
BITMAP
0000E2
0000E2
08EBE2
2E24F2
6A00E2
7900E2
6A00E2
2E24F2
08EBD2
000000
005900
007400
ENDCHAR
STARTCHAR H_dotbelowcomb.ccmp
ENCODING -1
SWIDTH 620 0
DWIDTH 7 0
BBX 7 12 0 -3
BITMAP
1F000980
1F000980
1F000980
1F000980
1FFFFF80
1F000980
1F000980
1F000980
1F000980
00000000
000D2000
00020000
ENDCHAR
STARTCHAR h_dotbelowcomb.ccmp
ENCODING -1
SWIDTH 482 0
DWIDTH 6 0
BBX 5 12 0 -3
BITMAP
3C0000
3C0000
3DBE60
3F34E0
3C00F0
3C00F0
3C00F0
3C00F0
3C00F0
000000
008700
001100
ENDCHAR
STARTCHAR K_acutecomb.ccmp
ENCODING -1
SWIDTH 544 0
DWIDTH 7 0
BBX 7 12 0 0
BITMAP
000B8000
003B0000
00000000
1F005D10
1F01E400
1F0B8000
1F6C0000
1FEC0000
1F5C6000
1F03E100
1F00A900
1F002E30
ENDCHAR
STARTCHAR k_acutecomb.ccmp
ENCODING -1
SWIDTH 450 0
DWIDTH 5 0
BBX 6 12 0 0
BITMAP
002E40
007700
000000
3C0000
3C0000
3C07A0
3C2D10
3CA500
3EF500
3E7D00
3C0C70
3C03E1
ENDCHAR
STARTCHAR K_dotbelowcomb.ccmp
ENCODING -1
SWIDTH 544 0
DWIDTH 7 0
BBX 7 11 0 -2
BITMAP
1F005D10
1F01E400
1F0B8000
1F6C0000
1FEC0000
1F5C6000
1F03E100
1F00A900
1F002E30
003D0000
00020000
ENDCHAR
STARTCHAR k_dotbelowcomb.ccmp
ENCODING -1
SWIDTH 450 0
DWIDTH 5 0
BBX 6 12 0 -3
BITMAP
3C0000
3C0000
3C07A0
3C2D10
3CA500
3EF500
3E7D00
3C0C70
3C03E1
000000
00C300
002000
ENDCHAR
STARTCHAR L_dotbelowcomb.ccmp
ENCODING -1
SWIDTH 475 0
DWIDTH 6 0
BBX 6 12 0 -3
BITMAP
1F0000
1F0000
1F0000
1F0000
1F0000
1F0000
1F0000
1F0000
1FFFF5
000000
006900
001200
ENDCHAR
STARTCHAR l_dotbelowcomb.ccmp
ENCODING -1
SWIDTH 229 0
DWIDTH 3 0
BBX 2 12 0 -3
BITMAP
2D
2D
2D
2D
2D
2D
2D
2D
2D
00
3C
02
ENDCHAR
STARTCHAR M_dotbelowcomb.ccmp
ENCODING -1
SWIDTH 755 0
DWIDTH 9 0
BBX 9 12 0 -3
BITMAP
1F70006F20
1FB000BF20
1EE101ED20
1EA505AD20
1F5A096E20
1F1E0D1E20
1F0A7B0E20
1F06E60E20
1F01F20E20
0000000000
0001E10000
0000200000
ENDCHAR
STARTCHAR m_dotbelowcomb.ccmp
ENCODING -1
SWIDTH 752 0
DWIDTH 9 0
BBX 9 10 0 -3
BITMAP
3DBE6AE900
3E34F62E20
3C00F10C40
3C00F00C40
3C00F00C40
3C00F00C40
3C00F00C40
0000000000
0001E10000
0000200000
ENDCHAR
STARTCHAR N_dotbelowcomb.ccmp
ENCODING -1
SWIDTH 619 0
DWIDTH 7 0
BBX 7 12 0 -3
BITMAP
1F400980
1FB00980
1FC30980
1F4B0980
1F0C3980
1F05B980
1F00CC80
1F005F80
1F000C80
00000000
000D2000
00020000
ENDCHAR
STARTCHAR n_dotbelowcomb.ccmp
ENCODING -1
SWIDTH 483 0
DWIDTH 6 0
BBX 5 10 0 -3
BITMAP
3CBE60
3F34E0
3C00F0
3C00F0
3C00F0
3C00F0
3C00F0
000000
00A500
002100
ENDCHAR
STARTCHAR O_tildecomb_acutecomb.ccmp
ENCODING -1
SWIDTH 600 0
DWIDTH 7 0
BBX 7 13 0 0
BITMAP
00075000
006A8000
0078A000
00000000
02BEC300
0B815E10
2E000B50
3C000A70
4C000970
4C000970
2E000B50
0B815E10
02BEC300
ENDCHAR
STARTCHAR P_acutecomb.ccmp
ENCODING -1
SWIDTH 554 0
DWIDTH 7 0
BBX 7 12 0 0
BITMAP
000B9000
003B0000
00000000
1FFFD400
1F005E00
1F000E20
1F004E10
1FFFD500
1F000000
1F000000
1F000000
1F000000
ENDCHAR
STARTCHAR p_acutecomb.ccmp
ENCODING -1
SWIDTH 493 0
DWIDTH 6 0
BBX 6 12 0 -2
BITMAP
0009B0
002C10
000000
3CBE70
3E33E2
3C00B4
3C00A5
3C00B4
3E23E2
3DBE70
3C0000
3C0000
ENDCHAR
STARTCHAR R_dotbelowcomb.ccmp
ENCODING -1
SWIDTH 530 0
DWIDTH 6 0
BBX 7 12 0 -3
BITMAP
1FFFB200
1F019A00
1F004C00
1F019A00
1FFFC100
1F05C000
1F00E300
1F008900
1F003E10
00000000
00690000
00110000
ENDCHAR
STARTCHAR r_dotbelowcomb.ccmp
ENCODING -1
SWIDTH 304 0
DWIDTH 4 0
BBX 4 10 0 -3
BITMAP
3DC6
3F40
3C00
3C00
3C00
3C00
3C00
0000
3C00
0200
ENDCHAR
STARTCHAR S_dotbelowcomb.ccmp
ENCODING -1
SWIDTH 518 0
DWIDTH 6 0
BBX 6 12 0 -3
BITMAP
05DE90
2E31B7
3D0047
1E7100
03BE70
0003C7
56006A
3E31A8
06DEA1
000000
005A00
001200
ENDCHAR
STARTCHAR s_dotbelowcomb.ccmp
ENCODING -1
SWIDTH 455 0
DWIDTH 5 0
BBX 5 10 0 -3
BITMAP
08ED30
2E27B0
2E4010
05DB20
1108B0
4C15C0
09ED40
000000
009600
002100
ENDCHAR
STARTCHAR T_dotbelowcomb.ccmp
ENCODING -1
SWIDTH 520 0
DWIDTH 6 0
BBX 6 12 0 -3
BITMAP
AFFFFE
006A00
006A00
006A00
006A00
006A00
006A00
006A00
006A00
000000
006900
001200
ENDCHAR
STARTCHAR t_dotbelowcomb.ccmp
ENCODING -1
SWIDTH 295 0
DWIDTH 4 0
BBX 4 12 0 -3
BITMAP
0D20
0D20
DFF1
0D20
0D20
0D20
0D20
0D40
08E1
0000
03C0
0020
ENDCHAR
STARTCHAR U_tildecomb_acutecomb.ccmp
ENCODING -1
SWIDTH 561 0
DWIDTH 7 0
BBX 6 13 0 0
BITMAP
000930
00A870
008B60
000000
4C001F
4C001F
4C001F
4C001F
4C001F
4C001F
3D002E
1E417B
05DEB2
ENDCHAR
STARTCHAR V_tildecomb.ccmp
ENCODING -1
SWIDTH 560 0
DWIDTH 7 0
BBX 7 12 0 0
BITMAP
01D6A100
0569B000
00000000
98000C50
5C001F10
1F105B00
0B509700
0690D200
02D3D000
00D98000
008F4000
004E0000
ENDCHAR
STARTCHAR v_tildecomb.ccmp
ENCODING -1
SWIDTH 427 0
DWIDTH 5 0
BBX 5 10 0 0
BITMAP
0B8750
296D10
000000
9705A0
5A0860
1E0C20
0C3D00
08A900
04F500
00E100
ENDCHAR
STARTCHAR V_dotbelowcomb.ccmp
ENCODING -1
SWIDTH 560 0
DWIDTH 7 0
BBX 7 12 0 -3
BITMAP
98000C50
5C001F10
1F105B00
0B509700
0690D200
02D3D000
00D98000
008F4000
004E0000
00000000
003C0000
00020000
ENDCHAR
STARTCHAR v_dotbelowcomb.ccmp
ENCODING -1
SWIDTH 427 0
DWIDTH 5 0
BBX 5 10 0 -3
BITMAP
9705A0
5A0860
1E0C20
0C3D00
08A900
04F500
00E100
000000
00D200
002000
ENDCHAR
STARTCHAR W_dotbelowcomb.ccmp
ENCODING -1
SWIDTH 761 0
DWIDTH 9 0
BBX 9 12 0 -3
BITMAP
7900E305B0
4B02F60880
2E05C90A50
0E196C0D20
0B4C1C1E00
087D097C00
05CA06C900
03F603F600
00F300E300
0000000000
0000D20000
0000200000
ENDCHAR
STARTCHAR w_dotbelowcomb.ccmp
ENCODING -1
SWIDTH 649 0
DWIDTH 8 0
BBX 8 10 0 -3
BITMAP
960A6096
690DA0C2
2C2CD1E0
0E68B5B0
0BD48C70
08F14F40
04C01F10
00000000
000A5000
00021000
ENDCHAR
STARTCHAR Z_dotbelowcomb.ccmp
ENCODING -1
SWIDTH 522 0
DWIDTH 6 0
BBX 6 12 0 -3
BITMAP
6FFFF9
0000D4
0006B0
001E30
008A00
01E200
098000
2E1000
7FFFFC
000000
006900
001100
ENDCHAR
STARTCHAR z_dotbelowcomb.ccmp
ENCODING -1
SWIDTH 438 0
DWIDTH 5 0
BBX 5 10 0 -3
BITMAP
6FFFA0
000C50
006B00
01E300
089000
2E1000
7FFFC0
000000
00C300
002000
ENDCHAR
STARTCHAR Alphatonos.c2sc
ENCODING -1
SWIDTH 501 0
DWIDTH 6 0
BBX 6 8 0 0
BITMAP
1D0000
289A00
00DD00
04A950
0944A0
0EFFE0
4A00A5
96006A
ENDCHAR
STARTCHAR Epsilontonos.c2sc
ENCODING -1
SWIDTH 458 0
DWIDTH 6 0
BBX 7 8 -1 0
BITMAP
95000000
91DFFF10
00D20000
00D20000
00DFFB00
00D20000
00D20000
00DFFF20
ENDCHAR
STARTCHAR Etatonos.c2sc
ENCODING -1
SWIDTH 562 0
DWIDTH 7 0
BBX 7 8 -1 0
BITMAP
78000000
73D201F0
00D201F0
00D201F0
00DFFFF0
00D201F0
00D201F0
00D201F0
ENDCHAR
STARTCHAR Iotatonos.c2sc
ENCODING -1
SWIDTH 250 0
DWIDTH 3 0
BBX 4 8 -1 0
BITMAP
7800
73C3
00C3
00C3
00C3
00C3
00C3
00C3
ENDCHAR
STARTCHAR Omicrontonos.c2sc
ENCODING -1
SWIDTH 523 0
DWIDTH 6 0
BBX 7 8 -1 0
BITMAP
1D000000
284DE800
01E41C50
04B00690
05A005B0
04B00690
01E41C50
004DE800
ENDCHAR
STARTCHAR Upsilontonos.c2sc
ENCODING -1
SWIDTH 487 0
DWIDTH 6 0
BBX 8 8 -2 0
BITMAP
0E100000
194D00A7
000C52E1
0005B880
0000DE20
00007A00
00007900
00007900
ENDCHAR
STARTCHAR Omegatonos.c2sc
ENCODING -1
SWIDTH 545 0
DWIDTH 7 0
BBX 7 8 -1 0
BITMAP
0E100000
184DE910
00E51A80
03D004C0
04C003D0
02D004B0
00A61B40
04FF7FD0
ENDCHAR
STARTCHAR Alpha.c2sc
ENCODING -1
SWIDTH 501 0
DWIDTH 6 0
BBX 6 7 0 0
BITMAP
009A00
00DD00
04A950
0944A0
0EFFE0
4A00A5
96006A
ENDCHAR
STARTCHAR Beta.c2sc
ENCODING -1
SWIDTH 475 0
DWIDTH 6 0
BBX 6 7 0 0
BITMAP
4FFD50
4C04D0
4C04C0
4FFF60
4C02E1
4C02F1
4FFE70
ENDCHAR
STARTCHAR Epsilon.c2sc
ENCODING -1
SWIDTH 428 0
DWIDTH 5 0
BBX 5 7 0 0
BITMAP
4FFFB0
4C0000
4C0000
4FFF50
4C0000
4C0000
4FFFC0
ENDCHAR
STARTCHAR Zeta.c2sc
ENCODING -1
SWIDTH 454 0
DWIDTH 5 0
BBX 5 7 0 0
BITMAP
8FFFD0
000970
004C00
00D300
089000
2D1000
8FFFF0
ENDCHAR
STARTCHAR Eta.c2sc
ENCODING -1
SWIDTH 533 0
DWIDTH 6 0
BBX 6 7 0 0
BITMAP
4C0069
4C0069
4C0069
4FFFF9
4C0069
4C0069
4C0069
ENDCHAR
STARTCHAR Iota.c2sc
ENCODING -1
SWIDTH 221 0
DWIDTH 3 0
BBX 2 7 0 0
BITMAP
3D
3D
3D
3D
3D
3D
3D
ENDCHAR
STARTCHAR Kappa.c2sc
ENCODING -1
SWIDTH 473 0
DWIDTH 6 0
BBX 6 7 0 0
BITMAP
4C03E2
4C1D60
4CA900
4FF600
4E4E20
4C08A0
4C01D5
ENDCHAR
STARTCHAR Mu.c2sc
ENCODING -1
SWIDTH 652 0
DWIDTH 8 0
BBX 8 7 0 0
BITMAP
4F4007F1
4F900CF1
4CD02CE1
4BA477E1
4C59B2E1
4C1DC0F1
4C0A70F1
ENDCHAR
STARTCHAR Nu.c2sc
ENCODING -1
SWIDTH 533 0
DWIDTH 6 0
BBX 6 7 0 0
BITMAP
4E1069
4F9069
4CC269
4C4A69
4C0B99
4C03F9
4C00A9
ENDCHAR
STARTCHAR Omicron.c2sc
ENCODING -1
SWIDTH 519 0
DWIDTH 6 0
BBX 6 7 0 0
BITMAP
05DE70
1E32D4
5A0078
69006A
5A0078
1E32D4
05DE70
ENDCHAR
STARTCHAR Rho.c2sc
ENCODING -1
SWIDTH 481 0
DWIDTH 6 0
BBX 6 7 0 0
BITMAP
4FFE90
4C01D4
4C02D4
4FFE90
4C0000
4C0000
4C0000
ENDCHAR
STARTCHAR Tau.c2sc
ENCODING -1
SWIDTH 456 0
DWIDTH 5 0
BBX 6 7 0 0
BITMAP
AFFFF2
00C400
00C400
00C400
00C400
00C400
00C400
ENDCHAR
STARTCHAR Upsilon.c2sc
ENCODING -1
SWIDTH 458 0
DWIDTH 6 0
BBX 6 7 0 0
BITMAP
9801E2
2E17A0
0A6D30
04EB00
00D500
00C400
00C400
ENDCHAR
STARTCHAR Chi.c2sc
ENCODING -1
SWIDTH 478 0
DWIDTH 6 0
BBX 6 7 0 0
BITMAP
6C02E2
0C4980
04DE10
00D900
05CE20
0D4890
6C01E3
ENDCHAR
STARTCHAR Iotadieresis.c2sc
ENCODING -1
SWIDTH 221 0
DWIDTH 3 0
BBX 5 10 -1 0
BITMAP
110200
690D20
000000
03D000
03D000
03D000
03D000
03D000
03D000
03D000
ENDCHAR
STARTCHAR Upsilondieresis.c2sc
ENCODING -1
SWIDTH 458 0
DWIDTH 6 0
BBX 6 10 0 0
BITMAP
020110
1E1780
000000
9801E2
2E17A0
0A6D30
04EB00
00D500
00C400
00C400
ENDCHAR
STARTCHAR uni0401.c2sc
ENCODING -1
SWIDTH 428 0
DWIDTH 5 0
BBX 5 10 0 0
BITMAP
020110
1E1780
000000
4FFFB0
4C0000
4C0000
4FFF50
4C0000
4C0000
4FFFC0
ENDCHAR
STARTCHAR uni0403.c2sc
ENCODING -1
SWIDTH 405 0
DWIDTH 5 0
BBX 5 10 0 0
BITMAP
002E40
008700
000000
4FFF80
4C0000
4C0000
4C0000
4C0000
4C0000
4C0000
ENDCHAR
STARTCHAR uni0405.c2sc
ENCODING -1
SWIDTH 453 0
DWIDTH 5 0
BBX 5 7 0 0
BITMAP
09ED30
4C15D0
3E4030
06DD30
2205D0
6B14E0
08ED50
ENDCHAR
STARTCHAR uni0406.c2sc
ENCODING -1
SWIDTH 221 0
DWIDTH 3 0
BBX 2 7 0 0
BITMAP
3D
3D
3D
3D
3D
3D
3D
ENDCHAR
STARTCHAR uni0407.c2sc
ENCODING -1
SWIDTH 221 0
DWIDTH 3 0
BBX 5 10 -1 0
BITMAP
110200
690D20
000000
03D000
03D000
03D000
03D000
03D000
03D000
03D000
ENDCHAR
STARTCHAR uni0408.c2sc
ENCODING -1
SWIDTH 419 0
DWIDTH 5 0
BBX 5 7 0 0
BITMAP
000B50
000B50
000B50
000B50
000B50
981E30
2CE900
ENDCHAR
STARTCHAR uni040C.c2sc
ENCODING -1
SWIDTH 473 0
DWIDTH 6 0
BBX 6 10 0 0
BITMAP
003E30
009500
000000
4C03E2
4C1D60
4CA900
4FF600
4E4E20
4C08A0
4C01D5
ENDCHAR
STARTCHAR uni040E.c2sc
ENCODING -1
SWIDTH 454 0
DWIDTH 5 0
BBX 6 10 0 0
BITMAP
0E1960
06EC10
000000
8A02F1
3E06A0
0C4B50
079E00
01F900
01D400
0DA000
ENDCHAR
STARTCHAR uni0410.c2sc
ENCODING -1
SWIDTH 501 0
DWIDTH 6 0
BBX 6 7 0 0
BITMAP
009A00
00DD00
04A950
0944A0
0EFFE0
4A00A5
96006A
ENDCHAR
STARTCHAR uni0412.c2sc
ENCODING -1
SWIDTH 475 0
DWIDTH 6 0
BBX 6 7 0 0
BITMAP
4FFD50
4C04D0
4C04C0
4FFF60
4C02E1
4C02F1
4FFE70
ENDCHAR
STARTCHAR uni0413.c2sc
ENCODING -1
SWIDTH 405 0
DWIDTH 5 0
BBX 5 7 0 0
BITMAP
4FFF80
4C0000
4C0000
4C0000
4C0000
4C0000
4C0000
ENDCHAR
STARTCHAR uni0415.c2sc
ENCODING -1
SWIDTH 428 0
DWIDTH 5 0
BBX 5 7 0 0
BITMAP
4FFFB0
4C0000
4C0000
4FFF50
4C0000
4C0000
4FFFC0
ENDCHAR
STARTCHAR uni0419.c2sc
ENCODING -1
SWIDTH 537 0
DWIDTH 6 0
BBX 6 10 0 0
BITMAP
0782D0
01CE60
000000
4C00AA
4C03FA
4C0BAA
4C5B5A
4CD35A
4F905A
4E205A
ENDCHAR
STARTCHAR uni041C.c2sc
ENCODING -1
SWIDTH 652 0
DWIDTH 8 0
BBX 8 7 0 0
BITMAP
4F4007F1
4F900CF1
4CD02CE1
4BA477E1
4C59B2E1
4C1DC0F1
4C0A70F1
ENDCHAR
STARTCHAR uni041D.c2sc
ENCODING -1
SWIDTH 533 0
DWIDTH 6 0
BBX 6 7 0 0
BITMAP
4C0069
4C0069
4C0069
4FFFF9
4C0069
4C0069
4C0069
ENDCHAR
STARTCHAR uni041E.c2sc
ENCODING -1
SWIDTH 519 0
DWIDTH 6 0
BBX 6 7 0 0
BITMAP
05DE70
1E32D4
5A0078
69006A
5A0078
1E32D4
05DE70
ENDCHAR
STARTCHAR uni041F.c2sc
ENCODING -1
SWIDTH 525 0
DWIDTH 6 0
BBX 6 7 0 0
BITMAP
4FFFF8
4C0088
4C0088
4C0088
4C0088
4C0088
4C0088
ENDCHAR
STARTCHAR uni0420.c2sc
ENCODING -1
SWIDTH 481 0
DWIDTH 6 0
BBX 6 7 0 0
BITMAP
4FFE90
4C01D4
4C02D4
4FFE90
4C0000
4C0000
4C0000
ENDCHAR
STARTCHAR uni0421.c2sc
ENCODING -1
SWIDTH 490 0
DWIDTH 6 0
BBX 6 7 0 0
BITMAP
05DE70
1E32D3
5A0043
690000
5A0042
2E32D3
05DE70
ENDCHAR
STARTCHAR uni0422.c2sc
ENCODING -1
SWIDTH 456 0
DWIDTH 5 0
BBX 6 7 0 0
BITMAP
AFFFF2
00C400
00C400
00C400
00C400
00C400
00C400
ENDCHAR
STARTCHAR uni0425.c2sc
ENCODING -1
SWIDTH 478 0
DWIDTH 6 0
BBX 6 7 0 0
BITMAP
6C02E2
0C4980
04DE10
00D900
05CE20
0D4890
6C01E3
ENDCHAR
STARTCHAR uni0498.c2sc
ENCODING -1
SWIDTH 466 0
DWIDTH 6 0
BBX 5 9 0 -2
BITMAP
1AED40
5A16C0
0005B0
00FF20
0005C0
7A15D0
1CFD50
00E200
00E200
ENDCHAR
STARTCHAR uni04A2.c2sc
ENCODING -1
SWIDTH 533 0
DWIDTH 6 0
BBX 7 9 0 -2
BITMAP
4C006900
4C006900
4C006900
4FFFF900
4C006900
4C006900
4C006F80
00000880
00000880
ENDCHAR
STARTCHAR uni04AA.c2sc
ENCODING -1
SWIDTH 490 0
DWIDTH 6 0
BBX 6 9 0 -2
BITMAP
05DE70
1E31D3
5A0032
790000
5A0032
2E31D3
06EE80
008800
008800
ENDCHAR
STARTCHAR uni04AE.c2sc
ENCODING -1
SWIDTH 458 0
DWIDTH 6 0
BBX 6 7 0 0
BITMAP
9801E2
2E17A0
0A6D30
04EB00
00D500
00C400
00C400
ENDCHAR
STARTCHAR uni04BE.c2sc
ENCODING -1
SWIDTH 632 0
DWIDTH 8 0
BBX 7 9 0 -2
BITMAP
002BEB20
40C718A0
B5E001E0
3DFFFFF0
01E00000
00C71310
002BFE20
0000E100
0000E100
ENDCHAR
STARTCHAR uni04E2.c2sc
ENCODING -1
SWIDTH 537 0
DWIDTH 6 0
BBX 6 9 0 0
BITMAP
07FFE0
000000
4C00AA
4C03FA
4C0BAA
4C5B5A
4CD35A
4F905A
4E205A
ENDCHAR
STARTCHAR uni04EE.c2sc
ENCODING -1
SWIDTH 454 0
DWIDTH 5 0
BBX 6 9 0 0
BITMAP
0EFF70
000000
8A02F1
3E06A0
0C4B50
079E00
01F900
01D400
0DA000
ENDCHAR
STARTCHAR uni0424.c2sc
ENCODING -1
SWIDTH 587 0
DWIDTH 7 0
BBX 7 7 0 0
BITMAP
000F1000
06DFD700
3D2F3D40
690F1970
3D2F3D40
06DFD700
000F1000
ENDCHAR
STARTCHAR IJ.c2sc
ENCODING -1
SWIDTH 641 0
DWIDTH 8 0
BBX 7 7 0 0
BITMAP
3D0001F0
3D0001F0
3D0001F0
3D0001F0
3D0001F0
3D0E35D0
3D06EE50
ENDCHAR
STARTCHAR AEacute.c2sc
ENCODING -1
SWIDTH 676 0
DWIDTH 8 0
BBX 8 9 0 0
BITMAP
00004E20
0000B400
000DFFF6
005BD000
00C3E000
04A1FFF2
0BFFF000
2C00F000
9700FFFA
ENDCHAR
STARTCHAR Oslashacute.c2sc
ENCODING -1
SWIDTH 519 0
DWIDTH 6 0
BBX 6 10 0 -1
BITMAP
000B90
003B11
05DEC4
1E44F4
5B0AA8
69496A
5AB178
1E82D4
1CDE70
120000
ENDCHAR
STARTCHAR uni0218.c2sc
ENCODING -1
SWIDTH 453 0
DWIDTH 5 0
BBX 5 10 0 -3
BITMAP
09ED30
4C15D0
3E4030
06DD30
2205D0
6B14E0
08ED50
000000
00A400
00B100
ENDCHAR
STARTCHAR Wgrave.c2sc
ENCODING -1
SWIDTH 655 0
DWIDTH 8 0
BBX 8 9 0 0
BITMAP
007C0000
000A5000
87098087
5A0CB0B4
2C1CC0D1
0E4894D0
0BA56AA0
08E12F70
05D00E40
ENDCHAR
STARTCHAR Wacute.c2sc
ENCODING -1
SWIDTH 655 0
DWIDTH 8 0
BBX 8 9 0 0
BITMAP
0001C700
00059000
87098087
5A0CB0B4
2C1CC0D1
0E4894D0
0BA56AA0
08E12F70
05D00E40
ENDCHAR
STARTCHAR Wdieresis.c2sc
ENCODING -1
SWIDTH 655 0
DWIDTH 8 0
BBX 8 9 0 0
BITMAP
00200200
00B44B00
87098087
5A0CB0B4
2C1CC0D1
0E4894D0
0BA56AA0
08E12F70
05D00E40
ENDCHAR
STARTCHAR Ygrave.c2sc
ENCODING -1
SWIDTH 458 0
DWIDTH 6 0
BBX 6 9 0 0
BITMAP
0A9000
01C200
9801E2
2E17A0
0A6D30
04EB00
00D500
00C400
00C400
ENDCHAR
STARTCHAR Aogonek.locl
ENCODING -1
SWIDTH 576 0
DWIDTH 7 0
BBX 7 11 0 -2
BITMAP
002F1000
007E6000
00C8A000
01E1E000
06A0C400
0A608900
0EFFFE00
4D000E30
98030980
00860000
008E0000
ENDCHAR
STARTCHAR aogonek.locl
ENCODING -1
SWIDTH 479 0
DWIDTH 6 0
BBX 6 9 0 -2
BITMAP
05ED40
1E25C0
0202E0
07EFE0
3D22E0
4D16E0
0BF9F1
076000
08E100
ENDCHAR
STARTCHAR Eogonek.locl
ENCODING -1
SWIDTH 496 0
DWIDTH 6 0
BBX 6 11 0 -2
BITMAP
1FFFF7
1F0000
1F0000
1F0000
1FFFF0
1F0000
1F0000
1F0000
1FFFF8
00B100
01D900
ENDCHAR
STARTCHAR eogonek.locl
ENCODING -1
SWIDTH 468 0
DWIDTH 6 0
BBX 6 9 0 -2
BITMAP
06ED40
2E24D0
5A00E1
6FFFF2
5A0000
2E2170
06FF80
03A100
03E500
ENDCHAR
STARTCHAR Aogonek.c2sc.locl
ENCODING -1
SWIDTH 501 0
DWIDTH 6 0
BBX 6 9 0 -2
BITMAP
009A00
00DD00
04A950
0944A0
0EFFE0
4A00A5
96126A
01B100
02E700
ENDCHAR
STARTCHAR Eogonek.c2sc.locl
ENCODING -1
SWIDTH 428 0
DWIDTH 5 0
BBX 5 9 0 -2
BITMAP
4FFFB0
4C0000
4C0000
4FFF50
4C0000
4C0000
4FFFC0
048000
05E300
ENDCHAR
STARTCHAR glyph1293
ENCODING -1
SWIDTH 234 0
DWIDTH 3 0
BBX 2 10 0 -3
BITMAP
2D
2D
2D
2D
2D
2D
2D
00
3C
02
ENDCHAR
ENDFONT
